<?xml version="1.0" encoding="UTF-8"?>
<svg xmlns="http://www.w3.org/2000/svg" xmlns:xlink="http://www.w3.org/1999/xlink" viewBox="0 0 750 500">
  <defs>
    <style>
      .cls-1 {
        fill: url(#linear-gradient-2);
      }

      .cls-2 {
        fill: #83d6d6;
      }

      .cls-3 {
        fill: #d37a57;
      }

      .cls-4 {
        fill: #d3eadd;
      }

      .cls-5 {
        fill: url(#linear-gradient-12);
      }

      .cls-5, .cls-6, .cls-7, .cls-8, .cls-9, .cls-10, .cls-11, .cls-12, .cls-13 {
        mix-blend-mode: overlay;
        opacity: .45;
      }

      .cls-14 {
        fill: #423f63;
      }

      .cls-6 {
        fill: url(#linear-gradient-14);
      }

      .cls-15 {
        fill: #60bec8;
      }

      .cls-16 {
        fill: url(#linear-gradient-6);
      }

      .cls-17 {
        stroke-width: .95px;
      }

      .cls-17, .cls-18, .cls-19 {
        fill: none;
        stroke-linecap: round;
        stroke-linejoin: round;
      }

      .cls-17, .cls-19 {
        stroke: #423f63;
      }

      .cls-20 {
        isolation: isolate;
      }

      .cls-7 {
        fill: url(#linear-gradient-15);
      }

      .cls-21 {
        fill: #f05757;
      }

      .cls-18 {
        stroke: #f9f9f9;
        stroke-width: .92px;
      }

      .cls-8 {
        fill: url(#linear-gradient-11);
      }

      .cls-22 {
        fill: #f27f97;
      }

      .cls-23 {
        fill: #1f6b7d;
      }

      .cls-9 {
        fill: url(#linear-gradient-7);
      }

      .cls-24 {
        fill: #f9f9f9;
      }

      .cls-25 {
        fill: url(#linear-gradient-5);
      }

      .cls-10 {
        fill: url(#linear-gradient-9);
      }

      .cls-26 {
        fill: #ef8c89;
      }

      .cls-19 {
        stroke-width: .48px;
      }

      .cls-11 {
        fill: url(#linear-gradient-13);
      }

      .cls-27 {
        fill: #008ea7;
      }

      .cls-28 {
        fill: url(#linear-gradient-3);
      }

      .cls-29 {
        fill: #ffe582;
      }

      .cls-30 {
        fill: url(#linear-gradient);
      }

      .cls-31 {
        fill: url(#linear-gradient-4);
      }

      .cls-12 {
        fill: url(#linear-gradient-10);
      }

      .cls-32 {
        fill: #ea9081;
      }

      .cls-13 {
        fill: url(#linear-gradient-8);
      }

      .cls-33 {
        fill: #f2a887;
      }
    </style>
    <linearGradient id="linear-gradient" x1="477.67" y1="86.43" x2="570.57" y2="86.43" gradientUnits="userSpaceOnUse">
      <stop offset="0" stop-color="#f27f97"/>
      <stop offset=".87" stop-color="#f7b0c1"/>
    </linearGradient>
    <linearGradient id="linear-gradient-2" x1="478.7" y1="109.99" x2="472.68" y2="65.34" gradientUnits="userSpaceOnUse">
      <stop offset="0" stop-color="#008ea7"/>
      <stop offset=".87" stop-color="#00b3c6"/>
    </linearGradient>
    <linearGradient id="linear-gradient-3" x1="298.74" y1="110.09" x2="323.82" y2="46.38" xlink:href="#linear-gradient-2"/>
    <linearGradient id="linear-gradient-4" x1="173.06" y1="130.25" x2="234.48" y2="130.25" xlink:href="#linear-gradient"/>
    <linearGradient id="linear-gradient-5" x1="187.95" y1="248.69" x2="222.94" y2="272.02" gradientUnits="userSpaceOnUse">
      <stop offset="0" stop-color="#60bec8"/>
      <stop offset=".87" stop-color="#86dce0"/>
    </linearGradient>
    <linearGradient id="linear-gradient-6" x1="337.45" y1="98.91" x2="413.64" y2="98.91" xlink:href="#linear-gradient"/>
    <linearGradient id="linear-gradient-7" x1="390.01" y1="303.45" x2="383.42" y2="308.34" gradientUnits="userSpaceOnUse">
      <stop offset="0" stop-color="#000"/>
      <stop offset=".87" stop-color="#000" stop-opacity="0"/>
    </linearGradient>
    <linearGradient id="linear-gradient-8" x1="135.69" y1="311.85" x2="137.2" y2="351.67" xlink:href="#linear-gradient-7"/>
    <linearGradient id="linear-gradient-9" x1="153.08" y1="240.55" x2="131.63" y2="250.21" xlink:href="#linear-gradient-7"/>
    <linearGradient id="linear-gradient-10" x1="162.43" y1="224.02" x2="146.63" y2="216.78" xlink:href="#linear-gradient-7"/>
    <linearGradient id="linear-gradient-11" x1="147.24" y1="182.15" x2="149.15" y2="186.23" xlink:href="#linear-gradient-7"/>
    <linearGradient id="linear-gradient-12" x1="601.45" y1="178.69" x2="605.59" y2="179.88" xlink:href="#linear-gradient-7"/>
    <linearGradient id="linear-gradient-13" x1="615.42" y1="303.96" x2="638.5" y2="362.9" xlink:href="#linear-gradient-7"/>
    <linearGradient id="linear-gradient-14" x1="603.03" y1="203.3" x2="579.89" y2="208.76" xlink:href="#linear-gradient-7"/>
    <linearGradient id="linear-gradient-15" x1="603.36" y1="221.64" x2="615.9" y2="228.92" xlink:href="#linear-gradient-7"/>
  </defs>
  <g class="cls-20">
    <g id="BACKGROUND">
      <rect class="cls-24" width="750" height="500"/>
    </g>
    <g id="OBJECTS">
      <g>
        <path class="cls-29" d="M129.43,430.37c-7.75-61.06,48.76-49.68,50.88-98.82,2.12-49.14-9.17-118.19,89.78-109.25s191.88,27.1,216.34,2.03c24.46-25.07,88.04-64.58,124.35-19.43,36.31,45.15,15.07,43.86,55.79,79.12,40.72,35.26,30.56,113.33-17.97,146.35H129.43Z"/>
        <path class="cls-15" d="M200.86,430.37s-19.19-29.07,12.79-53.15c31.98-24.08,59.45,20.32,107.61-14.67,48.16-34.99,74.62-57.42,122.16-43.01,47.53,14.41,41.89,47.14,67.47,56.17,25.58,9.03,56.44,18.25,51.92,54.65H200.86Z"/>
        <path class="cls-17" d="M151.27,428.8c2.52-40.49-70.66-91.95-59.52-162.17,11.29-71.13,84.69-111.72,159.53-78.94,74.84,32.78,257.8,44.54,294.83-11.07,37.03-55.62,81.85-63.52,120.47-36.95,47.21,32.47,24.69,140.63,0,177.62-24.34,36.45-44.34,66.78-41.02,111.12"/>
      </g>
      <g>
        <g>
          <path class="cls-30" d="M477.91,122.08c-2.45-21.26,13.73-39.51,35.18-47.41s28.78-31.79,48.35-21.26c19.56,10.53,3.76,42.7-10.91,51.55l-72.62,17.12Z"/>
          <path class="cls-1" d="M462.99,112.11c-5.21-22.39-2.94-51.36,9.47-53.62,18.62-3.39,6.9,42.63,22.39,49.29l-31.86,4.33Z"/>
          <path class="cls-28" d="M264.58,115.25c-3.51-17.31-2.76-35.62,12.54-45.65,15.3-10.03,27.09-8.78,41.89-21.07s43.14,7.27,31.1,41.64c-12.04,34.36-85.53,25.08-85.53,25.08Z"/>
          <path class="cls-31" d="M219.99,188.68c-2.82-26.34-33.12-43.46-42.24-70.08s-4.98-45.62,12.7-46.75c17.68-1.13,17.68,35.56,44.02,39.13l-14.49,77.7Z"/>
        </g>
        <g>
          <rect class="cls-4" x="212.66" y="101.7" width="376.38" height="251.58" rx="20.07" ry="20.07"/>
          <path class="cls-15" d="M568.97,101.7H232.72c-11.08,0-20.07,8.98-20.07,20.07v4.52h376.38v-4.52c0-11.08-8.98-20.07-20.07-20.07Z"/>
          <g>
            <path class="cls-29" d="M536.73,113.99c0-2.01-1.63-3.64-3.64-3.64s-3.64,1.63-3.64,3.64,1.63,3.64,3.64,3.64,3.64-1.63,3.64-3.64Z"/>
            <path class="cls-22" d="M554.16,113.99c0-2.01-1.63-3.64-3.64-3.64s-3.64,1.63-3.64,3.64,1.63,3.64,3.64,3.64,3.64-1.63,3.64-3.64Z"/>
            <path class="cls-24" d="M571.6,113.99c0-2.01-1.63-3.64-3.64-3.64s-3.64,1.63-3.64,3.64,1.63,3.64,3.64,3.64,3.64-1.63,3.64-3.64Z"/>
          </g>
          <g>
            <rect class="cls-24" x="224.07" y="137.7" width="218.35" height="123.28"/>
            <g>
              <circle class="cls-14" cx="333.24" cy="199.34" r="18.96"/>
              <polygon class="cls-24" points="339.99 199.34 329.87 193.49 329.87 205.18 339.99 199.34"/>
            </g>
            <g>
              <path class="cls-22" d="M431.26,251.15H235.23c-.53,0-.95-.43-.95-.95s.43-.95,.95-.95h196.03c.53,0,.95,.43,.95,.95s-.43,.95-.95,.95Z"/>
              <path class="cls-22" d="M260.19,250.19c0-1.87-1.52-3.39-3.39-3.39s-3.39,1.52-3.39,3.39,1.52,3.39,3.39,3.39,3.39-1.52,3.39-3.39Z"/>
            </g>
          </g>
          <g>
            <rect class="cls-24" x="224.07" y="270.14" width="218.35" height="71.26"/>
            <g>
              <rect class="cls-15" x="235.48" y="281.55" width="48.43" height="48.43"/>
              <rect class="cls-14" x="294.07" y="281.55" width="129.66" height="4.86"/>
              <rect class="cls-14" x="294.07" y="293.42" width="129.66" height="4.86"/>
              <rect class="cls-15" x="360.9" y="325.12" width="62.83" height="4.86"/>
              <rect class="cls-14" x="294.07" y="305.29" width="41.05" height="4.86"/>
            </g>
          </g>
          <g>
            <rect class="cls-24" x="451.57" y="137.7" width="126.05" height="203.7"/>
            <g>
              <rect class="cls-14" x="462.99" y="243.95" width="103.22" height="5.24"/>
              <rect class="cls-14" x="462.99" y="256.91" width="103.22" height="5.24"/>
              <rect class="cls-14" x="462.99" y="269.87" width="103.22" height="5.24"/>
              <rect class="cls-15" x="462.99" y="282.83" width="59.13" height="5.24"/>
              <rect class="cls-14" x="462.99" y="299.97" width="103.22" height="5.24"/>
              <rect class="cls-14" x="462.99" y="313.04" width="22.45" height="5.24"/>
              <rect class="cls-15" x="524" y="325.89" width="42.21" height="5.24"/>
            </g>
          </g>
        </g>
        <g>
          <path class="cls-25" d="M212.66,239.28v20.82s14.92-16.33,24.96-5.35-4.89,34.07-31.6,30.93c-26.71-3.14-12.29-45.9,6.65-46.4Z"/>
          <path class="cls-16" d="M337.45,101.7s8.78-29.9,38.38-29.87c29.6,.03,44.27,41.91,35.12,50.94-9.16,9.03-23.95-1.88-26.71-21.07h-46.78Z"/>
        </g>
      </g>
      <g>
        <g>
          <path class="cls-14" d="M380.15,321.65c-10.06,.47-33.86,6.11-38.38-11.85-4.51-17.97,7.62-17.53,16.55-26.59,8.94-9.06,12.32-21.76,27.37-21.29,15.05,.47,17.78,19.44,16.37,30.46l-.56,5s10.86,6.11,8.98,14.86c-1.88,8.75-11.32,11.91-18.57,10.61l-11.76-1.21Z"/>
          <path class="cls-21" d="M379.71,398.77s-88.79-26.34-96.57,2.51c-7.78,28.85,26.09,29.1,42.14,29.1h59.2l-4.77-31.6Z"/>
          <path class="cls-21" d="M379.71,398.77c20.13-6.21,54.24-21.73,72.87-15.33,18.62,6.4,13.73,29.16,2.45,36.12-11.29,6.96-29.16,10.82-53.8,10.82h-29.91l8.4-31.6Z"/>
          <g>
            <path class="cls-2" d="M419.46,330.85c-6.41-7.14-14.2-11.19-22.59-13.25h0l-19.45,4.22-14-4.54h0c-2.62,.4-5.21,.86-7.73,1.34-21.45,4.14-43.64,30.1-44.77,50.79-1.13,20.69,31.6,25.77,61.33,26.91,0,0-.19-.95,39.88-4.34,40.07-3.39,23.89-42.7,7.34-61.14Z"/>
            <path class="cls-33" d="M363.42,317.28c2.37,3.45,7.51,8.95,16.54,9.53,8.59,.55,14.1-5.13,16.92-9.21-10.73-2.64-22.42-2-33.45-.32Z"/>
          </g>
          <g>
            <path class="cls-33" d="M374.02,323.25l1.04-21.63s-7.71,.97-8.59-5.05c-.88-6.02,3.74-7.02,7.55-5.89,3.8,1.13,13.08-6.46,17.66-15.49,0,0,11.48,4.39,11.16,17.81-.31,13.42-14.36,11.41-14.36,11.41l.04,18.6-14.51,.25Z"/>
            <path class="cls-9" d="M388.49,304.4c-5.57-.67-6.98-1.94-6.98-1.94,0,0-.2,7.23,6.99,9.4l-.02-7.46Z"/>
            <g>
              <path class="cls-19" d="M369.45,294.18s2.23,.85,4.83-.19"/>
              <path class="cls-19" d="M372.56,297.82s-1.19-1.39-.94-3.31"/>
            </g>
            <g>
              <path class="cls-26" d="M391.91,298.42c0-2.77-2.25-5.02-5.02-5.02s-5.02,2.25-5.02,5.02,2.25,5.02,5.02,5.02,5.02-2.25,5.02-5.02Z"/>
              <path class="cls-26" d="M399.18,294.25c0,1.83,.99,3.42,2.46,4.29,.7-1.47,1.15-3.29,1.21-5.56,.03-1.24-.04-2.4-.2-3.49-2.01,.66-3.47,2.52-3.47,4.75Z"/>
            </g>
            <polyline class="cls-19" points="393 284.37 396.45 285.94 394.1 288.51"/>
            <g>
              <path class="cls-19" d="M384.1,288.88s.78-3.86,4.01-2.07"/>
              <path class="cls-19" d="M395.1,283.21s.81-2.99,3.17-1.44"/>
            </g>
          </g>
        </g>
        <g>
          <rect class="cls-27" x="331.23" y="366.79" width="86.93" height="58.32"/>
          <rect class="cls-2" x="331.23" y="425.1" width="86.93" height="5.27"/>
        </g>
      </g>
      <g>
        <g>
          <rect class="cls-15" x="57.33" y="113.1" width="80.14" height="46.65"/>
          <g>
            <rect class="cls-14" x="73.13" y="122.6" width="56.3" height="3.26"/>
            <rect class="cls-14" x="65.98" y="134.31" width="63.45" height="3.26"/>
            <rect class="cls-4" x="65.98" y="146.01" width="63.45" height="3.26"/>
            <path class="cls-14" d="M65.98,126.58c-.26,0-.51-.14-.64-.39-.18-.35-.03-.78,.32-.96l1.99-.99-1.99-.99c-.35-.18-.49-.6-.32-.96s.61-.49,.96-.32l3.26,1.63c.24,.12,.39,.37,.39,.64s-.15,.52-.39,.64l-3.26,1.63c-.1,.05-.21,.08-.32,.08Z"/>
          </g>
        </g>
        <g>
          <g>
            <path class="cls-3" d="M98.59,170.54s4.51-3.48,5.36-6.43l2.45-4.36h-2.76s1.13-8.5,.19-8.65c-.94-.16-2.79,8.34-2.79,8.34,0,0,1.22-9.88-.19-10.16-1.41-.28-2.51,9.85-2.51,9.85,0,0,.31-8.9-1.19-8.97s-1.57,9.03-1.57,9.03c0,0-1.38-5.14-2.48-5.3s0,5.71,0,5.71c0,0-2.67,5.55-1.03,10.63,0,0-12.48,43.21-1.57,58.13,4.4,6.02,13.34,6.04,22.44,3.92l2.27-13.32-5.45-12.21c-6.2,3.07-10.23,5.5-10.23,5.5l-.94-41.7Z"/>
            <path class="cls-21" d="M112.94,232.28c13.44-3.14,27.22-10.94,27.22-10.94l10.85-27.07c-14,.22-30.75,7.27-41.25,12.48l3.18,25.53Z"/>
          </g>
          <g>
            <path class="cls-3" d="M166.62,327.48l-31.26-33.4-31.15,36.64c.79,38.77,5.91,74.66,7.96,87.65h0l3.39,3.73,5.3-3.39c-.76-23.91,4.78-74.59,13.29-114.35,0,0,7.81,57.77,41.29,110.34l6.99,.06,1.99-6.75c-4.81-15.13-12.9-44.09-17.8-80.53Z"/>
            <path class="cls-13" d="M166.62,327.48l-31.26-33.4-31.15,36.64c.11,5.15,.29,10.24,.53,15.24,7.15,1.27,14.57,1.88,21.77,2.06,2.1-14.82,4.69-29.89,7.63-43.65,0,0,2.45,18.1,10.47,43.25,10.48-.69,19.33-2.03,24.59-3.14-.93-5.46-1.8-11.13-2.59-17Z"/>
            <path class="cls-14" d="M113.01,423.51l-11.48,6.87h19.85s-.3-4.37-.53-11.66l-8.68-.35c.52,3.31,.85,5.14,.85,5.14Z"/>
            <path class="cls-14" d="M184.42,408.01l-8.98,6.7c.87,1.37,1.76,2.74,2.67,4.1l-5.83,11.57,16.08-10.82s-1.57-4.11-3.94-11.55Z"/>
          </g>
          <path class="cls-14" d="M162.49,267.36l-27-2.38-27,.12h0c-3.76,20.31-4.72,43.43-4.27,65.61,33.07,8.32,62.4-3.23,62.4-3.23,0,0,0,0,0-.01-2.47-18.4-4.13-38.71-4.13-60.12Z"/>
          <g>
            <path class="cls-21" d="M162.49,267.46s0-.07,0-.1c0-84.66-10.79-72.49-10.79-72.49-11.54-1.51-30.6,4.2-43.02,69.1-.07,.37-.14,.75-.21,1.13,9.44,2.76,32.54,8.13,54.01,2.36Z"/>
            <path class="cls-10" d="M147.7,269.83c4.89-.32,9.88-1.05,14.79-2.37,0-.03,0-.07,0-.1,0-5.61-.05-10.79-.14-15.59l-36.72-30.01c1.23,21.29,11.49,33.77,22.07,48.07Z"/>
            <path class="cls-12" d="M156.08,203.81v-4.7s-9.31,14.49-11.57,30.48,13.36,8.47,13.36,8.47l-1.79-34.24Z"/>
          </g>
          <g>
            <g>
              <rect class="cls-14" x="122.11" y="185.27" width="3.01" height="16.67" transform="translate(-28.25 21.27) rotate(-8.83)"/>
              <rect class="cls-14" x="121.34" y="182.54" width="1.76" height="4.13" transform="translate(-26.9 20.95) rotate(-8.83)"/>
              <path class="cls-14" d="M129.94,172.64c-.8-5.17-5.64-8.71-10.81-7.9-5.17,.8-8.71,5.64-7.9,10.81,.8,5.17,5.64,8.71,10.81,7.9,5.17-.8,8.71-5.64,7.9-10.81Zm-8.1,9.56c-4.47,.69-8.67-2.38-9.37-6.85s2.38-8.67,6.85-9.37c4.47-.69,8.67,2.38,9.37,6.85,.69,4.47-2.38,8.67-6.85,9.37Z"/>
            </g>
            <path class="cls-3" d="M123.33,202.32c1.07-3,4.26-7.08,3.7-9.02-.56-1.94-3.14-2.46-4.39-1.2-1.25,1.26,.69,10.22,.69,10.22Z"/>
            <path class="cls-3" d="M178.73,234.11l-8.47-1.84-14.16-.79h0l.74,5.4-32.14-37.03s.16-3.42,.16-6.43-4.7-5.08-7.52-2.01c-2.82,3.07,1.25,13.86,1.25,13.86,0,0,17.06,46.53,35.12,52.17,15.71,4.91,24.49-4.33,25.02-23.34h0Z"/>
            <path class="cls-21" d="M151.01,194.27l5.09,37.22c4.27,.97,13.37,2.74,22.63,2.63,.08-2.84-.02-5.89-.31-9.14-2.26-25.08-18.75-30.93-27.4-30.71Z"/>
          </g>
          <g>
            <path class="cls-21" d="M145.6,166.61s-7.58-13.14,6.28-21.98,32.02,1.6,34.26,19.05c2.26,17.59-14.86,27.91-29.25,18.96l-10.81-16.04"/>
            <path class="cls-3" d="M160.37,173.28c-2.49,1.51-3.06,3.25-4.28,2.49-1.22-.75,3.48-7.9,1.79-8.98-1.69-1.08-3.48,2.77-5.46,.89-1.98-1.88,.24-3.95-1.6-4.7-1.83-.75-5.08-1.22-5.08-1.22,0,0-8.23,7.31-6.98,15.27,.6,3.79,4.72,4.89,7.57,6.16l-1.57,14.3c1.65,.85,5.25,2.1,9.96,.43l.93-14.62s6.54,2.87,8.51-2.87c1.98-5.74-1.32-8.65-3.81-7.15Z"/>
            <path class="cls-8" d="M151.9,184.26s-2.85-.25-5.56-1.08l-.43,3.93c2.95-.98,5.99-2.85,5.99-2.85Z"/>
            <path class="cls-19" d="M146.38,168.09l-3.26,1.63s.16,1.1,1.91,2.23"/>
            <g>
              <path class="cls-14" d="M151.12,171.55c0,.41-.15,.74-.34,.74s-.34-.33-.34-.74,.15-.74,.34-.74,.34,.33,.34,.74Z"/>
              <path class="cls-14" d="M143.28,167.35c0,.41-.15,.74-.34,.74s-.34-.33-.34-.74,.15-.74,.34-.74,.34,.33,.34,.74Z"/>
            </g>
            <g>
              <path class="cls-32" d="M151.13,178.59c0-1.83-1.49-3.32-3.32-3.32s-3.32,1.49-3.32,3.32,1.49,3.32,3.32,3.32,3.32-1.49,3.32-3.32Z"/>
              <path class="cls-32" d="M139.33,171.25c-.6,1.81-.89,3.77-.57,5.77,.02,.11,.05,.21,.07,.32,1.13-.63,1.91-1.82,1.91-3.21,0-1.17-.56-2.21-1.41-2.88Z"/>
            </g>
            <g>
              <path class="cls-19" d="M159.47,176.24s1.99-.06,3.12,1.54"/>
              <path class="cls-19" d="M159.14,179.5s1.47-.52,2.04-2.88"/>
            </g>
          </g>
          <g>
            <path class="cls-18" d="M109.44,269.83s26.73,9.07,51.04,3.3"/>
            <path class="cls-18" d="M155.09,271s2.26,33.74,5.39,56.06"/>
          </g>
        </g>
      </g>
      <g>
        <g>
          <path class="cls-21" d="M587.08,166.7s-6.77-1.46-7.62-6.16c-.85-4.7,4.04-5.83,4.42-9.59,.38-3.76,.29-12.98,13.17-11.01s14.62,15.01,24.83,14.11c18.03-1.6,29.85,6.62,31.83,21.01s-9.35,23.67-21.2,22.63c-11.85-1.03-23.35-12.99-23.35-12.99l-22.08-18Z"/>
          <g>
            <path class="cls-33" d="M606.86,190.07l-5.33-10.28s-11.48,6.27-15.05-4.39l-2.17-.37s1.24-3.21,1.67-5.72c.43-2.51-.51-7.4-.51-7.4,0,0,3.95-1.24,5.08-3.12,1.13-1.88,6.11-.89,6.26,1.65,.14,2.54,3.34,2.63,3.34,2.63,0,0,1.69,4.66,3.62,3.72,1.93-.94-.89-3.39,.89-6.26,1.79-2.87,8-1.83,8.61,2.82,.61,4.66-2.68,7.71-5.88,6.96l8,15.24-8.53,4.51Z"/>
            <path class="cls-5" d="M601.53,179.79l2.05,3.96c2.38-2.78,2.73-8.12,2.73-8.12,0,0-1.74,2.87-4.78,4.15Z"/>
          </g>
          <path class="cls-19" d="M589.15,166.7s1.83-2.54,4.19-.47"/>
          <path class="cls-26" d="M597.41,174.66c0-2.02-1.64-3.65-3.65-3.65s-3.65,1.64-3.65,3.65,1.64,3.65,3.65,3.65,3.65-1.64,3.65-3.65Z"/>
          <g>
            <path class="cls-19" d="M606.74,163.71s1.6-1.94,3.73-1.29"/>
            <path class="cls-19" d="M609.06,165.87s.47-1.62-.61-3.37"/>
          </g>
        </g>
        <g>
          <path class="cls-33" d="M661.57,410.32h0c-2.93-4.36-6.9-10.79-10.99-19.02l-8.21-.34-3.95,7.98c4.5,6.41,9.55,12.87,15.21,19.3l7.09-2.73,.86-5.19Z"/>
          <path class="cls-14" d="M650.59,391.3c-10.75-21.62-22.35-55.64-18.28-97.06l-30.66-7.49s-4.01,54.16,36.78,112.2l12.16-7.64Z"/>
          <path class="cls-11" d="M632.31,294.23l-30.66-7.49s-2.7,36.51,18.91,81.69c3.89-2.72,10.09-7.51,16.33-14.16-4.37-17.31-6.77-37.58-4.57-60.04Z"/>
          <path class="cls-14" d="M661.57,410.32l-7.94,7.92-3.45,12.13,16.18-13.45s-1.89-2.29-4.79-6.6Z"/>
        </g>
        <g>
          <path class="cls-2" d="M608.31,184.37c-10.89,7.36-27.35,26.46-61.78,39.53l.94,7.9s35.05-1.79,61.77-16.16l-.93-31.27Z"/>
          <path class="cls-6" d="M584.7,225.3c8.17-2.32,16.71-5.45,24.53-9.66l-.93-31.27c-6.02,4.07-13.74,11.71-25.24,19.95,.07,5.03,.46,12.06,1.64,20.98Z"/>
        </g>
        <g>
          <path class="cls-33" d="M599.48,395.19l-7.16,1.99c-.13,8.41-.19,16.94-.17,25.47l4.78,2.17,5.32-1.89s-.27-9.98,1.53-24.55l-4.32-3.19Z"/>
          <path class="cls-14" d="M649.1,263.53h-28.08l-22.2,7.41s-5.45,59.52-6.5,126.25l11.47,1.2c2.52-20.43,9.12-49.88,26.25-73.46,13.88-19.1,18.55-41.11,19.05-61.4Z"/>
          <polygon class="cls-14" points="581.9 430.37 603.15 430.37 602.27 422.93 592.16 422.66 581.9 430.37"/>
          <g>
            <path class="cls-18" d="M601.18,274.82s25.49-.4,43.55-5.48"/>
            <path class="cls-18" d="M606.07,272.09s-3.57,15.97,8.28,14.65"/>
          </g>
        </g>
        <g>
          <rect class="cls-4" x="468.7" y="143.4" width="83.81" height="103.22" transform="translate(705.61 -315.59) rotate(90)"/>
          <path class="cls-15" d="M503.38,211.3s21.08-30.1,58.83-22.32v47.94h-58.83v-25.61Z"/>
          <path class="cls-23" d="M458.99,215.64s42.4-38.46,103.22,2.43v18.84h-103.22v-21.27Z"/>
          <circle class="cls-22" cx="487.08" cy="181.85" r="10.29"/>
        </g>
        <g>
          <path class="cls-2" d="M605.1,186.09c-15.49,13.64-6.27,84.84-6.27,84.84,0,0,26.48-1.55,50.28-7.41,.55-22.62-4.1-43.09-7.01-54.99-5.52-22.57-24.72-33.26-37-22.45Z"/>
          <path class="cls-7" d="M622.56,199.04c0-8.3-29.22,8-25.58,10.77-1.49,13.95-.82,30.8,.11,43.27,11.92-3.43,25.43-20.14,25.47-54.04Z"/>
        </g>
        <g>
          <path class="cls-33" d="M537.21,236.91h-4.48s-3.54-8.81-4.92-8.37c-1.38,.44-.42,6.07-.42,6.07,0,0-4.72-8.04-6.07-7.39-1.35,.66,.38,5.64,.38,5.64,0,0-3.61-2.85-4.51-2.38-.91,.47,1.35,4.55,1.35,4.55,0,0-2.26-1-2.73,.34-.47,1.35,6.18,10.77,16.95,10.58,0,0,4.54,1.72,12.73,2.52l3.84-3.9-4.57-7.01c-2.45,.66-5.01,1.29-7.71,1.89,0,0,.31-.95,.19-2.55Z"/>
          <path class="cls-2" d="M585.75,243.94c32.55-9.78,37.56-35.87,36.81-44.9s-10.79-22.76-20.69-8.84c-8.01,11.25-10.99,34.9-57.13,47.37l.74,10.91c9.21,.9,23.05,.64,40.27-4.54Z"/>
        </g>
      </g>
    </g>
  </g>
</svg>