<?xml version="1.0" encoding="UTF-8"?>
<svg xmlns="http://www.w3.org/2000/svg" viewBox="0 0 750.48 500.24">
  <defs>
    <style>
      .cls-1 {
        opacity: .18;
      }

      .cls-1, .cls-2, .cls-3, .cls-4, .cls-5, .cls-6, .cls-7, .cls-8, .cls-9 {
        mix-blend-mode: multiply;
      }

      .cls-10 {
        fill: #2d7265;
      }

      .cls-11 {
        fill: #ffece5;
      }

      .cls-12 {
        fill: #fff;
      }

      .cls-13 {
        font-family: BungeeLayers-Regular, 'BungeeLayers Regular';
        font-size: 46.26px;
      }

      .cls-13, .cls-14 {
        fill: #ffc971;
      }

      .cls-15 {
        fill: #dadaea;
      }

      .cls-16 {
        fill: #2b3058;
      }

      .cls-17 {
        fill: #fcb25c;
      }

      .cls-18 {
        fill: #3f9d8b;
      }

      .cls-19 {
        fill: #e05d3e;
      }

      .cls-20 {
        isolation: isolate;
      }

      .cls-21 {
        fill: #fabcb2;
      }

      .cls-22 {
        fill: #acaad0;
      }

      .cls-23 {
        fill: #409d8b;
      }

      .cls-2 {
        fill: #ffc5bb;
      }

      .cls-24 {
        fill: #fcf1ed;
      }

      .cls-3 {
        opacity: .21;
      }

      .cls-25 {
        fill: #714fa6;
      }

      .cls-26 {
        fill: #bbbbbc;
      }

      .cls-27 {
        fill: #898aba;
      }

      .cls-4 {
        opacity: .25;
      }

      .cls-28 {
        fill: #e9e6f4;
      }

      .cls-29 {
        fill: #ea5390;
      }

      .cls-30 {
        fill: #ffad54;
      }

      .cls-31 {
        fill: #f684b8;
      }

      .cls-32 {
        fill: #ff8a5f;
      }

      .cls-5 {
        opacity: .29;
      }

      .cls-6 {
        opacity: .19;
      }

      .cls-7 {
        opacity: .16;
      }

      .cls-33 {
        fill: #bc6246;
      }

      .cls-34 {
        fill: #ff8f67;
      }

      .cls-35 {
        fill: #8267c4;
      }

      .cls-36 {
        fill: #9b4daa;
      }

      .cls-37 {
        fill: #ffe1e7;
      }

      .cls-38 {
        fill: #53c1ac;
      }

      .cls-39 {
        fill: #7752b2;
      }

      .cls-40 {
        fill: #ff4e88;
      }

      .cls-8 {
        opacity: .23;
      }

      .cls-41 {
        fill: #4f2b50;
      }

      .cls-42 {
        fill: #f7da5e;
      }

      .cls-43 {
        fill: #5b3d82;
      }

      .cls-44 {
        fill: #7f387a;
      }

      .cls-45 {
        fill: #3e1631;
      }

      .cls-9 {
        fill: #e2cac3;
      }
    </style>
  </defs>
  <g class="cls-20">
    <g id="BACKGROUND">
      <rect class="cls-28" width="750.48" height="500.24"/>
    </g>
    <g id="OBJECTS">
      <g>
        <path class="cls-30" d="M645.47,451.68c33.18-72.78,31.55-163.13-10.56-230.82-42.45-68.23-127.01-108.04-203.58-89.48-17.93,4.35-35.42,11.76-49.64,23.82-31.37,26.61-44.01,73-78.72,94.77-26.46,16.6-59.57,14.99-89.92,21.4-40.28,8.51-77.7,32.86-100.25,68.28-20.78,32.63-28.03,74.54-17.96,112.03H645.47Z"/>
        <g>
          <g>
            <path class="cls-9" d="M348.48,269.22c-6.05-2.75-11.6-6.87-15.26-12.41-.66-1-1.22-2.43-.38-3.28,.36-.37,.9-.51,1.41-.6,5.3-.93,10.65,1.26,15.29,3.98,5.16,3.02,9.88,6.78,14,11.12-1.56-3.67-3.05-7.37-4.47-11.1-3.36-4.88-6.97-9.9-8.83-15.43-2.11-6.3-2.9-13.16-1.35-19.62,.28-1.16,.94-2.55,2.13-2.52,.52,.01,.99,.31,1.4,.63,4.29,3.24,6.35,8.64,7.53,13.89,1.56,6.96,1.93,14.18,1.13,21.26,1.98,5.24,4.1,10.41,6.34,15.53,0-5.41-.22-10.82,1.42-15.97,2.01-6.33,5.43-12.34,10.5-16.63,.91-.77,2.26-1.5,3.21-.77,.41,.32,.61,.84,.76,1.33,1.55,5.15,.02,10.72-2.12,15.65-3.04,6.99-7.35,13.42-12.64,18.9,3.31,7.37,6.91,14.6,10.77,21.69-.68-5.2-1.51-10.37-.57-15.52,1.19-6.54,3.81-12.93,8.29-17.84,.8-.88,2.05-1.78,3.08-1.17,.45,.26,.71,.75,.92,1.23,2.2,4.91,1.39,10.63-.11,15.79-2.12,7.3-5.56,14.2-10.09,20.31,4.15,7.44,8.6,14.71,13.33,21.79-1.04-5.19-2.24-10.34-1.66-15.6,.74-6.6,2.92-13.16,7.05-18.36,.74-.94,1.93-1.91,3-1.38,.47,.23,.76,.7,1.01,1.16,2.53,4.75,2.11,10.51,.97,15.76-1.62,7.41-4.57,14.53-8.67,20.92,4.3,6.31,8.82,12.46,13.56,18.45-1.02-5.07-2.16-10.1-1.58-15.23,.74-6.6,2.92-13.16,7.05-18.36,.74-.94,1.93-1.91,3-1.38,.47,.23,.76,.7,1.01,1.16,2.53,4.75,2.11,10.51,.97,15.76-1.58,7.27-4.46,14.25-8.43,20.54,4.05,5,8.24,9.88,12.59,14.63-1.53-4.43-3.01-8.83-3.1-13.52-.14-6.64,1.16-13.43,4.57-19.13,.61-1.03,1.66-2.15,2.79-1.76,.49,.17,.85,.59,1.15,1.02,3.13,4.37,3.48,10.14,3.04,15.5-.6,7.28-2.47,14.44-5.48,21.1,5.83,6.2,11.92,12.17,18.25,17.89,1.21,1.09-.48,2.96-1.69,1.87-6.4-5.78-12.55-11.82-18.44-18.08-6.16,1.1-12.6,2.53-18.77,1.92-6.61-.66-13.19-2.76-18.45-6.82-.94-.73-1.94-1.9-1.42-2.98,.23-.47,.69-.77,1.15-1.02,4.71-2.59,10.48-2.25,15.75-1.17,6.72,1.37,13.2,3.84,19.14,7.27-4.65-5.06-9.13-10.27-13.44-15.62-6.1,.28-12.49,.79-18.36-.6-6.47-1.52-12.71-4.47-17.39-9.19-.84-.85-1.67-2.14-1.01-3.14,.29-.44,.79-.67,1.27-.86,5.01-1.94,10.69-.84,15.77,.92,5.75,2,11.2,4.83,16.15,8.36-4.24-5.46-8.31-11.06-12.19-16.79-5.97,.28-12.2,.73-17.94-.62-6.47-1.52-12.71-4.47-17.39-9.19-.84-.85-1.67-2.14-1.01-3.14,.29-.44,.79-.67,1.27-.86,5.01-1.94,10.69-.84,15.77,.92,5.85,2.03,11.38,4.93,16.41,8.54-4.3-6.57-8.36-13.29-12.17-20.15-5.97-.12-12.22-.1-17.85-1.84-6.35-1.96-12.38-5.33-16.72-10.36-.78-.9-1.52-2.25-.8-3.2,.31-.41,.83-.62,1.33-.77,5.14-1.6,10.72-.11,15.67,1.99,5.78,2.46,11.17,5.79,15.99,9.81-3.59-6.71-6.93-13.56-10.04-20.52-5.87-.88-12.03-1.66-17.35-4.09Z"/>
            <path class="cls-42" d="M271.38,320.96c-5.22-.75-10.36-2.65-14.39-6.05-.72-.61-1.47-1.58-1.02-2.41,.2-.36,.57-.59,.94-.77,3.83-1.89,8.39-1.41,12.53-.38,4.6,1.16,9.04,2.97,13.14,5.35-2.01-2.45-3.97-4.94-5.88-7.46-3.65-2.97-7.52-5.99-10.16-9.79-3.01-4.33-5.14-9.38-5.4-14.65-.05-.95,.15-2.15,1.07-2.39,.4-.11,.82,.02,1.21,.17,3.99,1.51,6.76,5.17,8.83,8.9,2.74,4.95,4.63,10.37,5.59,15.95,2.67,3.55,5.44,7.02,8.29,10.42-1.2-4.12-2.58-8.19-2.48-12.48,.12-5.27,1.39-10.61,4.29-15.01,.52-.79,1.39-1.65,2.27-1.3,.38,.15,.65,.5,.88,.85,2.33,3.58,2.41,8.16,1.87,12.4-.76,6-2.61,11.86-5.42,17.21,4.17,4.88,8.52,9.59,13.04,14.13-1.67-3.81-3.46-7.56-3.89-11.7-.55-5.24,.03-10.7,2.34-15.43,.42-.85,1.17-1.81,2.09-1.58,.4,.1,.71,.41,.98,.73,2.77,3.25,3.43,7.79,3.44,12.06,0,6.03-1.07,12.06-3.16,17.72,4.82,4.74,9.82,9.29,15.01,13.63-1.95-3.73-4.01-7.38-4.73-11.51-.91-5.19-.7-10.67,1.28-15.56,.36-.88,1.04-1.89,1.97-1.72,.41,.07,.74,.36,1.02,.66,2.98,3.05,3.95,7.54,4.25,11.79,.42,6.01-.25,12.09-1.94,17.87,4.68,3.85,9.49,7.53,14.44,11.03-1.9-3.63-3.89-7.21-4.6-11.25-.91-5.19-.7-10.67,1.28-15.56,.36-.88,1.04-1.89,1.97-1.72,.41,.07,.74,.36,1.02,.66,2.98,3.05,3.95,7.54,4.25,11.79,.41,5.89-.22,11.85-1.85,17.53,4.2,2.91,8.48,5.69,12.85,8.34-2.15-3.03-4.26-6.06-5.37-9.6-1.58-5.03-2.11-10.49-.78-15.59,.24-.92,.78-2.01,1.73-1.96,.41,.02,.78,.26,1.1,.52,3.36,2.63,4.91,6.95,5.77,11.13,1.16,5.68,1.33,11.55,.53,17.29,5.82,3.42,11.79,6.62,17.89,9.57,1.16,.56,.29,2.37-.87,1.8-6.16-2.98-12.19-6.21-18.07-9.67-4.45,2.21-9.04,4.73-13.87,5.64-5.18,.97-10.66,.84-15.57-1.09-.88-.35-1.9-1.02-1.74-1.95,.07-.41,.35-.74,.65-1.03,3.02-3.02,7.48-4.05,11.74-4.4,5.42-.45,10.92-.01,16.2,1.27-4.67-2.82-9.24-5.79-13.72-8.91-4.58,1.57-9.34,3.38-14.12,3.63-5.26,.28-10.68-.58-15.29-3.13-.83-.46-1.75-1.26-1.47-2.17,.12-.39,.45-.69,.78-.94,3.39-2.6,7.95-3.02,12.22-2.81,4.82,.24,9.61,1.18,14.17,2.77-4.45-3.22-8.79-6.58-13.02-10.07-4.48,1.55-9.13,3.28-13.81,3.53-5.26,.28-10.68-.58-15.29-3.13-.83-.46-1.75-1.26-1.47-2.17,.12-.39,.45-.69,.78-.94,3.39-2.6,7.95-3.02,12.22-2.81,4.9,.24,9.77,1.22,14.4,2.85-4.74-4.04-9.33-8.26-13.76-12.64-4.58,1.24-9.33,2.64-14.01,2.57-5.27-.08-10.62-1.3-15.04-4.17-.8-.51-1.66-1.38-1.32-2.26,.15-.39,.5-.65,.84-.88,3.56-2.36,8.14-2.47,12.38-1.97,4.95,.59,9.8,1.92,14.37,3.91-4.23-4.31-8.3-8.79-12.21-13.4-4.67,.64-9.53,1.41-14.13,.75Z"/>
          </g>
          <g>
            <path class="cls-34" d="M362.8,318.62c-2.13-4.25-24.82-44.64-24.82-44.64,0,0-11.23-21.07-19.59-19.37-8.36,1.69,4.56,15.06,4.56,15.06,0,0-33.79-12.3-43.82-.9-14.47,16.44,31.77,23.94,31.77,23.94l4.39,40.01,37.72,1.35"/>
            <path class="cls-33" d="M280.86,282.21c-.39-.3-.77-.61-1.12-.92,8.72,.29,17.44,.59,26.17,.88,.08,0,.12,.05,.17,.08,.55-1.44,1.27-2.73,2.16-3.86-10.54-1.87-21.12-3.59-31.75-4.81,.06-.28,.14-.57,.24-.86,10.78,1.24,21.5,2.99,32.18,4.89,1.62-1.81,3.64-3.22,5.89-4.3-11.28-2.02-22.54-4.17-33.83-6.18,.36-.26,.75-.5,1.15-.73,11.4,2.03,22.78,4.22,34.18,6.24,2.72-1.1,5.68-1.8,8.59-2.19,.57-.08,.66,.81,.1,.88-8.1,1.09-16.77,4.48-18.71,13.32-.12,.56-1,.42-.88-.14,.11-.51,.25-.99,.4-1.47-.01,0-.02,.01-.03,.01-8.3-.28-16.6-.56-24.91-.84Z"/>
          </g>
          <polygon class="cls-25" points="303.64 302.06 316.41 337.39 367.68 331.79 359.14 302.06 303.64 302.06"/>
          <path class="cls-2" d="M601,264.74c6.05-2.75,11.6-6.87,15.26-12.41,.66-1,1.22-2.43,.38-3.28-.36-.37-.9-.51-1.41-.6-5.3-.93-10.65,1.26-15.29,3.98-5.16,3.02-9.88,6.79-14,11.12,1.56-3.67,3.05-7.37,4.47-11.1,3.36-4.88,6.97-9.9,8.83-15.43,2.11-6.3,2.9-13.16,1.35-19.62-.28-1.16-.94-2.55-2.13-2.52-.52,.01-.99,.31-1.4,.63-4.29,3.24-6.35,8.64-7.53,13.89-1.56,6.96-1.93,14.18-1.13,21.26-1.98,5.24-4.1,10.41-6.34,15.53,0-5.41,.22-10.82-1.42-15.97-2.01-6.33-5.43-12.34-10.5-16.63-.91-.77-2.26-1.5-3.21-.77-.41,.32-.61,.84-.76,1.33-1.55,5.15-.02,10.72,2.12,15.65,3.04,6.99,7.35,13.42,12.64,18.9-3.31,7.37-6.91,14.6-10.77,21.69,.68-5.2,1.51-10.37,.57-15.52-1.19-6.54-3.81-12.93-8.29-17.84-.8-.88-2.05-1.78-3.08-1.17-.45,.26-.71,.75-.92,1.23-2.2,4.91-1.39,10.63,.11,15.79,2.12,7.3,5.56,14.21,10.09,20.31-4.15,7.44-8.6,14.71-13.33,21.79,1.04-5.19,2.24-10.34,1.66-15.6-.74-6.6-2.92-13.16-7.05-18.36-.74-.94-1.93-1.91-3-1.38-.47,.23-.76,.7-1.01,1.16-2.53,4.75-2.11,10.51-.97,15.76,1.62,7.41,4.57,14.53,8.67,20.92-4.3,6.31-8.82,12.46-13.56,18.45,1.02-5.07,2.16-10.1,1.58-15.23-.74-6.6-2.92-13.16-7.05-18.36-.74-.94-1.93-1.91-3-1.38-.47,.23-.76,.7-1.01,1.16-2.53,4.75-2.11,10.51-.97,15.76,1.58,7.27,4.46,14.25,8.43,20.54-4.05,5-8.24,9.88-12.59,14.63,1.53-4.43,3.01-8.83,3.1-13.52,.14-6.64-1.16-13.43-4.57-19.13-.61-1.03-1.66-2.15-2.79-1.76-.49,.17-.85,.59-1.15,1.02-3.13,4.37-3.48,10.14-3.04,15.5,.6,7.28,2.47,14.44,5.48,21.1-5.83,6.2-11.92,12.17-18.25,17.89-1.21,1.09,.48,2.96,1.69,1.87,6.4-5.78,12.55-11.82,18.44-18.08,6.16,1.1,12.6,2.53,18.77,1.92,6.61-.66,13.19-2.76,18.45-6.82,.94-.73,1.94-1.9,1.42-2.98-.23-.47-.69-.77-1.15-1.02-4.72-2.59-10.48-2.25-15.75-1.17-6.72,1.37-13.2,3.84-19.14,7.27,4.65-5.06,9.13-10.27,13.44-15.62,6.1,.28,12.49,.79,18.37-.6,6.47-1.52,12.71-4.47,17.39-9.19,.84-.85,1.67-2.14,1.01-3.14-.29-.44-.79-.67-1.27-.86-5.01-1.94-10.69-.84-15.77,.92-5.75,2-11.2,4.83-16.15,8.36,4.24-5.46,8.31-11.06,12.19-16.79,5.97,.28,12.2,.73,17.94-.62,6.47-1.52,12.71-4.47,17.39-9.19,.84-.85,1.67-2.14,1.01-3.14-.29-.44-.79-.67-1.27-.86-5.01-1.94-10.69-.84-15.77,.92-5.85,2.03-11.38,4.93-16.41,8.54,4.3-6.57,8.36-13.29,12.17-20.15,5.97-.12,12.22-.1,17.85-1.84,6.35-1.96,12.38-5.33,16.72-10.36,.78-.9,1.52-2.25,.8-3.2-.31-.41-.83-.62-1.33-.77-5.14-1.6-10.72-.11-15.67,1.99-5.78,2.46-11.17,5.79-15.99,9.81,3.59-6.71,6.93-13.56,10.04-20.52,5.87-.88,12.03-1.66,17.35-4.09Z"/>
          <path class="cls-45" d="M512.7,267.32s.53-27.27,0-50.74c-.35-15.57-9.93-20.68-16.35-22.36-2.94-.77-5.68-2.3-7.65-4.58-6.36-7.37-28.22-4.31-62.56-5.41-14.61-.47-23.29,5.97-28.42,14.53-3.38,5.65-5,12.18-5,18.76v93.13l.81,33.65,15.24,21.07,108.59-20.09s2.4-23.77,2.79-52.42c.39-28.65-7.46-25.54-7.46-25.54Z"/>
          <path class="cls-42" d="M642.87,416.81c4.47,2.79,9.63,4.65,14.9,4.64,.95,0,2.14-.26,2.33-1.19,.09-.4-.06-.82-.23-1.2-1.71-3.91-5.5-6.49-9.34-8.36-4.26-2.08-8.82-3.55-13.5-4.38,3.11-.58,6.22-1.22,9.31-1.92,4.7,.08,9.61,.26,14.08-.94,5.09-1.37,9.98-3.86,13.56-7.73,.65-.69,1.27-1.74,.73-2.52-.24-.34-.64-.51-1.03-.65-4.03-1.42-8.5-.4-12.49,1.12-5.29,2.02-10.22,4.95-14.55,8.59-4.33,.99-8.68,1.86-13.05,2.62,3.58-2.38,7.25-4.6,9.94-7.95,3.3-4.11,5.77-9.01,6.39-14.24,.11-.94,0-2.15-.9-2.46-.39-.13-.82-.04-1.22,.08-4.09,1.23-7.1,4.69-9.42,8.28-3.28,5.08-5.64,10.75-6.94,16.66-6.33,1.04-12.69,1.84-19.07,2.4,3.73-1.84,7.52-3.56,10.51-6.44,3.8-3.65,6.87-8.2,8.15-13.31,.23-.92,.27-2.14-.58-2.55-.37-.18-.81-.14-1.22-.07-4.21,.7-7.64,3.75-10.39,7.01-3.89,4.61-6.95,9.91-9,15.59-6.74,.52-13.5,.78-20.26,.76,3.89-1.6,7.82-3.06,11.04-5.75,4.04-3.39,7.42-7.71,9.04-12.72,.29-.9,.42-2.11-.4-2.59-.36-.21-.8-.2-1.21-.16-4.25,.41-7.88,3.22-10.85,6.28-4.19,4.32-7.6,9.4-10.03,14.91-6.06-.07-12.11-.36-18.15-.87,3.8-1.55,7.62-3.01,10.77-5.64,4.04-3.39,7.42-7.71,9.04-12.72,.29-.9,.42-2.11-.4-2.59-.36-.21-.8-.2-1.21-.16-4.25,.41-7.88,3.22-10.85,6.28-4.11,4.24-7.46,9.21-9.88,14.6-5.08-.48-10.15-1.11-15.2-1.9,3.6-.93,7.16-1.89,10.3-3.88,4.45-2.83,8.37-6.66,10.64-11.42,.41-.86,.69-2.04-.06-2.62-.33-.25-.76-.3-1.18-.31-4.27-.15-8.23,2.15-11.58,4.8-4.55,3.59-8.46,7.98-11.54,12.88-6.66-1.13-13.28-2.54-19.84-4.21-1.25-.32-1.75,1.62-.5,1.94,6.63,1.69,13.32,3.11,20.05,4.25,1.98,4.55,3.86,9.44,6.97,13.25,3.34,4.08,7.62,7.51,12.61,9.2,.9,.3,2.11,.44,2.59-.37,.21-.35,.21-.79,.17-1.21-.36-4.25-3.12-7.92-6.14-10.93-3.86-3.84-8.34-7.04-13.21-9.47,5.39,.85,10.8,1.53,16.23,2.03,2.49,4.16,4.97,8.6,8.46,11.88,3.85,3.61,8.54,6.44,13.71,7.46,.93,.18,2.15,.16,2.52-.71,.16-.38,.1-.81,.01-1.22-.92-4.17-4.13-7.44-7.53-10.02-3.84-2.92-8.11-5.28-12.62-7.01,5.48,.41,10.96,.64,16.45,.69,2.43,4.07,4.87,8.39,8.29,11.59,3.85,3.61,8.54,6.44,13.71,7.46,.93,.18,2.15,.16,2.52-.71,.16-.38,.1-.81,.01-1.22-.92-4.17-4.13-7.44-7.53-10.02-3.91-2.97-8.26-5.36-12.85-7.1,6.23-.04,12.46-.31,18.67-.8,2.7,3.89,5.43,8.03,9.05,10.99,4.08,3.34,8.96,5.85,14.19,6.51,.94,.12,2.15,.02,2.47-.88,.14-.39,.04-.82-.07-1.22-1.2-4.1-4.63-7.14-8.2-9.48-4.16-2.74-8.73-4.85-13.51-6.26,6.01-.58,12.01-1.37,17.97-2.37,3.16,3.5,6.38,7.22,10.32,9.68Z"/>
          <g>
            <path class="cls-23" d="M617.08,368.23c-6.76,1.22-13.31,4.02-19.06,7.76-5.06,3.29-10.66,6.43-13.92,11.74-.33,.53-.64,1.12-.59,1.74,.04,.52,.34,.98,.63,1.41,5.4,8.09,11.7,15.61,20.51,20.1,8.74,4.45,19.03,5.79,28.61,3.71,6.02-1.3,11.88-4.01,16.11-8.49,4.23-4.48,6.65-10.87,5.53-16.93-.4-2.14-1.21-4.19-2.24-6.1-1.36-2.51-3.09-4.81-5.14-6.8-7.82-7.61-19.71-10.08-30.44-8.13Z"/>
            <path class="cls-23" d="M535.14,319.65c-.92,8.06-.06,16.53,1.8,24.2,.4,1.64,6.95,19.03,7.38,18.85,10.91-4.68,21.91-6.82,30.74-15.66,7.61-7.63,12.49-17.93,13.56-28.65,.67-6.74-.17-13.77-3.42-19.71-3.25-5.94-9.11-10.63-15.83-11.51-2.37-.31-4.79-.15-7.14,.28-3.08,.57-6.08,1.61-8.85,3.07-11.63,6.14-16.88,17.18-18.24,29.14Z"/>
            <path class="cls-23" d="M602.07,301.91c-3.97,8.03-6.13,17.05-6.69,25.97-.49,7.85-1.55,16.15,1.46,23.69,.3,.75,.67,1.54,1.36,1.97,.58,.36,1.29,.41,1.97,.44,12.65,.64,25.43-.11,36.97-5.84,11.45-5.69,20.84-15.41,26.11-27.06,3.31-7.32,5.03-15.55,3.63-23.46-1.4-7.91-6.21-15.41-13.42-18.95-2.55-1.25-5.32-1.99-8.13-2.39-3.68-.53-7.44-.5-11.11,.09-14.04,2.26-25.85,12.79-32.16,25.54Z"/>
            <g>
              <path class="cls-38" d="M610.76,341.84c10.97,.82,21.93,1.64,32.9,2.47-.51,.35-1.03,.68-1.55,1.01-10.45-.78-20.9-1.57-31.34-2.35-.72-.05-.73-1.19,0-1.13Z"/>
              <path class="cls-38" d="M608.54,342.04c-2.9-13.31-5.02-26.77-6.38-40.31,.3-.61,.63-1.21,.96-1.81,1.35,14.05,3.51,28.02,6.52,41.82,.15,.71-.94,1.01-1.09,.3Z"/>
              <path class="cls-38" d="M628.05,323.73c.15-.12,.24-.31,.21-.54,0-.02,0-.04,0-.06,.09-.06,.19-.11,.32-.12,11.49-.16,22.97-.64,34.43-1.43-.18,.39-.37,.78-.56,1.17-11.28,.76-22.57,1.23-33.87,1.39-.3,0-.47-.19-.52-.41Z"/>
              <path class="cls-38" d="M628.25,323.13c-.18,.14-.25,.38-.2,.6-.3,.26-.81,.24-.88-.24-2.1-14.33-3.61-28.73-4.56-43.17,.36-.19,.73-.38,1.1-.56,.93,14.51,2.44,28.98,4.54,43.37Z"/>
              <path class="cls-38" d="M628.05,323.73c-.05-.22,.02-.46,.2-.6,0,.02,0,.04,0,.06,.03,.23-.06,.42-.21,.54Z"/>
            </g>
            <g>
              <path class="cls-38" d="M591.98,392.65c-.45,.1-.97-.33-.63-.79,.04-.06,.08-.11,.13-.17,.01,.05,.02,.09,.04,.14,.15,.27,.31,.54,.46,.82Z"/>
              <path class="cls-38" d="M592.79,391.79c-.1-.18-.2-.36-.3-.54-.12-.22-.31-.29-.5-.27,5.15-6.93,10.55-13.68,16.19-20.21,.73-.28,1.46-.55,2.2-.8-6.15,7.03-12.02,14.31-17.59,21.81Z"/>
              <path class="cls-38" d="M616.77,394.13c-.14-.14-.29-.18-.44-.16,4.83-8.76,10.04-17.29,15.64-25.57,.4,.08,.79,.17,1.19,.26-5.69,8.41-10.99,17.07-15.9,25.97-.16-.17-.33-.33-.49-.5Z"/>
              <path class="cls-38" d="M616.69,395.66s-.04,.07-.06,.1c-.35,.64-1.33,.07-.98-.57,.07-.13,.15-.26,.22-.4,.03,.05,.05,.09,.09,.14,.24,.24,.48,.48,.72,.73Z"/>
              <path class="cls-38" d="M592.32,392.43c.16-.21,.32-.42,.47-.63,3.47,6.3,7.08,12.51,10.84,18.64-.7-.38-1.38-.78-2.05-1.2-3.32-5.46-6.52-10.99-9.61-16.59,.13-.03,.25-.09,.34-.22Z"/>
              <path class="cls-38" d="M591.99,390.99c-.17,.23-.35,.46-.52,.7-.09-.36,.2-.67,.52-.7Z"/>
              <path class="cls-38" d="M591.98,392.65c-.15-.27-.31-.54-.46-.82-.03-.05-.03-.09-.04-.14,.17-.23,.35-.46,.52-.7,.19-.02,.38,.05,.5,.27,.1,.18,.2,.36,.3,.54-.16,.21-.32,.42-.47,.63-.09,.13-.22,.19-.34,.22Z"/>
              <path class="cls-38" d="M616.33,393.97c-.15,.27-.31,.55-.46,.82-.2-.36,.1-.78,.46-.82Z"/>
              <path class="cls-38" d="M617.26,394.63c6.37,6.41,12.74,12.82,19.11,19.24-.41,.13-.82,.25-1.24,.36-6.15-6.19-12.3-12.38-18.45-18.57,.19-.34,.38-.69,.57-1.03Z"/>
              <path class="cls-38" d="M616.77,394.13c.16,.17,.33,.33,.49,.5-.19,.34-.38,.68-.57,1.03-.24-.24-.48-.48-.72-.73-.04-.04-.07-.09-.09-.14,.15-.27,.31-.55,.46-.82,.15-.02,.3,.02,.44,.16Z"/>
            </g>
            <g>
              <path class="cls-38" d="M547.34,350.68s.05-.01,.08-.02c.36,.35,.96,.11,1.01-.28,10.44-2.94,20.87-5.89,31.31-8.83-.37,.51-.74,1-1.13,1.5-10.32,2.91-20.64,5.82-30.96,8.73-.7,.2-1-.89-.3-1.09Z"/>
              <path class="cls-38" d="M548.42,350.37c-.34,.09-.67,.19-1.01,.28-.02-.02-.05-.03-.07-.06-4.13-5.38-8.16-10.83-12.11-16.34-.09-.76-.17-1.52-.23-2.29,4.33,6.09,8.77,12.12,13.32,18.05,.09,.12,.11,.24,.1,.34Z"/>
              <path class="cls-38" d="M547.41,350.66c.34-.09,.67-.19,1.01-.28-.05,.39-.65,.64-1.01,.28Z"/>
              <path class="cls-38" d="M555.12,327.58s.1-.03,.15-.05c.02,.03,.03,.07,.05,.1,.32,.6,1.17,.15,1.02-.43,10.85-3.34,21.65-6.86,32.39-10.55-.02,.41-.05,.82-.09,1.22-11.02,3.77-22.09,7.38-33.22,10.79-.7,.21-.99-.88-.3-1.09Z"/>
              <path class="cls-38" d="M556.34,327.2c-.36,.11-.71,.22-1.07,.33-4.91-9.11-9.02-18.6-12.31-28.38,.27-.35,.57-.69,.85-1.02,3.32,9.98,7.48,19.66,12.49,28.94,.02,.05,.03,.09,.04,.14Z"/>
              <path class="cls-38" d="M555.32,327.64s-.03-.07-.05-.1c.36-.11,.71-.22,1.07-.33,.15,.58-.7,1.03-1.02,.43Z"/>
            </g>
            <path class="cls-10" d="M634.54,317.04c1.31-1.76-1.64-3.45-2.93-1.71-22.87,30.71-53.18,55.47-87.58,71.98,.64-25.06,7.09-49.62,18.91-71.76,1.03-1.93-1.9-3.64-2.93-1.71-12.36,23.14-19.01,48.86-19.42,75.08-9,4.15-18.27,7.74-27.75,10.72-2.08,.65-1.19,3.93,.9,3.27,16.88-5.31,33.07-12.49,48.28-21.32,.06,.05,.11,.1,.18,.14,18.59,11.36,40.32,16.62,62.05,14.96,2.17-.17,2.18-3.56,0-3.39-20.63,1.57-41.11-3.18-58.91-13.67,26.78-16.11,50.4-37.38,69.18-62.6Z"/>
          </g>
          <path class="cls-25" d="M537.02,347.26c-8.82-24.18-43.79-25.81-56.96-25.54-.49,.01-.96-.07-1.41-.2-5.88,6.37-13.6,10.24-22.06,10.24s-16.46-4-22.38-10.58h0c-.67,.33-1.41,.52-2.21,.51-11.34-.15-38.73,2.01-47.32,25.56-10.2,27.94-32.23,102.79-32.23,102.79l103.55-.46,113.25,.46s-22.03-74.84-32.23-102.79Z"/>
          <g>
            <path class="cls-35" d="M501.6,346.09c-.52-8.1-1.71-16.9-5.22-23.55-6.53-.8-12.4-.9-16.33-.82-.49,.01-.96-.07-1.41-.2-4.77,5.17-10.76,8.69-17.37,9.84-9.6,37.69-14.46,76.58-14.38,115.47,19.27-8.7,33.39-28.79,34.56-49.91,5.31,1.81,10.91-2.12,14.24-6.64,2.46-3.34,4.05-6.89,5.05-10.57-3.1-11.17-4.59-23.22,.85-33.63Z"/>
            <path class="cls-35" d="M434.21,321.19h0c-.67,.33-1.41,.52-2.21,.51-3.71-.05-9.14,.15-15.06,1.27-4.82,9.05-6.97,20.96-8.85,29.1-2.54,10.99-4.61,21.95,.59,32.6,2.46,5.04,7.26,9.92,12.81,9.09-2.65,20.98,7.64,43.29,25.02,55.31,7.16-38.69,9.34-78.29,6.52-117.54-7.21-.93-13.74-4.68-18.83-10.34Z"/>
          </g>
          <path class="cls-11" d="M446.52,449.62c2.98-5.94,37.44-75.44,45.53-127.53-4.76-.39-8.96-.43-11.99-.37-.49,.01-.96-.07-1.41-.2-5.88,6.37-13.6,10.24-22.06,10.24s-16.46-4-22.38-10.58h0c-.67,.33-1.41,.52-2.21,.51-1.65-.02-3.64,0-5.86,.14,.25,21.56,2.55,83.91,20,127.78h.38Z"/>
          <path class="cls-41" d="M517.5,331.12c-8.46,1.52-14.42,7.74-17.79,15.39-4.57,10.36-2.31,22.45,.03,33.06,5.8,26.21,13.62,52.03,22.77,77.26,.42,1.17,2.3,.66,1.87-.52-7.89-21.75-14.62-43.89-20.18-66.35-2.88-11.63-6.31-23.71-4.65-35.79,1.36-9.91,8.31-19.35,18.47-21.18,1.23-.22,.71-2.09-.52-1.87h0Z"/>
          <path class="cls-32" d="M478.65,321.52c-2.09-.57-3.65-2.46-3.65-4.75v-18.78l-16.35-7.78v-2.53l-2.65,1.26-2.65-1.26v2.53l-16.35,7.78v18.76c0,1.96-1.14,3.64-2.79,4.44,5.92,6.57,13.76,10.58,22.38,10.58s16.18-3.87,22.06-10.24Z"/>
          <g class="cls-3">
            <path class="cls-34" d="M475,297.99l-16.35-7.78v-2.53l-2.65,1.26-2.65-1.26v2.53l-16.35,7.78v18.76c0,.97-.28,1.88-.77,2.64,5.02,.59,10.22,.32,15.26-.22,8.08-.87,16.25-2.41,23.52-5.98v-15.2Z"/>
          </g>
          <path class="cls-32" d="M512.58,244.1c-3.97-2.52-8.7-3.01-13.2-1.8v-.15c-12.84,5.08-28.98-1.1-37.85-15.22-3.01-4.8-4.84-9.95-5.53-15.04-5.87,2.03-12.55,3.13-19.62,3.01-9.32-.16-17.88-2.39-24.76-6.04-4.4,6.76-6.97,14.82-6.97,23.48v36.44c0,19.71,15.98,35.69,35.69,35.69h21.97c15.88,0,29.43-9.99,34.71-24.03,7.14,1.08,15.03-2.58,19.64-9.85,5.97-9.42,4.15-21.28-4.07-26.49Z"/>
          <path class="cls-19" d="M498.52,274.93c-2.87-10.21,1.41-22.64,13.02-24.35,.93-.14,.53-1.54-.39-1.4-12.39,1.83-17.11,15.24-14.04,26.14,.25,.9,1.66,.52,1.4-.39h0Z"/>
          <path class="cls-19" d="M500.89,256.37c3.98,3.52,5.23,9.28,2.92,14.09-.4,.84,.85,1.58,1.26,.73,2.57-5.39,1.34-11.88-3.15-15.86-.7-.62-1.73,.41-1.03,1.03h0Z"/>
          <path class="cls-19" d="M441.61,266.59h-9.54c-.22,0-.42-.1-.56-.27-.14-.17-.19-.39-.15-.6l6.82-34.81c.08-.39,.46-.65,.85-.57,.39,.08,.65,.46,.57,.85l-6.65,33.94h8.65c.4,0,.73,.33,.73,.73s-.33,.73-.73,.73Z"/>
          <path class="cls-12" d="M432.12,273.25c.41,3.73,3.56,6.64,7.39,6.64s6.99-2.91,7.39-6.64h-14.79Z"/>
          <g>
            <ellipse class="cls-19" cx="421.32" cy="251.48" rx="2.62" ry="5.67"/>
            <ellipse class="cls-19" cx="455.89" cy="251.48" rx="2.62" ry="5.67"/>
            <ellipse class="cls-19" cx="422.28" cy="225.45" rx="8.82" ry="4.11" transform="translate(-39.37 98.86) rotate(-12.76)"/>
            <path class="cls-19" d="M448.21,222.67c-.72,2.16,2.45,5.15,7.08,6.68,4.63,1.54,8.96,1.03,9.67-1.12s-2.45-5.15-7.08-6.68-8.96-1.03-9.67,1.12Z"/>
          </g>
          <g>
            <path class="cls-12" d="M510.35,268.32c.45-4.61-3.03-8.72-6.68-9.08-3.66-.36-5.22,3.26-5.67,7.87-.45,4.58,.36,8.41,3.97,8.81l-2.51,6.66c-.36,.96,.29,2,1.3,2.1,.67,.07,1.3-.3,1.58-.92l4-8.99c2.08-1.32,3.74-3.65,4.02-6.44Z"/>
            <path class="cls-24" d="M500.69,272.56c-.38-1.47-.42-3.27-.23-5.22,.4-4.07,1.67-7.36,4.48-7.83-.42-.14-.84-.24-1.27-.28-3.66-.36-5.22,3.26-5.67,7.87-.45,4.54,.35,8.33,3.86,8.8-.55-1.01-.94-2.15-1.17-3.33Z"/>
          </g>
          <path class="cls-45" d="M477.61,192.56h0c-.58-.26-1.16-.51-1.75-.74-.01,0-.03-.01-.04-.02-.57-.22-1.14-.43-1.73-.63-.04-.01-.08-.03-.12-.04-.55-.18-1.11-.35-1.67-.51-.07-.02-.15-.04-.22-.06-.53-.14-1.06-.27-1.59-.39-.11-.02-.22-.05-.32-.07-.5-.11-1.01-.2-1.52-.29-.14-.02-.28-.05-.42-.08-.48-.08-.97-.14-1.46-.2-.17-.02-.33-.05-.5-.06-.49-.05-.98-.09-1.47-.12-.17-.01-.33-.03-.5-.04-.66-.03-1.32-.05-1.98-.05h-14.58c-15.13,0-28.43,7.81-36.11,19.6,6.88,3.65,15.44,5.88,24.76,6.04,7.08,.12,13.76-.98,19.62-3.01,.7,5.08,2.52,10.24,5.53,15.04,8.87,14.12,25.01,20.3,37.85,15.22v-15.82c0-15.02-8.93-27.94-21.77-33.76Z"/>
          <g>
            <path class="cls-15" d="M487.29,446.8h-101.03c-1.84,0-3.32-1.49-3.32-3.32h0c0-1.84,1.49-3.32,3.32-3.32h101.03c1.84,0,3.32,1.49,3.32,3.32h0c0,1.84-1.49,3.32-3.32,3.32Z"/>
            <path class="cls-12" d="M414.39,447.38H226.56l-17.27-122.12c-.59-4.2,2.67-7.96,6.91-7.96h173.73c3.48,0,6.43,2.56,6.91,6l17.55,124.08Z"/>
            <ellipse class="cls-15" cx="305.3" cy="372.99" rx="16.16" ry="17.97"/>
            <g class="cls-1">
              <path class="cls-22" d="M226.56,447.38h187.83l-5.76-40.72c-11.21-4.04-23.21-6.07-35.04-5.82-12.56,.27-25.52,2.69-37.42-1.36-15.99-5.43-25.87-20.93-37.74-32.95-22.5-22.79-55.88-33.87-87.6-30.42l15.73,111.27Z"/>
            </g>
          </g>
          <g>
            <path class="cls-25" d="M600.63,132.31h-64.48c-10.39,0-18.82,8.43-18.82,18.82v29.98c0,10.39,8.43,18.82,18.82,18.82h5.71l1.75,11.1c.32,2.01,2.81,2.76,4.18,1.26l9.54-12.36h43.3c10.39,0,18.82-8.43,18.82-18.82v-29.98c0-10.39-8.43-18.82-18.82-18.82Z"/>
            <g>
              <path class="cls-14" d="M548.64,166.9c0-3.28-2.66-5.94-5.94-5.94s-5.94,2.66-5.94,5.94,2.66,5.94,5.94,5.94,5.94-2.66,5.94-5.94Z"/>
              <path class="cls-14" d="M575.03,166.9c0-3.28-2.66-5.94-5.94-5.94s-5.94,2.66-5.94,5.94,2.66,5.94,5.94,5.94,5.94-2.66,5.94-5.94Z"/>
              <path class="cls-14" d="M601.42,166.9c0-3.28-2.66-5.94-5.94-5.94s-5.94,2.66-5.94,5.94,2.66,5.94,5.94,5.94,5.94-2.66,5.94-5.94Z"/>
            </g>
            <g class="cls-5">
              <path class="cls-31" d="M619.45,181.11v-9.94c-14.05-2.04-28.67-.57-42.96-1.38-6.76-.38-13.63-1.32-19.72-4.27-12.06-5.84-18.88-20.05-17.48-33.21h-3.14c-10.39,0-18.82,8.43-18.82,18.82v29.98c0,10.39,8.43,18.82,18.82,18.82h5.71l1.75,11.1c.32,2.01,2.81,2.76,4.18,1.26l9.54-12.36h43.3c10.39,0,18.82-8.43,18.82-18.82Z"/>
            </g>
          </g>
          <g>
            <path class="cls-18" d="M496.28,127.05c0-19.7-15.97-35.66-35.66-35.66s-35.66,15.97-35.66,35.66,15.97,35.66,35.66,35.66c3.24,0,6.38-.44,9.36-1.25l8.65,6.13c1.82,1.29,4.3-.17,4.07-2.38l-.99-9.41c8.83-6.49,14.57-16.95,14.57-28.75Z"/>
            <text class="cls-13" transform="translate(445.9 143.08)"><tspan x="0" y="0">$</tspan></text>
            <g class="cls-6">
              <path class="cls-18" d="M496.22,128.79c-9.29-.56-18.68,.38-27.93-.77-10.55-1.31-21.64-6.22-26.06-15.89-2-4.37-2.41-9.25-2.34-14.09-9.04,6.47-14.94,17.05-14.94,29.01,0,19.7,15.97,35.66,35.66,35.66,3.24,0,6.38-.44,9.36-1.25l8.65,6.13c1.82,1.29,4.3-.17,4.07-2.38l-.99-9.41c8.39-6.17,13.98-15.93,14.51-27.01Z"/>
            </g>
          </g>
          <g>
            <rect class="cls-25" x="161.31" y="422.72" width="151.61" height="24.66" rx="6.34" ry="6.34"/>
            <g>
              <path class="cls-12" d="M161.31,429.06v11.97c0,.83,.16,1.62,.45,2.34h150.71c.29-.73,.45-1.51,.45-2.34v-11.97c0-.83-.16-1.62-.45-2.34H161.76c-.29,.73-.45,1.51-.45,2.34Z"/>
              <g class="cls-1">
                <path class="cls-26" d="M312.92,429.61H161.31v.97h151.61v-.97Z"/>
                <path class="cls-26" d="M312.92,434.56H161.31v.97h151.61v-.97Z"/>
                <path class="cls-26" d="M161.31,440.49h151.61v-.97H161.31v.97Z"/>
              </g>
            </g>
            <g>
              <rect class="cls-41" x="212.3" y="397.16" width="85.54" height="25.66" rx="7.79" ry="7.79"/>
              <circle class="cls-12" cx="226.38" cy="409.99" r="7.3" transform="translate(-223.6 280.16) rotate(-45)"/>
              <polygon class="cls-29" points="276.3 422.82 283.44 422.82 288.37 397.16 281.23 397.16 276.3 422.82"/>
              <polygon class="cls-17" points="269.03 422.82 272.12 422.82 277.06 397.16 273.96 397.16 269.03 422.82"/>
            </g>
          </g>
        </g>
        <g>
          <path class="cls-12" d="M620.83,73.11c0-1.01-2.96-1.85-6.92-2.06-.19-4.26-.96-7.44-1.89-7.44s-1.7,3.19-1.89,7.44c-3.96,.21-6.92,1.05-6.92,2.06s2.96,1.85,6.92,2.06c.19,4.26,.96,7.44,1.89,7.44s1.7-3.19,1.89-7.44c3.96-.21,6.92-1.05,6.92-2.06Z"/>
          <path class="cls-12" d="M109.1,175.18c0-1.01-2.96-1.85-6.92-2.06-.19-4.26-.96-7.44-1.89-7.44s-1.7,3.19-1.89,7.44c-3.96,.21-6.92,1.05-6.92,2.06s2.96,1.85,6.92,2.06c.19,4.26,.96,7.44,1.89,7.44s1.7-3.19,1.89-7.44c3.96-.21,6.92-1.05,6.92-2.06Z"/>
          <path class="cls-12" d="M507.21,72.61c-.23-2.43-.93-4.2-1.75-4.2s-1.52,1.77-1.75,4.2c-2.38,.23-4.11,.93-4.11,1.75s1.73,1.51,4.11,1.75c.23,2.43,.93,4.2,1.75,4.2s1.52-1.77,1.75-4.2c2.38-.23,4.11-.93,4.11-1.75s-1.73-1.51-4.11-1.75Z"/>
          <path class="cls-12" d="M93.23,82.58c-.23-2.43-.93-4.2-1.75-4.2s-1.52,1.77-1.75,4.2c-2.38,.23-4.11,.93-4.11,1.75s1.73,1.51,4.11,1.75c.23,2.43,.93,4.2,1.75,4.2s1.52-1.77,1.75-4.2c2.38-.23,4.11-.93,4.11-1.75s-1.73-1.51-4.11-1.75Z"/>
          <path class="cls-12" d="M658.74,164c-.23-2.43-.93-4.2-1.75-4.2s-1.52,1.77-1.75,4.2c-2.38,.23-4.11,.93-4.11,1.75s1.73,1.51,4.11,1.75c.23,2.43,.93,4.2,1.75,4.2s1.52-1.77,1.75-4.2c2.38-.23,4.11-.93,4.11-1.75s-1.73-1.51-4.11-1.75Z"/>
          <path class="cls-12" d="M399.61,120.36c-.13-1.35-.52-2.33-.97-2.33s-.85,.98-.97,2.33c-1.32,.13-2.28,.52-2.28,.97s.96,.84,2.28,.97c.13,1.35,.52,2.33,.97,2.33s.85-.98,.97-2.33c1.32-.13,2.28-.52,2.28-.97s-.96-.84-2.28-.97Z"/>
          <path class="cls-12" d="M565.93,110.36c-.13-1.35-.52-2.33-.97-2.33s-.85,.98-.97,2.33c-1.32,.13-2.28,.52-2.28,.97s.96,.84,2.28,.97c.13,1.35,.52,2.33,.97,2.33s.85-.98,.97-2.33c1.32-.13,2.28-.52,2.28-.97s-.96-.84-2.28-.97Z"/>
          <path class="cls-12" d="M216.94,54.05c-.13-1.35-.52-2.33-.97-2.33s-.85,.98-.97,2.33c-1.32,.13-2.28,.52-2.28,.97s.96,.84,2.28,.97c.13,1.35,.52,2.33,.97,2.33s.85-.98,.97-2.33c1.32-.13,2.28-.52,2.28-.97s-.96-.84-2.28-.97Z"/>
          <path class="cls-12" d="M48.06,133.41c-.13-1.35-.52-2.33-.97-2.33s-.85,.98-.97,2.33c-1.32,.13-2.28,.52-2.28,.97s.96,.84,2.28,.97c.13,1.35,.52,2.33,.97,2.33s.85-.98,.97-2.33c1.32-.13,2.28-.52,2.28-.97s-.96-.84-2.28-.97Z"/>
        </g>
        <g>
          <g>
            <path class="cls-12" d="M370.36,70.42H145.54c-2.84,0-5.14,2.3-5.14,5.14V240.82c0,2.84,2.3,5.14,5.14,5.14h121.33l7.55,13.93c1.55,2.86,5.81,2.35,6.64-.79l3.48-13.14h85.83c2.84,0,5.14-2.3,5.14-5.14V75.56c0-2.84-2.3-5.14-5.14-5.14Z"/>
            <rect class="cls-37" x="149.89" y="82.67" width="216.13" height="139.73" rx="5.14" ry="5.14"/>
            <path class="cls-29" d="M166.77,82.68c0,2.51-2.04,4.55-4.55,4.55s-4.55-2.04-4.55-4.55,2.04-4.55,4.55-4.55,4.55,2.04,4.55,4.55Z"/>
            <path class="cls-14" d="M179.51,82.68c0,2.51-2.04,4.55-4.55,4.55s-4.55-2.04-4.55-4.55,2.04-4.55,4.55-4.55,4.55,2.04,4.55,4.55Z"/>
            <circle class="cls-18" cx="187.71" cy="82.68" r="4.55"/>
            <g class="cls-3">
              <path class="cls-21" d="M320.92,147.82c-24.63,1.95-48.73,14.5-72.99,9.77-25.09-4.89-43.69-27.13-68.38-33.77-9.66-2.6-19.98-2.58-29.67-.11v93.54c0,2.84,2.3,5.14,5.14,5.14h205.85c2.84,0,5.14-2.3,5.14-5.14v-60.6c-13.88-6.9-29.64-10.06-45.1-8.83Z"/>
            </g>
            <g>
              <circle class="cls-29" cx="257.95" cy="233.66" r="7.83"/>
              <polygon class="cls-12" points="256.47 230.21 261.2 233.66 256.47 237.12 256.47 230.21"/>
            </g>
            <g>
              <circle class="cls-16" cx="237.16" cy="233.66" r="4.76"/>
              <circle class="cls-16" cx="278.74" cy="233.66" r="4.76"/>
            </g>
            <g>
              <path class="cls-41" d="M309.16,177.28c-.07-2.34-.29-4.72-1.19-6.89-.9-2.17-2.56-4.11-4.78-4.86-.37-.12-.78-.24-1-.55-.24-.34-.18-.79-.11-1.2,.99-5.83,2.28-11.73,1.57-17.6-.44-3.69-1.81-7.39-4.22-10.25-1.21-1.45-2.63-2.47-4.24-3.42-1.38-.81-3.13-.99-4.39-1.96-1.29-.99-1.75-2.7-2.04-4.3-1.36-7.58,.35-15.8-5.52-21.93-4.54-4.73-11.44-6.55-18.3-7.21-.38-.07-.76-.15-1.15-.21-4.84-.74-9.74-.7-14.18-.2-5.94-.22-11.98-.49-16.19,4.58-.11,.04-.22,.07-.33,.11-3.68-.82-7.63,1.11-9.93,4.12-2.34,3.06-3.2,7.03-3.32,10.88-.12,3.85,.42,7.69,.59,11.54,.02,.51,.03,1.03-.03,1.54-.92,1.28-2.32,2.44-4.47,3.3-2.35,.95-3.81,2.51-4.68,4.49-1.81,2.94-2.33,7.07-2.19,10.12,.17,3.68,1.09,7.28,1.74,10.9,.25,1.38,.45,2.8,.29,4.19-.41,3.58-3.05,6.42-5,9.46-.74,1.16-1.38,2.4-1.9,3.69-.47,1.09-.83,2.22-1.06,3.39-.94,4.2-.56,8.61,1.74,12.2,.07,.11,.15,.2,.22,.31,3.49,6.23,9.72,8.95,9.72,8.95l79.94-2.78c4.27,.52,8.78-2.04,11.2-5.73,2.8-4.25,3.36-9.6,3.2-14.68Z"/>
              <g>
                <path class="cls-32" d="M315.15,199.57c1.07-2.14,12.48-22.44,12.48-22.44,0,0,5.65-10.59,9.85-9.74,4.2,.85-2.29,7.57-2.29,7.57,0,0,16.98-6.18,22.03-.45,7.27,8.26-15.97,12.03-15.97,12.03l-2.21,20.11-18.96,.68"/>
                <path class="cls-33" d="M356.33,181.27c.2-.15,.39-.3,.56-.46-4.38,.15-8.77,.3-13.15,.44-.04,0-.06,.03-.09,.04-.28-.72-.64-1.37-1.09-1.94,5.3-.94,10.61-1.8,15.96-2.42-.03-.14-.07-.29-.12-.43-5.42,.62-10.8,1.5-16.17,2.46-.81-.91-1.83-1.62-2.96-2.16,5.67-1.01,11.33-2.1,17.01-3.11-.18-.13-.38-.25-.58-.37-5.73,1.02-11.45,2.12-17.18,3.14-1.37-.55-2.85-.91-4.32-1.1-.29-.04-.33,.41-.05,.44,4.07,.55,8.43,2.25,9.41,6.69,.06,.28,.5,.21,.44-.07-.06-.26-.13-.5-.2-.74,0,0,0,0,.01,0,4.17-.14,8.35-.28,12.52-.42Z"/>
              </g>
              <g>
                <path class="cls-43" d="M243.32,173.23h0s.03,0,.04,0c-.01,0-.02,0-.04,0Z"/>
                <path class="cls-44" d="M335.4,199.3l-17.22-2.44c-3.14-.45-6.17,1.33-7.31,4.29h0c-.97,2.52-4.57,2.38-5.36-.21-2.78-9.09-8.45-22.52-18.11-25.01-7.2-1.85-13.51-2.36-17.53-2.46-.74-.02-1.46,.25-1.99,.76-3.07,3-7.22,4.86-11.8,4.86s-8.97-1.96-12.07-5.12c-.5-.51-1.18-.78-1.89-.81-7.6-.33-22.75,.5-28.14,11.58-5.12,10.53-9.74,25.83-12.05,34.05-.51,1.81,.85,3.6,2.73,3.6h129.14c1.2,0,2.26-.75,2.67-1.88l4.37-12.17c1.46-4.06-1.18-8.44-5.45-9.05Z"/>
                <path class="cls-43" d="M243.36,173.23c.28,.02,.55,.04,.8,.06-.25-.02-.52-.04-.8-.06Z"/>
              </g>
              <g>
                <path class="cls-41" d="M220.74,180.62c10.09,1.01,11.49,13.59,11.19,21.5-.25,6.71-1.49,13.49-2.95,20.11h1c1.8-8.13,3.27-16.55,2.91-24.79-.32-7.54-3.44-16.93-12.16-17.8-.62-.06-.62,.91,0,.97Z"/>
                <path class="cls-41" d="M284.88,222.23h1.05c4.73-11.46,3.31-24.96-3.93-35.14-.36-.5-1.2-.02-.84,.49,7.14,10.04,8.54,23.38,3.72,34.65Z"/>
                <path class="cls-41" d="M286.45,187.46c1.39,4.01,1.4,8.09,.03,12.1-.2,.59,.73,.85,.94,.26,1.42-4.17,1.41-8.46-.03-12.62-.2-.59-1.14-.33-.94,.26h0Z"/>
              </g>
              <g>
                <path class="cls-36" d="M268.64,173.47c-3.11,3.43-7.52,5.6-12.44,5.63,2.3,3.83,5.46,5.82,9.61,4.83,4.38-1.05,6.13-5.14,6.19-10.35-1.28-.07-2.42-.1-3.37-.1Z"/>
                <path class="cls-39" d="M243.32,173.23h0s.03,0,.04,0c-.01,0-.02,0-.04,0Z"/>
                <path class="cls-36" d="M243.32,173.23c-1.04-.07-2.29-.12-3.68-.12-.24,5.85,1.42,10.58,6.17,11.71,4.47,1.07,7.8-1.32,10.13-5.73-5.02-.04-9.51-2.3-12.62-5.86Z"/>
              </g>
              <path class="cls-32" d="M256.08,179.1c4.97,0,9.42-2.18,12.56-5.64-.65,0-1.23,0-1.7,.01-.92,.02-1.68-.7-1.7-1.62l-.33-13.14-17.4,1.93-.79,11.16c-.07,.93-.88,1.63-1.81,1.54-.45-.04-.99-.09-1.59-.12,3.14,3.6,7.69,5.87,12.76,5.87Z"/>
              <g class="cls-4">
                <path class="cls-31" d="M247.51,160.65l-.64,9.01c2.13,.9,4.36,1.58,6.64,1.99,3.87,.69,7.87,.61,11.72-.17l-.32-12.77-17.4,1.93Z"/>
              </g>
              <path class="cls-32" d="M281.59,114.42c-6.04,3.76-14.6,4.23-22.47,.55-2.71-1.26-5.09-2.91-7.09-4.81-.62,3.67-2.12,7.38-4.58,10.74-4.18,5.71-10.14,9.15-16.04,9.88v.75c-2.3-.9-4.81-.88-7,.26-4.39,2.3-5.8,8.29-3.13,13.39,2.4,4.58,7.27,6.86,11.42,5.6,2.89,7.79,10.37,13.36,19.17,13.36h9.83c11.99,0,21.71-9.72,21.71-21.71v-19.29c0-3.1-.65-6.05-1.83-8.71Z"/>
              <path class="cls-19" d="M224.78,136.88c6.49-1.52,8.95,5.73,8.44,10.79-.06,.62,.91,.62,.97,0,.59-5.77-2.6-13.38-9.66-11.72-.61,.14-.35,1.08,.26,.94h0Z"/>
              <path class="cls-19" d="M230.01,137.74c-1.89,2.57-1.46,5.97,.99,8.01,.48,.4,1.17-.29,.69-.69-2.15-1.78-2.49-4.58-.84-6.83,.37-.51-.47-.99-.84-.49h0Z"/>
              <path class="cls-12" d="M258.98,145.73c.13,2.41,2.03,4.33,4.38,4.33s4.25-1.92,4.38-4.33h-8.76Z"/>
              <g>
                <path class="cls-19" d="M266.46,143.1h-4.44c-.25,0-.46-.2-.46-.46s.2-.46,.46-.46h3.88l-3.97-19.42c-.05-.25,.11-.49,.35-.54,.25-.05,.49,.11,.54,.35l4.08,19.96c.03,.13,0,.27-.09,.38-.09,.11-.22,.17-.35,.17Z"/>
                <g>
                  <path class="cls-19" d="M255.53,135.3c0,1.71-.69,3.1-1.55,3.1s-1.55-1.39-1.55-3.1,.69-3.1,1.55-3.1,1.55,1.39,1.55,3.1Z"/>
                  <path class="cls-19" d="M273.1,135.3c0,1.71-.69,3.1-1.55,3.1s-1.55-1.39-1.55-3.1,.69-3.1,1.55-3.1,1.55,1.39,1.55,3.1Z"/>
                </g>
                <path class="cls-19" d="M256.57,122.27c.38,1.18-1.13,2.72-3.37,3.44-2.24,.72-4.37,.36-4.75-.82s1.13-2.72,3.37-3.44,4.37-.36,4.75,.82Z"/>
                <path class="cls-19" d="M267.49,122.27c-.38,1.18,1.13,2.72,3.37,3.44,2.24,.72,4.37,.36,4.75-.82s-1.13-2.72-3.37-3.44c-2.24-.72-4.37-.36-4.75,.82Z"/>
              </g>
              <path class="cls-41" d="M281.59,114.42c-3.36-7.65-10.99-12.99-19.88-12.99h-9.83c-11.3,0-20.47,9.16-20.47,20.47v9.63c5.89-.73,11.86-4.91,16.04-10.62,2.46-3.36,3.96-7.07,4.58-10.74,2,1.9,4.38,3.54,7.09,4.81,7.87,3.68,16.43,3.21,22.47-.55Z"/>
            </g>
          </g>
          <g>
            <path class="cls-29" d="M384.01,38.51h-50.96c-8.21,0-14.87,6.66-14.87,14.87v23.69c0,8.21,6.66,14.87,14.87,14.87h4.51l1.38,8.77c.25,1.59,2.22,2.18,3.3,.99l7.54-9.77h34.22c8.21,0,14.87-6.66,14.87-14.87v-23.69c0-8.21-6.66-14.87-14.87-14.87Z"/>
            <g>
              <path class="cls-14" d="M342.92,65.84c0-2.59-2.1-4.69-4.69-4.69s-4.69,2.1-4.69,4.69,2.1,4.69,4.69,4.69,4.69-2.1,4.69-4.69Z"/>
              <path class="cls-14" d="M363.78,65.84c0-2.59-2.1-4.69-4.69-4.69s-4.69,2.1-4.69,4.69,2.1,4.69,4.69,4.69,4.69-2.1,4.69-4.69Z"/>
              <path class="cls-14" d="M384.63,65.84c0-2.59-2.1-4.69-4.69-4.69s-4.69,2.1-4.69,4.69,2.1,4.69,4.69,4.69,4.69-2.1,4.69-4.69Z"/>
            </g>
            <g class="cls-8">
              <path class="cls-29" d="M384.01,91.95c8.21,0,14.87-6.66,14.87-14.87v-7.84c-2.36-.41-4.76-.68-7.13-.86-8.92-.67-17.95-.2-26.79-1.6-8.84-1.41-17.79-5.01-23.22-12.14-3.6-4.73-5.6-10.86-8.39-16.12h-.31c-8.21,0-14.87,6.66-14.87,14.87v23.69c0,8.21,6.66,14.87,14.87,14.87h4.51l1.38,8.77c.25,1.59,2.22,2.18,3.3,.99l7.54-9.77h34.22Z"/>
            </g>
          </g>
        </g>
        <g>
          <path class="cls-41" d="M222.46,255.74l-14.08-12.2v-29.32c0-4.53-3.68-8.21-8.21-8.21H99.44c-4.53,0-8.21,3.68-8.21,8.21v136.69c0,4.53,3.68,8.21,8.21,8.21h100.74c4.53,0,8.21-3.68,8.21-8.21v-85.99l11.29-.81c4.25-.3,6.01-5.59,2.79-8.38Z"/>
          <circle class="cls-12" cx="149.81" cy="237.73" r="17.87"/>
          <g>
            <rect class="cls-14" x="103.38" y="235.53" width="21.42" height="5.68" rx="1.68" ry="1.68"/>
            <rect class="cls-14" x="174.12" y="235.57" width="21.42" height="5.68" rx="1.68" ry="1.68"/>
          </g>
          <rect class="cls-27" x="127.15" y="268.11" width="69.21" height="5.73" rx="1.69" ry="1.69"/>
          <rect class="cls-27" x="127.15" y="282.64" width="69.21" height="5.73" rx="1.69" ry="1.69"/>
          <rect class="cls-27" x="127" y="297.05" width="69.21" height="5.73" rx="1.69" ry="1.69"/>
          <path class="cls-27" d="M105.34,311.59h88.93c1.08,0,1.96,.88,1.96,1.96v1.81c0,1.08-.88,1.96-1.96,1.96H105.34c-1.08,0-1.96-.88-1.96-1.96v-1.81c0-1.08,.88-1.96,1.96-1.96Z"/>
          <rect class="cls-27" x="103.38" y="326.12" width="92.84" height="5.73" rx="1.96" ry="1.96"/>
          <rect class="cls-27" x="103.38" y="340.66" width="92.84" height="5.73" rx="1.96" ry="1.96"/>
          <path class="cls-40" d="M117.45,271.19c0,3.18-2.58,5.76-5.76,5.76s-5.76-2.58-5.76-5.76,2.58-5.76,5.76-5.76,5.76,2.58,5.76,5.76Z"/>
          <path class="cls-12" d="M116.64,282.8c2.92,5.46-2.58,10.96-8.04,8.04-.79-.42-1.45-1.08-1.87-1.87-2.92-5.46,2.58-10.96,8.04-8.04,.79,.42,1.45,1.08,1.87,1.87Z"/>
          <path class="cls-18" d="M117.45,300.59c0,3.18-2.58,5.76-5.76,5.76s-5.76-2.58-5.76-5.76,2.58-5.76,5.76-5.76,5.76,2.58,5.76,5.76Z"/>
          <path class="cls-14" d="M111.81,274.85c-.17,0-.33-.08-.43-.22l-2.37-3.35c-.17-.24-.11-.56,.13-.73,.24-.17,.56-.11,.73,.13l1.76,2.49,1.8-5.69c.09-.28,.38-.43,.66-.34,.28,.09,.43,.38,.34,.66l-2.12,6.7c-.06,.19-.22,.33-.42,.36-.03,0-.05,0-.08,0Z"/>
          <path class="cls-14" d="M111.81,289.38c-.17,0-.33-.08-.43-.22l-2.37-3.35c-.17-.24-.11-.56,.13-.73,.24-.17,.56-.11,.73,.13l1.76,2.49,1.8-5.69c.09-.28,.38-.43,.66-.34,.28,.09,.43,.38,.34,.66l-2.12,6.7c-.06,.19-.22,.33-.42,.36-.03,0-.05,0-.08,0Z"/>
          <path class="cls-14" d="M111.81,304.47c-.17,0-.33-.08-.43-.22l-2.37-3.35c-.17-.24-.11-.56,.13-.73,.24-.17,.56-.11,.73,.13l1.76,2.49,1.8-5.69c.09-.28,.38-.43,.66-.34,.28,.09,.43,.38,.34,.66l-2.12,6.7c-.06,.19-.22,.33-.42,.36-.03,0-.05,0-.08,0Z"/>
          <path class="cls-14" d="M152.31,238.58h-1.19v-1.24c2.36-.87,4.11-3.95,4.11-6.85,0-3.42-2.43-6.19-5.43-6.19s-5.43,2.77-5.43,6.19c0,2.9,1.75,5.98,4.11,6.85v1.24h-1.19c-4.35,0-7.88,3.53-7.88,7.88v3.14h20.78v-3.14c0-4.35-3.53-7.88-7.88-7.88Z"/>
          <g class="cls-7">
            <path class="cls-16" d="M208.39,297.66c-3.08-2.23-6.35-4.21-9.77-5.9-11.43-5.65-24.17-8.15-36.86-9.4-8.37-.82-17.35-1.32-24-6.48-7.54-5.85-9.95-16.03-11.51-25.44-2.03-12.17-3.47-24.43-4.32-36.73-.18-2.57-.34-5.17-.77-7.7h-21.71c-4.53,0-8.21,3.68-8.21,8.21v136.69c0,4.53,3.68,8.21,8.21,8.21h100.74c4.53,0,8.21-3.68,8.21-8.21v-53.26Z"/>
          </g>
        </g>
        <path class="cls-45" d="M670.29,461.73H83.83c-4.07,0-7.37-3.3-7.37-7.37h0c0-4.07,3.3-7.37,7.37-7.37H670.29c4.07,0,7.37,3.3,7.37,7.37h0c0,4.07-3.3,7.37-7.37,7.37Z"/>
      </g>
    </g>
  </g>
</svg>