<?xml version="1.0" encoding="utf-8"?>
<!-- Generator: Adobe Illustrator 26.5.0, SVG Export Plug-In . SVG Version: 6.00 Build 0)  -->
<svg version="1.1" xmlns="http://www.w3.org/2000/svg" xmlns:xlink="http://www.w3.org/1999/xlink" x="0px" y="0px"
	 viewBox="0 0 750 500" style="enable-background:new 0 0 750 500;" xml:space="preserve">
<style type="text/css">
	.st0{fill:#FFFFFF;}
	.st1{fill:#ACE6EF;}
	.st2{fill:#4FBE58;}
	.st3{fill:none;stroke:#3D9445;stroke-width:0.7323;stroke-miterlimit:10;}
	.st4{fill:#E9F3F4;}
	.st5{fill:#5BD965;}
	.st6{fill:#79C9D1;}
	.st7{fill:#CAF0F6;}
	.st8{fill:#C9C9C9;}
	.st9{fill:#4CA5A5;}
	.st10{fill:none;stroke:#FFFFFF;stroke-width:0.3467;stroke-miterlimit:10;}
	.st11{font-family:'Raleway-Regular';}
	.st12{font-size:4.8191px;}
	.st13{fill:none;stroke:#FFFFFF;stroke-width:2.8945;stroke-linecap:round;stroke-linejoin:round;stroke-miterlimit:10;}
	.st14{fill:#FBAB88;}
	.st15{fill:#D63548;}
	.st16{fill:none;stroke:#ECEDEB;stroke-width:0.2107;stroke-miterlimit:10;}
	.st17{fill:#1F1F47;}
	.st18{fill:#FE9C27;}
	.st19{fill:#62BBBF;}
	.st20{fill:#FEC627;}
	.st21{fill:none;stroke:#48569A;stroke-width:0.2107;stroke-miterlimit:10;}
	.st22{fill:#FD8B67;}
	.st23{fill:#EE3B50;}
	.st24{fill:#EE4F61;}
	.st25{fill:#31439A;}
	.st26{fill:#48569A;}
	.st27{fill:none;stroke:#47363D;stroke-width:0.1494;stroke-miterlimit:10;}
	.st28{fill:#FED256;}
	.st29{fill-rule:evenodd;clip-rule:evenodd;fill:#FFFFFF;}
	.st30{fill-rule:evenodd;clip-rule:evenodd;fill:#FE9C27;}
	.st31{fill:#3D9445;}
	.st32{fill-rule:evenodd;clip-rule:evenodd;fill:#FEC627;}
</style>
<g id="BACKGROUND">
	<g>
		<rect class="st0" width="750" height="500"/>
	</g>
</g>
<g id="OBJECTS">
	<g>
		<g>
			<g>
				<path class="st1" d="M84.79,389.9l555.6-3.33c0,0,121.96-195.68-37.53-250.63c-159.49-54.95-213.1,65.67-241.25,17.42
					c-28.15-48.25-132.69-140.73-243.93-22.78c-111.24,117.94,89.8,139.39,17.42,167.53C62.73,326.26,47.26,341.65,84.79,389.9z"/>
				<g>
					<path class="st2" d="M462.29,285.2c-2.62,0.29-4.19-45.32,46.2-76.04c50.39-30.72,48.26-42.3,48.26-42.3
						S562.27,273.97,462.29,285.2z"/>
					<path class="st3" d="M547.61,191.22c0,0-73.48,88.44-92.85,99.76"/>
					<line class="st3" x1="518.21" y1="225.71" x2="545.72" y2="221.86"/>
					<line class="st3" x1="503.6" y1="242.31" x2="536.54" y2="240.26"/>
					<line class="st3" x1="489.6" y1="224.94" x2="490.11" y2="257.2"/>
					<line class="st3" x1="528.82" y1="213.43" x2="530.58" y2="196.35"/>
				</g>
				<ellipse class="st4" cx="375" cy="398.91" rx="329.52" ry="16.48"/>
				<g>
					<path class="st5" d="M206.39,270.79c3-1.02,6.29-0.32,9.24-1.7c0.35-0.16,0.71-0.37,0.89-0.72c0.29-0.58-0.06-1.26-0.47-1.76
						c-3.41-4.27-9.82-3.51-14.66-4.08c-7.97-0.92-18.95-4.63-12.5-14.8c2.51-3.96,7.43-6.15,12.07-5.87
						c2.12,0.13,4.22-0.99,5.11-2.92c3.8-8.25-23.59-9.89-27.7-11.44c-6.13-2.32-6.92-9.03-2.82-13.77c2.15-2.48,5.33-4.12,8.6-4.45
						c2.87-0.29,7.55,1.47,8.22-2.79c0.24-1.57-0.3-3.2-1.38-4.36c-4.33-4.68-11.07-5.96-15.47-10.46
						c-4.88-4.99-2.25-18.22,4.56-20.64c0.35-0.29,0.72-0.55,1.12-0.78c8.21-4.65,22.08-1.88,23.29,4.73
						c1.16,6.36-2.83,13.84-1.43,20.19c0.35,1.59,1.6,2.8,3.41,3.19c4.91,1.05,6.8-4.49,9.36-7.33c2.91-3.23,7.12-5.84,11.37-7.05
						c8.11-2.3,14.4,1.25,11.95,8.51c-1.67,4.96-22.36,34.91-9.33,33.12c2.46-0.34,4.88-1.91,6.25-3.92
						c3.36-4.93,9.53-9.15,15.63-10.13c15.57-2.5,10.72,10.32,5.39,18.9c-3.24,5.22-9.08,11.51-7.37,16.76
						c0.2,0.62,0.63,1.26,1.45,1.2c0.49-0.04,0.99-0.33,1.44-0.62c3.74-2.47,5.62-6.15,9.03-8.82c8.15-6.38,16.41-2.21,15.79,4.71
						c-0.53,5.96-4.34,13.05-8.31,18.74c-3.57,5.13-7.57,10.12-11.8,15c-2.71,3.13-6.03,5.88-9.69,8.18
						c-0.38,0.25-0.75,0.51-1.14,0.74c-3.11,1.79-6.58,2.9-10.17,3.17c-4.88,0.36-9.78,0.49-14.66,0.23
						c-5.41-0.29-11.81-1.5-16.42-4.51C199.91,281.77,199.23,273.23,206.39,270.79z"/>
					<line class="st3" x1="186.01" y1="178.82" x2="262.25" y2="308.92"/>
				</g>
				<g>
					<path class="st5" d="M522.76,286.63c2.11,2.36,2.75,5.67,5.16,7.84c0.29,0.26,0.62,0.51,1.01,0.54
						c0.64,0.04,1.13-0.55,1.44-1.12c2.61-4.81-0.59-10.41-1.96-15.09c-2.25-7.7-3.12-19.25,8.76-17.28
						c4.63,0.77,8.56,4.45,10.11,8.83c0.71,2,2.55,3.5,4.68,3.57c9.08,0.29-0.09-25.58-0.26-29.97c-0.25-6.55,5.62-9.9,11.58-7.97
						c3.12,1.01,5.88,3.3,7.45,6.18c1.38,2.53,1.59,7.53,5.78,6.48c1.54-0.39,2.83-1.52,3.48-2.97c2.62-5.81,1.17-12.52,3.6-18.33
						c2.69-6.44,15.9-9.18,20.78-3.84c0.41,0.2,0.79,0.45,1.15,0.73c7.48,5.75,10.34,19.6,4.72,23.29
						c-5.41,3.55-13.85,2.78-19.16,6.55c-1.33,0.94-1.96,2.56-1.61,4.38c0.95,4.94,6.78,4.51,10.39,5.76
						c4.11,1.42,8.15,4.28,10.92,7.72c5.28,6.57,4.46,13.74-3.18,14.32c-5.22,0.4-40.87-6.99-34.13,4.31
						c1.27,2.13,3.66,3.75,6.05,4.23c5.85,1.18,12.14,5.21,15.42,10.44c8.37,13.36-5.32,13.89-15.3,12.33
						c-6.07-0.95-14.14-3.87-18.31-0.25c-0.49,0.43-0.91,1.07-0.54,1.8c0.23,0.44,0.69,0.79,1.13,1.08
						c3.73,2.48,7.86,2.78,11.65,4.88c9.05,5.02,8.43,14.25,1.82,16.38c-5.7,1.83-13.71,1.09-20.5-0.34
						c-6.12-1.29-12.27-3.03-18.42-5.02c-3.94-1.27-7.76-3.26-11.31-5.73c-0.38-0.25-0.76-0.49-1.13-0.76
						c-2.86-2.17-5.24-4.93-6.88-8.13c-2.24-4.36-4.27-8.81-5.92-13.41c-1.84-5.1-3.22-11.46-2.25-16.87
						C510.13,284.94,517.73,280.99,522.76,286.63z"/>
					<line class="st3" x1="599.52" y1="232.01" x2="509.42" y2="352.93"/>
				</g>
				<g>
					<g>
						<path class="st0" d="M394.71,345.06c-0.47-0.56-0.98-1.09-1.47-1.63h-47.05c-0.47,0.54-0.93,1.07-1.4,1.63
							c0.44,34.42-26.73,36.97-26.73,36.97l51.69,1.18v0.2l51.69-1.38C421.44,382.03,394.27,379.48,394.71,345.06z"/>
						<path class="st0" d="M484.63,350.95H254.86c-4.76,0-8.62-3.86-8.62-8.62V208.47c0.21-4.86,4.39-8.38,8.62-8.62h229.11
							c4.76,0,9.28,4.1,9.28,8.86v133.62C493.25,347.1,489.39,350.95,484.63,350.95z"/>
						<path class="st6" d="M488.98,199.85H250.52c-2.36,0-4.28,2.03-4.28,4.54v127.08h247.01V204.39
							C493.25,201.88,491.34,199.85,488.98,199.85z"/>
						<rect x="254.86" y="208.12" class="st7" width="229.77" height="115.07"/>
						<polygon class="st8" points="344.57,350.95 394.92,350.95 398.27,364.45 						"/>
						<path class="st6" d="M426.08,386.42H313.41v-2.4c0-1.69,1.37-3.07,3.07-3.07h106.54c1.69,0,3.07,1.37,3.07,3.07V386.42z"/>
					</g>
					<g>
						<g>
							<g>
								<path class="st0" d="M439.55,318.55H296.86c-1.83,0-3.31-1.48-3.31-3.31v-98.41c0-2.24,1.82-4.06,4.06-4.06h145.19
									c1.73,0,3.13,1.4,3.13,3.13v96.26C445.94,315.69,443.08,318.55,439.55,318.55z"/>
								<path class="st6" d="M445.94,226.89H293.55v-10.34c0-2.08,1.69-3.77,3.77-3.77H443c1.62,0,2.94,1.32,2.94,2.94V226.89z"/>
								<g>
									<path class="st9" d="M390.22,224h-85.48c-1.29,0-2.34-1.05-2.34-2.34V218c0-1.29,1.05-2.34,2.34-2.34h85.48
										c1.29,0,2.34,1.05,2.34,2.34v3.66C392.56,222.95,391.52,224,390.22,224z"/>
									<g>
										<g>
											<path class="st10" d="M306.14,217.78c0.81,0.08,1.4,0.8,1.32,1.6c-0.08,0.81-0.8,1.4-1.6,1.32
												c-0.81-0.08-1.4-0.8-1.32-1.6C304.61,218.29,305.33,217.7,306.14,217.78z"/>
											<line class="st10" x1="307.03" y1="220.27" x2="308.9" y2="222.14"/>
										</g>
									</g>
									<g>
										<text transform="matrix(1 0 0 1 310.3872 221.4805)" class="st0 st11 st12">Search</text>
									</g>
								</g>
							</g>
							<g>
								<g>
									<path class="st9" d="M427.39,220.27c0,1.77-1.43,3.2-3.2,3.2c-1.77,0-3.2-1.43-3.2-3.2c0-1.77,1.43-3.2,3.2-3.2
										C425.96,217.07,427.39,218.5,427.39,220.27z"/>
								</g>
								<g>
									<g>
										<path class="st9" d="M436.41,220.27c0,1.77-1.43,3.2-3.2,3.2c-1.77,0-3.2-1.43-3.2-3.2c0-1.77,1.43-3.2,3.2-3.2
											C434.98,217.07,436.41,218.5,436.41,220.27z"/>
									</g>
								</g>
							</g>
						</g>
						<g>
							<path class="st6" d="M428.25,280.22l-0.07-0.02c-0.75-8.46-7.85-15.09-16.5-15.09c-0.86,0-1.7,0.09-2.53,0.21
								c-1.7-9.45-9.95-16.63-19.89-16.63c-3.59,0-6.96,0.95-9.88,2.59c-2.18-10.41-11.4-18.22-22.46-18.22
								c-10.66,0-19.63,7.28-22.2,17.13c-1.05-0.17-2.12-0.28-3.22-0.28c-11.17,0-20.23,9.06-20.23,20.23v10.07
								c0,9.96,8.08,18.04,18.04,18.04h80.92c0.25,0,0.49-0.03,0.73-0.04c0.24,0.01,0.48,0.04,0.73,0.04
								c9.15,0,16.57-7.42,16.57-16.57c0-0.25-0.03-0.49-0.04-0.73C428.22,280.71,428.25,280.47,428.25,280.22z"/>
							<g>
								<line class="st13" x1="360.97" y1="286.65" x2="360.97" y2="252.26"/>
								<polyline class="st13" points="376.95,267.05 360.97,250.52 344.99,267.05 								"/>
							</g>
						</g>
					</g>
				</g>
				<g>
					<path class="st2" d="M168.14,339.46c2.32,1.24,20.6-40.58-14.92-87.71c-35.52-47.13-29.27-57.11-29.27-57.11
						S79.34,292.16,168.14,339.46z"/>
					<path class="st3" d="M123.47,220.65c0,0,35.71,109.29,49.54,126.96"/>
					<line class="st3" x1="138.08" y1="263.55" x2="113.93" y2="249.83"/>
					<line class="st3" x1="145.54" y1="284.36" x2="115.69" y2="270.31"/>
					<line class="st3" x1="164.96" y1="273.38" x2="152.6" y2="303.18"/>
					<line class="st3" x1="132.75" y1="248.22" x2="137.4" y2="231.69"/>
				</g>
				<g>
					<g>
						<path class="st14" d="M233.32,275.36c0,0,8.69-5.65,8.94-15.03l-8.8,6.32l3.8-5.2c0,0-1.95-1.21-4.41,1.96l-2.42,3.07
							c0,0-2.96,1.63-2.5,4.81L233.32,275.36z"/>
						<path class="st15" d="M177.66,289.95c-7.25-1.77-8.75-7.1-5.87-13.27c3.17-6.77,12.63-1.7,12.63-1.7s15.08,10.19,21.31,9.87
							c6.24-0.33,21.56-15.48,21.56-15.48l7.25,5.59c0,0-14.53,19.75-26.62,20.68C195.84,296.57,181.6,290.91,177.66,289.95z"/>
						<path class="st16" d="M189.87,293.54c0,0-14.16-2.89-16.87-5.78"/>
					</g>
					<path class="st17" d="M192.08,241.53c0,0,10.3,20.9-5.64,33.55C170.49,287.73,177.63,241.11,192.08,241.53z"/>
					<g>
						<path class="st18" d="M281.54,257.34h-1.69v-1.83c0-1.12-0.91-2.02-2.02-2.02h-19.84c-1.12,0-2.02,0.9-2.02,2.02v1.83h-23.69
							c-0.93,0-1.69,0.76-1.69,1.69v2.44v30.66v1.69l3.38,2.6v-2.6h47.58c0.93,0,1.69-0.76,1.69-1.69v-33.1
							C283.23,258.1,282.47,257.34,281.54,257.34z"/>
						<g>
							
								<rect x="238.14" y="249.47" transform="matrix(0.9496 -0.3133 0.3133 0.9496 -68.5068 90.4059)" class="st19" width="17.76" height="17.76"/>
							
								<rect x="239.67" y="250.99" transform="matrix(0.9496 -0.3133 0.3133 0.9496 -68.5081 90.4085)" class="st0" width="14.7" height="14.7"/>
							<path class="st1" d="M242.89,267.02l-2.77-8.38c0,0,4.26-0.31,7.17,1.93c2.9,2.24,4.81-3.64,6.61-2.6l1.61,4.89
								L242.89,267.02z"/>
							<path class="st1" d="M250.73,253.88c0.3,0.9-0.19,1.88-1.1,2.18c-0.9,0.3-1.88-0.19-2.18-1.1c-0.3-0.9,0.19-1.88,1.1-2.18
								C249.46,252.49,250.43,252.98,250.73,253.88z"/>
						</g>
						<g>
							
								<rect x="254.95" y="254.09" transform="matrix(0.9985 -0.0547 0.0547 0.9985 -14.1118 14.9544)" class="st19" width="22.55" height="22.55"/>
							
								<rect x="256.89" y="256.03" transform="matrix(0.9985 -0.0547 0.0547 0.9985 -14.1117 14.9543)" class="st0" width="18.66" height="18.66"/>
							<path class="st1" d="M258.28,274.62l-0.61-11.19c0,0,5.33,1.03,8.15,4.74c2.82,3.7,7.1-2.87,8.96-1l0.36,6.53L258.28,274.62z
								"/>
							<path class="st1" d="M272.25,261.12c0.07,1.21-0.86,2.24-2.07,2.31c-1.21,0.07-2.24-0.86-2.31-2.07
								c-0.07-1.21,0.86-2.24,2.07-2.31C271.15,258.98,272.18,259.91,272.25,261.12z"/>
						</g>
						<path class="st20" d="M284.92,261.28h-1.69v-1.83c0-1.12-0.91-2.02-2.02-2.02h-19.84c-1.12,0-2.02,0.91-2.02,2.02v1.83h-23.69
							c-0.93,0-1.69,0.76-1.69,1.69v33.1c0,0.93,0.76,1.69,1.69,1.69h49.27c0.93,0,1.69-0.76,1.69-1.69v-33.1
							C286.62,262.04,285.86,261.28,284.92,261.28z"/>
						<polyline class="st21" points="284.92,263.53 284.92,296.07 243.66,296.07 						"/>
					</g>
					<path class="st22" d="M184.97,265.53l-0.78,8.6l-10.34-3.49c0,0,1.9-4.15,0.6-7.11C174.44,263.53,183.2,263.99,184.97,265.53z"
						/>
					<path class="st14" d="M193.33,251.6l-0.01,0.03c1.5-16.76-11.66-12.79-11.66-12.79c-4.36,0.5-12.22,4.64-11.42,10.03
						c0.81,5.39,0.86,16.51,9.4,19.48c7.17,2.5,10.57,1.73,12.6-8.94c0.42-0.03,0.91-0.16,1.45-0.53
						C195.23,257.83,193.33,251.6,193.33,251.6z"/>
					<path class="st23" d="M192.73,298.7c2.45-2.71-1.13-11.82-3.53-17.1h0l-2.41-5.6c-0.11-0.31-0.23-0.62-0.35-0.9
						c-0.48-1.09-3.68-3.85-6.38-5.01c-1.54-0.66-3.18-1.57-4.3-2.23c-0.9-0.53-2.06-0.31-2.7,0.52c-0.7,0.89-1.45,2.05-2.09,3.09
						c-1.34,0.52-2.61,1.49-3.74,3.04c-0.68,0.93-1.92,4.85-2.34,6.55c-1.01,4.12-4.18,26.45-3.99,35.81
						c0.11,5.79,0.07,11.6,0.03,14.54c-0.01,1.18,0.71,2.18,1.71,2.38c2.57,0.5,7.73,1.2,13.85,0.34
						c8.78-1.24,14.81-3.84,14.81-3.84s-2.81-17.18-2.15-26.79C190.17,301.89,191.41,300.17,192.73,298.7z M185.01,276.65
						l-0.02-0.01C184.99,276.65,185,276.65,185.01,276.65L185.01,276.65z"/>
					<g>
						<path class="st14" d="M230.21,295.26c0,0,10.08-2.43,13.44-11.18l-10.41,3.02l5.32-3.63c0,0-1.44-1.79-4.81,0.37l-3.31,2.08
							c0,0-3.34,0.55-3.96,3.71L230.21,295.26z"/>
						<path class="st24" d="M172.88,290.43c-6.25-4.09-5.88-9.61-1.1-14.46c5.24-5.32,12.47,2.62,12.47,2.62s10.81,14.64,16.8,16.42
							c5.99,1.77,25.49-7.39,25.49-7.39l4.97,7.69c0,0-20.29,13.76-32,10.6C187.81,302.74,176.27,292.65,172.88,290.43z"/>
						<path class="st16" d="M183.19,297.89c0,0-12.38-7.45-13.98-11.08"/>
					</g>
					<path class="st25" d="M166.74,345.54l13.58,25.93l-33.07-1.69l0.36,6.51c0,0,26.77,11.94,42.33,9.89
						c2.7-0.36,4.65-2.78,4.51-5.5l-1.56-30.79L166.74,345.54z"/>
					<path class="st26" d="M160.92,331.39c-0.02-7.8,58.28-7.34,65.45,0.36c7.17,7.7,13.96,46.29,13.96,46.29l-6.36,1.17
						l-18.36-32.94c0,0-8.29,2.97-21.47,3.59c-5.01,0.23-10.05,0.1-15.03-0.47c-3.82-0.44-8.98-0.7-12.35-2.69
						C161.81,343.77,160.93,336.51,160.92,331.39z"/>
					<polygon class="st17" points="233.98,379.2 240.33,378.03 251.12,381.95 251.12,383.88 233.98,383.88 					"/>
					<polygon class="st17" points="147.53,369.84 147.61,376.3 141.93,386.27 140.03,385.95 142.92,369.05 					"/>
					<path class="st17" d="M193.43,242.35c-0.55-2.78-6.78-3.72-8.92-3.87c-8.28-0.59-15.81,4.98-17.3,12.83
						c-0.57,2.99-0.23,5.74-1.48,8.61c-2.36,5.42-6.56,9.89-8.9,15.33c-1.63,3.79-2.03,7.89,0.13,11.58
						c6.58,11.26,20.29,1.9,20.86-5.56c0.43-5.62-3.92-18.77-4.24-24.97C196.35,257.04,193.43,242.36,193.43,242.35z"/>
					<path class="st16" d="M164.5,298.75c0,0-2.14,21.92-1.28,27c0,0,18.06-4.39,23.15-2.19"/>
					<path class="st16" d="M178.94,329.98c0,0-3.53,9.95-10.11,8.02"/>
					<path class="st16" d="M190.49,327.57c0,0,29.2,1.61,34.01,4.17c4.81,2.56,13.64,43.47,13.64,43.47"/>
				</g>
				<g>
					<g>
						<path class="st14" d="M468.78,261.05c0,0-9.03-5.09-9.87-14.43l9.19,5.75l-4.13-4.94c0,0,1.87-1.33,4.53,1.67l2.61,2.91
							c0,0,3.06,1.44,2.8,4.65L468.78,261.05z"/>
						<path class="st18" d="M525.26,272.08c7.13-2.23,8.28-7.64,5.01-13.61c-3.59-6.55-12.71-0.89-12.71-0.89
							s-14.4,11.13-20.64,11.2c-6.24,0.07-22.5-14.07-22.5-14.07l-6.88,6.04c0,0,15.76,18.78,27.88,18.94
							C507.53,279.84,521.39,273.29,525.26,272.08z"/>
						<path class="st16" d="M513.3,276.43c0,0,13.95-3.78,16.47-6.84"/>
					</g>
					<g>
						<rect x="431.68" y="236.31" class="st15" width="44.6" height="44.6"/>
						<rect x="435.51" y="240.14" class="st0" width="36.92" height="36.92"/>
						<path class="st23" d="M437.29,276.04v-22.16c0,0,9.86-4.81,15.02,2.81c5.16,7.62,14.88,2.52,18.35,6.42v12.93H437.29z"/>
					</g>
					<path class="st17" d="M526.17,217.96c0,0-5.25-5.85-14.7,2.6c-9.45,8.45-0.94,22.08-2.58,27.25
						c-1.64,5.17-5.68,13.64-0.73,18.29c4.95,4.65,11.34-8.9,17.32-4.7c5.98,4.2,15.23,7.95,18.6,2.69
						c3.36-5.26-2.85-7.43-3.15-10.68c-0.29-3.25,4.33-3.94,0.31-9.55c-4.03-5.61-7.42-11.51-7.3-15.18
						C534.06,225.03,530.35,219.25,526.17,217.96z"/>
					<path class="st25" d="M509.89,300.19l-3.34,0.3l1.2,101.56l6.14,1.93c0,0,10.58-34.06,2.87-55.05
						c-2.11-24.22,4.27-34.03,4.27-34.03L509.89,300.19"/>
					<path class="st26" d="M538.23,303.25c0,0,2.93,8.13-2.18,19.48c-5.12,11.35-6.27,23.42-6.27,23.42s15.19,23.68,22.52,48.87
						l-6.11,2.31c0,0-23.2-32.78-29.76-45.34c0,0-8.85-36.87-9.87-51.5L538.23,303.25z"/>
					<path class="st27" d="M523.3,303.47c0,0-12.9-1.17-15.91-3.71"/>
					<path class="st22" d="M518.05,245.52l0.78,8.6l10.34-3.49c0,0-1.9-4.15-0.6-7.11C528.58,243.52,519.81,243.97,518.05,245.52z"
						/>
					<path class="st14" d="M509.68,231.58l0.01,0.03c-1.5-16.76,11.66-12.79,11.66-12.79c4.36,0.5,12.22,4.64,11.42,10.03
						c-0.81,5.39-0.86,16.51-9.4,19.48c-7.17,2.5-10.57,1.73-12.6-8.94c-0.42-0.03-0.91-0.16-1.45-0.53
						C507.78,237.81,509.68,231.58,509.68,231.58z"/>
					<path class="st20" d="M533.62,262.9c0.43-2.53,0.87-8.53-1.32-9.97c0,0-0.66-4.15-4.67-4.12c-4.01,0.03-8.81,5.3-8.81,5.3
						l-1.89,4.72l-10.85,11.4c-2.82,2.97-2.9,7.39-0.03,10.32c1.79,1.82,3.77,3.02,4.05,3.91c0.55,1.74-4.46,16.99-4.46,16.99
						c11.07,4.1,22.54,4.74,34.35,2.52C539.99,303.97,529.31,288.42,533.62,262.9z"/>
					<polygon class="st17" points="552.4,394.75 546.36,397.05 539.16,405.99 540.16,407.64 554.83,398.76 					"/>
					<polygon class="st17" points="514.13,403.14 507.76,402.05 497.01,406.1 497.04,408.03 514.18,407.82 					"/>
					<g>
						<path class="st14" d="M470.8,278.27c0,0-10.08-2.43-13.44-11.18l10.41,3.02l-5.32-3.63c0,0,1.44-1.79,4.81,0.37l3.31,2.08
							c0,0,3.34,0.55,3.96,3.7L470.8,278.27z"/>
						<path class="st28" d="M528.14,273.45c6.25-4.09,5.88-9.61,1.1-14.46c-5.24-5.32-12.47,2.62-12.47,2.62
							s-10.81,14.64-16.8,16.42c-5.99,1.77-25.49-7.39-25.49-7.39l-4.97,7.69c0,0,20.29,13.76,32,10.6
							C513.2,285.75,524.74,275.67,528.14,273.45z"/>
						<path class="st21" d="M517.82,280.9c0,0,12.38-7.45,13.98-11.08"/>
					</g>
					<path class="st17" d="M536.82,256.8c-0.72-6.38-1.44-12.77-1.77-19.18c-0.25-4.89-0.68-9.99-2.69-14.54
						c-3.07-6.95-10.44-7.27-13.39-7.11c-9.15-0.48-12.15,6.13-13.14,10.58c-0.41,1.86,1.33,3.51,3.26,3.04
						c2.34-0.57,5.49-1.41,8.55-2.45c0.98-0.33,1.85-0.83,2.64-1.41c1.06,3.12,2.28,5.71,3.36,5.33c2.58-0.9,5.31,2.86,3.11,5.19
						c-2.51,2.66-2.83,7.2-2.05,10.51c0.96,7.61,4.34,17.38,5.19,19.12c0.85,1.75,2.92,2.3,4.78,1.87
						C539.49,266.65,537.18,260,536.82,256.8z"/>
					<path class="st16" d="M517.82,307.88c0,0,2.71,5.78,7.6,7.7"/>
					<path class="st16" d="M509.56,309.37c0,0,6.68,39.36,8.26,41.5c1.58,2.14,29.17,44.7,29.17,44.7"/>
					<path class="st21" d="M531.27,276.43c0,0,2.03,21.28,5.67,25.19c0,0-17.22,2.51-26.2-1.12"/>
				</g>
				<g>
					<g>
						<g>
							<path class="st29" d="M244.95,165.06l-13.36,24.34l13.65,30.45l21.87-9.84l0,0l21.83-9.82l-13.69-30.43l-27.08-6.14
								C246.9,163.33,245.58,163.92,244.95,165.06z"/>
						</g>
					</g>
					
						<rect x="236.65" y="179.8" transform="matrix(0.9119 -0.4103 0.4103 0.9119 -57.3104 124.1757)" class="st8" width="47.97" height="31.61"/>
					<path class="st30" d="M248.17,163.62c-1.28-0.29-2.59,0.3-3.22,1.45l-13.36,24.34l13.65,30.45l0,0l-12.41-27.68l13.36-24.34
						c0.63-1.15,1.94-1.74,3.22-1.45l27.08,6.14l-1.24-2.76L248.17,163.62z"/>
					<g>
						
							<rect x="239.38" y="167.66" transform="matrix(0.9119 -0.4104 0.4104 0.9119 -52.7827 120.8347)" class="st31" width="31.45" height="31.45"/>
						
							<rect x="242.09" y="170.36" transform="matrix(0.9119 -0.4103 0.4103 0.9119 -52.7826 120.8341)" class="st0" width="26.03" height="26.03"/>
						<path class="st5" d="M249.42,199.43l-6.41-14.25c0,0,7.45-1.33,12.98,2.08c5.52,3.41,6.25-10.59,9.61-9.09l5.29,11.61
							L249.42,199.43z"/>
						<path class="st20" d="M258.84,179.56c0.69,1.54,0.01,3.35-1.53,4.04c-1.54,0.69-3.35,0.01-4.04-1.53
							c-0.69-1.54-0.01-3.35,1.53-4.04C256.34,177.33,258.15,178.02,258.84,179.56z"/>
					</g>
					<polygon class="st32" points="262.65,200.08 231.61,189.55 245.24,219.86 266.88,210.12 267.35,209.91 288.99,200.17 
						275.35,169.87 					"/>
					<polygon class="st30" points="266.31,191.5 253.8,197.13 245.24,219.86 267.12,210.01 288.99,200.17 					"/>
				</g>
				<g>
					
						<rect x="140.02" y="179.12" transform="matrix(0.9496 -0.3133 0.3133 0.9496 -52.3793 57.4638)" class="st6" width="25.15" height="25.15"/>
					
						<rect x="142.19" y="181.29" transform="matrix(0.9496 -0.3133 0.3133 0.9496 -52.3797 57.4644)" class="st0" width="20.82" height="20.82"/>
					<path class="st19" d="M146.74,203.99l-3.92-11.87c0,0,6.04-0.44,10.15,2.73c4.11,3.17,6.81-5.16,9.36-3.68l2.28,6.93
						L146.74,203.99z"/>
					<path class="st1" d="M157.85,185.38c0.42,1.28-0.27,2.66-1.55,3.09c-1.28,0.42-2.66-0.27-3.09-1.55
						c-0.42-1.28,0.27-2.66,1.55-3.09C156.05,183.4,157.43,184.1,157.85,185.38z"/>
				</g>
				<path class="st6" d="M525.41,181.77l3.82-6.1l-4.1-2.57c0.11-0.59,0.16-1.19,0.17-1.77l4.53-1.73l-2.56-6.73l-4.55,1.73
					c-0.19-0.21-0.4-0.41-0.61-0.61l1.78-4.53l-6.7-2.63l-1.77,4.51c-0.3,0-0.59,0.05-0.89,0.08l-2.17-4.37l-6.45,3.2l2.17,4.37
					c-0.39,0.43-0.75,0.89-1.07,1.4l-4.78-0.91l-1.34,7.08l4.77,0.9c0.11,0.58,0.28,1.15,0.49,1.7l-3.6,3.26l4.83,5.34l3.62-3.28
					c0.2,0.1,0.38,0.23,0.59,0.32c0.34,0.14,0.69,0.21,1.03,0.31l0.43,4.87l7.17-0.64l-0.43-4.86c0.52-0.26,1.02-0.56,1.49-0.91
					L525.41,181.77z M513.18,176.51c-2.88-1.2-4.24-4.5-3.05-7.38c1.2-2.88,4.5-4.24,7.38-3.05c2.88,1.2,4.24,4.5,3.05,7.38
					C519.36,176.34,516.06,177.7,513.18,176.51z"/>
				<path class="st6" d="M485.01,188.65l2.56-4.1l-2.75-1.72c0.08-0.4,0.11-0.8,0.11-1.19l3.04-1.16l-1.72-4.51l-3.05,1.16
					c-0.13-0.14-0.27-0.28-0.41-0.41l1.2-3.04l-4.5-1.77l-1.19,3.02c-0.2,0-0.4,0.03-0.6,0.05l-1.46-2.94l-4.33,2.15l1.45,2.93
					c-0.26,0.29-0.5,0.6-0.72,0.94l-3.21-0.61l-0.9,4.75l3.2,0.61c0.07,0.39,0.19,0.77,0.33,1.14l-2.42,2.19l3.24,3.58l2.43-2.2
					c0.14,0.07,0.26,0.16,0.4,0.21c0.23,0.09,0.46,0.14,0.69,0.21l0.29,3.27l4.81-0.43l-0.29-3.26c0.35-0.17,0.69-0.38,1-0.61
					L485.01,188.65z M476.8,185.12c-1.93-0.8-2.85-3.02-2.04-4.95c0.8-1.93,3.02-2.85,4.95-2.04c1.93,0.8,2.85,3.02,2.04,4.95
					S478.73,185.92,476.8,185.12z"/>
			</g>
		</g>
	</g>
</g>
<g id="DESIGNED_BY_FREEPIK">
</g>
</svg>
