<?xml version="1.0" encoding="utf-8"?>
<!-- Generator: Adobe Illustrator 26.5.0, SVG Export Plug-In . SVG Version: 6.00 Build 0)  -->
<svg version="1.1" xmlns="http://www.w3.org/2000/svg" xmlns:xlink="http://www.w3.org/1999/xlink" x="0px" y="0px"
	 viewBox="0 0 500 500" style="enable-background:new 0 0 500 500;" xml:space="preserve">
<style type="text/css">
	.st0{fill:#92E3A9;}
	.st1{opacity:0.7;fill:#FFFFFF;}
	.st2{fill:none;stroke:#263238;stroke-width:2;stroke-linecap:round;stroke-linejoin:round;stroke-miterlimit:10;}
	.st3{fill:#9E9E9E;}
	.st4{fill:#FFFFFF;}
	.st5{fill:none;stroke:#9E9E9E;stroke-linecap:round;stroke-linejoin:round;stroke-miterlimit:10;}
	.st6{fill:none;stroke:#263238;stroke-linecap:round;stroke-linejoin:round;stroke-miterlimit:10;}
	.st7{fill:none;stroke:#263238;stroke-linecap:round;stroke-linejoin:round;}
	.st8{fill:none;stroke:#263238;stroke-linecap:round;stroke-linejoin:round;stroke-dasharray:2.0769,2.0769;}
	.st9{fill:none;stroke:#263238;stroke-linecap:round;stroke-linejoin:round;stroke-dasharray:2.0526,2.0526;}
	.st10{fill:none;stroke:#263238;stroke-linecap:round;stroke-linejoin:round;stroke-dasharray:2,2;}
	.st11{fill:none;stroke:#263238;stroke-linecap:round;stroke-linejoin:round;stroke-miterlimit:10;stroke-dasharray:2;}
	.st12{fill:#C9C9C9;}
	.st13{fill:#263238;}
	.st14{fill:#FFFFFF;stroke:#263238;stroke-linecap:round;stroke-linejoin:round;stroke-miterlimit:10;}
	.st15{fill:#263238;stroke:#263238;stroke-linecap:round;stroke-linejoin:round;stroke-miterlimit:10;}
	.st16{fill:#92E3A9;stroke:#263238;stroke-linecap:round;stroke-linejoin:round;stroke-miterlimit:10;}
</style>
<g id="Background_Simple">
	<g>
		<path class="st0" d="M465.62,254.08c-5.47-43.4-22.64-86.58-44.98-121.88c-29.07-45.93-75.51-82.78-130.61-89.61
			c-39-4.83-83.47,7.48-113.63,33.89c-15,13.13-26.55,29.47-33.38,48.2c-7.38,20.26-10.53,43.49-26.43,59.4
			c-19.11,19.12-45.51,28.26-65.26,46.51c-43.78,40.46-31,113.55,5.88,153.92c33.2,36.34,82.46,29.62,126.75,36.47
			c33.62,5.2,62.72,24.16,97.08,27.75c49.71,5.19,101.04-11.45,137.5-45.82C461,362.88,472.45,308.31,465.62,254.08z"/>
		<path class="st1" d="M465.62,254.08c-5.47-43.4-22.64-86.58-44.98-121.88c-29.07-45.93-75.51-82.78-130.61-89.61
			c-39-4.83-83.47,7.48-113.63,33.89c-15,13.13-26.55,29.47-33.38,48.2c-7.38,20.26-10.53,43.49-26.43,59.4
			c-19.11,19.12-45.51,28.26-65.26,46.51c-43.78,40.46-31,113.55,5.88,153.92c33.2,36.34,82.46,29.62,126.75,36.47
			c33.62,5.2,62.72,24.16,97.08,27.75c49.71,5.19,101.04-11.45,137.5-45.82C461,362.88,472.45,308.31,465.62,254.08z"/>
	</g>
</g>
<g id="Page">
	<g>
		<path class="st2" d="M438.57,323.86H83.43c-5.21,0-9.43-4.22-9.43-9.43V73.28c0-5.21,4.22-9.43,9.43-9.43h355.14
			c5.21,0,9.43,4.22,9.43,9.43v241.14C448,319.63,443.78,323.86,438.57,323.86z"/>
		<rect x="89.27" y="90.23" class="st3" width="343.3" height="30.27"/>
		<g>
			<path class="st3" d="M273.84,81.37h-11.07c-2.45,0-4.43-1.98-4.43-4.43l0,0c0-2.45,1.98-4.43,4.43-4.43h11.07
				c2.45,0,4.43,1.98,4.43,4.43l0,0C278.27,79.38,276.29,81.37,273.84,81.37z"/>
			<path class="st3" d="M311.49,81.37h-11.07c-2.45,0-4.43-1.98-4.43-4.43l0,0c0-2.45,1.98-4.43,4.43-4.43h11.07
				c2.45,0,4.43,1.98,4.43,4.43l0,0C315.92,79.38,313.94,81.37,311.49,81.37z"/>
			<path class="st3" d="M349.14,81.37h-11.07c-2.45,0-4.43-1.98-4.43-4.43l0,0c0-2.45,1.98-4.43,4.43-4.43h11.07
				c2.45,0,4.43,1.98,4.43,4.43l0,0C353.57,79.38,351.59,81.37,349.14,81.37z"/>
			<path class="st3" d="M386.8,81.37h-11.07c-2.45,0-4.43-1.98-4.43-4.43l0,0c0-2.45,1.98-4.43,4.43-4.43h11.07
				c2.45,0,4.43,1.98,4.43,4.43l0,0C391.23,79.38,389.24,81.37,386.8,81.37z"/>
			<path class="st3" d="M424.45,81.37h-11.07c-2.45,0-4.43-1.98-4.43-4.43l0,0c0-2.45,1.98-4.43,4.43-4.43h11.07
				c2.45,0,4.43,1.98,4.43,4.43l0,0C428.88,79.38,426.89,81.37,424.45,81.37z"/>
		</g>
		<g>
			<rect x="177.12" y="130.09" class="st3" width="255.44" height="149.13"/>
			<polygon class="st4" points="432.57,216.47 389.01,161.84 327,229.76 278.27,198.01 177.12,279.23 432.57,279.23 			"/>
			
				<ellipse transform="matrix(0.7896 -0.6136 0.6136 0.7896 -30.9445 237.1163)" class="st4" cx="330.32" cy="163.68" rx="18.09" ry="18.09"/>
		</g>
		<g>
			<line class="st5" x1="90.75" y1="147.07" x2="154.24" y2="147.07"/>
			<line class="st5" x1="90.75" y1="157.41" x2="154.24" y2="157.41"/>
			<line class="st5" x1="90.75" y1="167.75" x2="154.24" y2="167.75"/>
			<line class="st5" x1="90.75" y1="178.08" x2="154.24" y2="178.08"/>
		</g>
		<g>
			<line class="st5" x1="90.75" y1="201.71" x2="154.24" y2="201.71"/>
			<line class="st5" x1="90.75" y1="212.04" x2="154.24" y2="212.04"/>
			<line class="st5" x1="90.75" y1="222.38" x2="154.24" y2="222.38"/>
			<line class="st5" x1="90.75" y1="232.71" x2="154.24" y2="232.71"/>
		</g>
		<path class="st0" d="M146.49,279.96H99.24c-4.28,0-7.75-3.47-7.75-7.75v-4.43c0-4.28,3.47-7.75,7.75-7.75h47.25
			c4.28,0,7.75,3.47,7.75,7.75v4.43C154.24,276.49,150.77,279.96,146.49,279.96z"/>
		<path class="st3" d="M246.83,311.52c0-2.07-1.68-3.75-3.75-3.75c-2.07,0-3.75,1.68-3.75,3.75s1.68,3.75,3.75,3.75
			C245.16,315.26,246.83,313.58,246.83,311.52z"/>
		<circle class="st3" cx="261.47" cy="311.52" r="3.75"/>
		<path class="st3" d="M283.6,311.52c0-2.07-1.68-3.75-3.75-3.75c-2.07,0-3.75,1.68-3.75,3.75s1.68,3.75,3.75,3.75
			C281.92,315.26,283.6,313.58,283.6,311.52z"/>
	</g>
</g>
<g id="Graphics">
	<g>
		<g>
			<rect x="125.94" y="339.72" class="st6" width="76.72" height="42.12"/>
			<line class="st6" x1="133.46" y1="351.76" x2="192.88" y2="351.76"/>
			<line class="st6" x1="133.46" y1="360.03" x2="192.88" y2="360.03"/>
			<line class="st6" x1="133.46" y1="368.3" x2="192.88" y2="368.3"/>
		</g>
		<g>
			<g>
				
					<ellipse transform="matrix(0.9714 -0.2373 0.2373 0.9714 -76.1315 89.1135)" class="st6" cx="332.08" cy="360.78" rx="11.18" ry="11.18"/>
				<polygon class="st6" points="340.08,360.73 328.07,353.79 328.07,367.67 				"/>
			</g>
			<g>
				<rect x="293.72" y="339.72" class="st6" width="76.72" height="42.12"/>
			</g>
			<path class="st6" d="M367,380h-67.77c-0.9,0-1.63-0.73-1.63-1.63l0,0c0-0.9,0.73-1.63,1.63-1.63H367c0.9,0,1.63,0.73,1.63,1.63
				l0,0C368.63,379.27,367.9,380,367,380z"/>
		</g>
		<g>
			<g>
				<line class="st7" x1="124" y1="365" x2="123" y2="365"/>
				<line class="st8" x1="120.92" y1="365" x2="97.04" y2="365"/>
				<polyline class="st7" points="96,365 95,365 95,364 				"/>
				<line class="st9" x1="95" y1="361.95" x2="95" y2="326.03"/>
				<line class="st7" x1="95" y1="325" x2="95" y2="324"/>
			</g>
		</g>
		<g>
			<g>
				<line class="st7" x1="332" y1="340" x2="332" y2="339"/>
				<line class="st10" x1="332" y1="337" x2="332" y2="326"/>
				<line class="st7" x1="332" y1="325" x2="332" y2="324"/>
			</g>
		</g>
		<g>
			<g>
				<path class="st6" d="M415.73,38.46V33.9h-3.37c-0.25-1.02-0.65-1.98-1.18-2.85l2.39-2.39l-3.22-3.22l-2.39,2.39
					c-0.87-0.53-1.83-0.94-2.85-1.18v-3.38h-4.56v3.38c-1.02,0.24-1.98,0.65-2.85,1.18l-2.39-2.39l-3.22,3.22l2.39,2.39
					c-0.53,0.87-0.94,1.83-1.18,2.85h-3.38v4.56h3.38c0.24,1.02,0.65,1.98,1.18,2.85l-2.39,2.39l3.22,3.22l2.39-2.39
					c0.87,0.53,1.83,0.94,2.85,1.18v3.38h4.56V45.7c1.02-0.24,1.98-0.65,2.85-1.18l2.39,2.39l3.22-3.22l-2.39-2.39
					c0.53-0.87,0.94-1.83,1.18-2.85H415.73z M402.82,42.03c-3.24,0-5.86-2.62-5.86-5.86s2.62-5.86,5.86-5.86
					c3.24,0,5.86,2.62,5.86,5.86S406.06,42.03,402.82,42.03z"/>
				<path class="st6" d="M448.09,45.86l2.39-5.84l-4.33-1.77c0.22-1.43,0.21-2.87-0.02-4.27l4.31-1.81L448,26.35l-4.31,1.81
					c-0.83-1.14-1.85-2.16-3.03-3.01l1.77-4.33l-5.84-2.39l-1.77,4.33c-1.44-0.22-2.87-0.21-4.27,0.02l-1.81-4.31l-5.82,2.44
					l1.81,4.31c-1.14,0.83-2.16,1.85-3.01,3.03l-4.33-1.77L415,32.33l4.33,1.77c-0.22,1.44-0.21,2.87,0.02,4.27l-4.31,1.81
					l2.44,5.82l4.31-1.81c0.83,1.14,1.85,2.16,3.03,3.01l-1.77,4.33l5.84,2.39l1.77-4.33c1.44,0.22,2.87,0.21,4.27-0.02l1.81,4.31
					l5.82-2.44l-1.81-4.31c1.14-0.83,2.16-1.85,3.01-3.03L448.09,45.86z M429.67,43.69c-4.15-1.7-6.14-6.44-4.44-10.58
					c1.7-4.15,6.44-6.14,10.58-4.44c4.15,1.7,6.14,6.44,4.44,10.58C438.56,43.4,433.82,45.38,429.67,43.69z"/>
			</g>
			<g>
				<polyline class="st11" points="73.91,122.03 50.53,122.03 50.53,44.3 143.64,44.3 143.64,62.5 				"/>
				<rect x="57.46" y="52" class="st11" width="11.54" height="11.54"/>
			</g>
			<polyline class="st11" points="382.07,36.34 326.29,36.34 326.29,63.07 			"/>
			<polyline class="st11" points="450.63,36.92 460.51,36.92 460.51,149.65 448.89,149.65 			"/>
		</g>
	</g>
</g>
<g id="Floor">
	<ellipse class="st12" cx="258.7" cy="451.35" rx="196.68" ry="14.08"/>
</g>
<g id="Plant">
	<g>
		<path class="st13" d="M384.51,312.2c2.22,0.97,7.65,0.85,7.66,0.85c0.06,0-1.17-3.56-1.27-3.77c-1.19-2.49-4.96-6.61-8.03-6.2
			c-2.21,0.3-3.44,2.51-2.94,4.59C380.44,309.79,382.62,311.37,384.51,312.2z"/>
		<path class="st13" d="M455.69,293.7c-3.08-0.33-6.73,3.89-7.86,6.41c-0.1,0.22-1.22,3.81-1.17,3.81c0,0,0.05,0,0.07,0
			c-0.58,0.66-1.2,1.38-1.86,2.17c-1.2,1.48-2.55,3.16-3.89,5.09c-1.35,1.92-2.76,4.05-4.04,6.43c-1.29,2.38-2.52,4.95-3.45,7.76
			c-0.01,0.03-0.02,0.07-0.03,0.1c0.02-0.91-0.02-3.44-0.05-3.64c-0.36-2.74-2.65-7.83-5.7-8.39c-2.19-0.4-4.05,1.31-4.23,3.45
			c-0.18,2.18,1.4,4.36,2.94,5.73c1.74,1.55,6.56,3.05,6.94,3.17c-0.86,2.69-1.52,5.51-2.04,8.41c-0.3,1.66-0.54,3.33-0.77,5.02
			c-0.01-0.78-0.03-1.49-0.04-1.58c-0.36-2.74-2.65-7.83-5.7-8.39c-2.19-0.41-4.05,1.31-4.22,3.45c-0.18,2.18,1.4,4.36,2.94,5.73
			c1.56,1.4,5.65,2.76,6.73,3.11c-0.08,0.65-0.17,1.29-0.24,1.94c-0.37,3.11-0.73,6.21-1.17,9.24c-0.16,1.07-0.35,2.11-0.54,3.16
			c-0.01-0.7-0.03-1.28-0.04-1.37c-0.36-2.74-2.65-7.83-5.7-8.39c-2.19-0.41-4.05,1.31-4.23,3.45c-0.18,2.18,1.4,4.36,2.94,5.73
			c1.49,1.33,5.25,2.62,6.54,3.04c-0.23,1.07-0.45,2.14-0.72,3.16c-0.2,0.7-0.34,1.38-0.58,2.06c-0.22,0.68-0.44,1.36-0.66,2.04
			c-0.47,1.28-0.94,2.6-1.42,3.84c-0.33,0.86-0.66,1.68-0.99,2.5c0.17-1.06,0.45-3.15,0.46-3.32c0.04-1.84-0.61-4.82-1.91-6.92
			c0.01-0.27-0.01-0.54-0.05-0.81c-0.34-2.11-2.32-3.68-4.48-3.11c-2.99,0.8-4.89,6.05-5.03,8.81c-0.01,0.16,0.1,1.94,0.18,3.06
			c-0.15-0.65-0.29-1.28-0.45-1.95c-0.31-1.32-0.67-2.63-1.04-4.05c-0.2-0.68-0.41-1.36-0.62-2.05c-0.19-0.69-0.48-1.39-0.72-2.09
			c-0.59-1.62-1.27-3.23-1.99-4.84c1.16-0.28,5.26-1.32,6.9-2.58c1.64-1.26,3.38-3.31,3.36-5.5c-0.02-2.14-1.74-3.99-3.96-3.75
			c-3.08,0.33-5.75,5.24-6.31,7.94c-0.03,0.17-0.22,2.16-0.3,3.25c-0.44-0.96-0.87-1.93-1.35-2.89c-1.38-2.77-2.85-5.53-4.32-8.29
			c-0.45-0.85-0.88-1.69-1.33-2.54c0.41-0.09,5.31-1.23,7.15-2.64c1.64-1.26,3.38-3.31,3.36-5.5c-0.02-2.14-1.74-3.99-3.96-3.75
			c-3.08,0.33-5.75,5.24-6.31,7.94c-0.04,0.2-0.3,3.06-0.33,3.79c-0.97-1.87-1.92-3.73-2.78-5.61c-1.19-2.59-2.22-5.2-3.02-7.8
			c0.19-0.04,5.31-1.21,7.2-2.65c1.64-1.26,3.38-3.31,3.36-5.5c-0.02-2.14-1.74-3.99-3.96-3.75c-3.08,0.33-5.75,5.24-6.31,7.94
			c-0.04,0.21-0.32,3.29-0.33,3.85c-0.05-0.15-0.11-0.31-0.16-0.46c-0.82-2.79-1.27-5.59-1.57-8.24c-0.17-1.54-0.25-3.02-0.3-4.46
			c0.98-0.12,5.43-0.71,7.27-1.83c1.77-1.07,3.72-2.92,3.94-5.1c0.22-2.13-1.29-4.16-3.52-4.16c-3.1-0.01-6.29,4.57-7.14,7.2
			c-0.05,0.14-0.36,1.65-0.57,2.75c-0.01-0.65-0.03-1.32-0.03-1.95c0-2.34,0.15-4.48,0.3-6.38c0.09-1.08,0.2-2.05,0.3-2.96
			c0.9-0.62,4.48-3.14,5.58-4.95c1.07-1.76,1.95-4.31,1.15-6.34c-0.79-1.99-3.06-3.1-5.04-2.07c-2.75,1.42-3.47,6.96-3.02,9.68
			c0.04,0.24,1.08,3.85,1.13,3.82c0,0,0.04-0.03,0.05-0.04c-0.12,0.87-0.24,1.81-0.35,2.84c-0.19,1.9-0.38,4.04-0.44,6.39
			c-0.06,2.35-0.06,4.9,0.18,7.59c0.24,2.7,0.63,5.52,1.41,8.38c0.01,0.03,0.02,0.06,0.03,0.1c-0.49-0.77-1.92-2.86-2.05-3.01
			c-1.81-2.09-6.53-5.07-9.38-3.86c-2.05,0.87-2.65,3.33-1.62,5.2c1.05,1.91,3.57,2.86,5.62,3.16c2.3,0.34,7.15-1.07,7.54-1.18
			c0.77,2.71,1.77,5.44,2.94,8.14c0.67,1.54,1.39,3.08,2.13,4.61c-0.44-0.65-0.84-1.22-0.91-1.3c-1.81-2.09-6.53-5.07-9.38-3.86
			c-2.05,0.87-2.65,3.33-1.62,5.2c1.05,1.91,3.57,2.86,5.62,3.16c2.07,0.3,6.23-0.81,7.33-1.12c0.29,0.58,0.57,1.17,0.87,1.75
			c1.4,2.8,2.82,5.58,4.12,8.35c0.46,0.98,0.88,1.96,1.3,2.93c-0.39-0.58-0.73-1.06-0.79-1.12c-1.81-2.09-6.53-5.07-9.38-3.86
			c-2.05,0.87-2.65,3.33-1.62,5.2c1.05,1.91,3.57,2.86,5.62,3.16c1.98,0.29,5.83-0.71,7.13-1.07c0.4,1.01,0.8,2.03,1.15,3.03
			c0.22,0.69,0.48,1.34,0.66,2.04c0.19,0.69,0.39,1.38,0.57,2.06c0.32,1.32,0.65,2.69,0.93,3.98c0.2,0.9,0.37,1.76,0.55,2.63
			c-0.45-0.98-1.36-2.87-1.45-3.02c-1.47-2.34-5.69-6-8.69-5.23c-2.16,0.55-3.13,2.89-2.39,4.9c0.75,2.05,3.1,3.37,5.07,3.97
			c2.17,0.66,6.99,0.06,7.59-0.02c0.29,1.44,0.56,2.84,0.79,4.17c0.81,4.6,1.31,8.46,1.62,11.16c0.06,0.48,0.1,0.91,0.15,1.31h-9.32
			l3.4,66.37h15.87l3.4-66.37h-8.68c0.06-0.13,0.12-0.26,0.19-0.4c1.19-2.48,2.84-6.05,4.63-10.41c0.57-1.38,1.15-2.86,1.72-4.39
			c0.58,0.12,5.35,1.09,7.57,0.59c2.01-0.45,4.45-1.59,5.35-3.59c0.88-1.95,0.09-4.35-2.02-5.06c-2.93-0.99-7.41,2.35-9.05,4.57
			c-0.1,0.13-0.99,1.67-1.53,2.65c0.23-0.63,0.47-1.23,0.7-1.88c0.47-1.28,0.9-2.56,1.37-3.95c0.2-0.68,0.41-1.36,0.61-2.05
			c0.22-0.68,0.36-1.43,0.55-2.14c0.4-1.68,0.72-3.39,1.01-5.13c1.12,0.41,5.11,1.8,7.18,1.65c2.06-0.15,4.64-0.9,5.84-2.73
			c1.17-1.79,0.75-4.29-1.23-5.31c-2.75-1.42-7.68,1.2-9.64,3.15c-0.12,0.12-1.37,1.68-2.04,2.55c0.16-1.05,0.33-2.09,0.47-3.15
			c0.38-3.07,0.67-6.19,0.97-9.3c0.09-0.95,0.2-1.9,0.3-2.85c0.4,0.15,5.11,1.9,7.43,1.74c2.06-0.14,4.64-0.9,5.84-2.73
			c1.17-1.79,0.75-4.29-1.23-5.31c-2.75-1.42-7.68,1.2-9.64,3.15c-0.15,0.15-1.94,2.39-2.37,2.98c0.22-2.09,0.46-4.17,0.78-6.22
			c0.44-2.82,1.02-5.56,1.78-8.18c0.18,0.07,5.09,1.92,7.47,1.76c2.06-0.14,4.64-0.9,5.84-2.73c1.17-1.79,0.75-4.29-1.23-5.31
			c-2.75-1.42-7.68,1.2-9.64,3.15c-0.15,0.15-2.08,2.57-2.4,3.03c0.05-0.16,0.08-0.32,0.12-0.48c0.85-2.78,2.02-5.37,3.24-7.74
			c0.7-1.38,1.45-2.65,2.21-3.88c0.88,0.44,4.92,2.4,7.07,2.49c2.06,0.08,4.71-0.39,6.1-2.08c1.36-1.65,1.22-4.18-0.64-5.41
			c-2.58-1.71-7.77,0.35-9.93,2.07c-0.12,0.09-1.21,1.18-1.99,1.98c0.35-0.55,0.7-1.12,1.05-1.64c1.29-1.95,2.6-3.66,3.77-5.16
			c0.67-0.85,1.3-1.6,1.89-2.3c1.09-0.02,5.47-0.15,7.38-1.05c1.87-0.88,4.01-2.51,4.46-4.65
			C459.19,296.12,457.91,293.94,455.69,293.7z M421.61,376.39c-1.86,4.28-3.57,7.78-4.8,10.2c-0.25,0.49-0.47,0.92-0.68,1.32h-0.21
			c-0.06-0.47-0.13-0.99-0.21-1.57c-0.38-2.73-0.97-6.61-1.88-11.23c-0.29-1.46-0.62-3.02-0.98-4.61c0.36-0.14,2.41-0.97,4.23-1.99
			c1.58,1.72,5.64,3.72,6.17,3.98C422.7,373.84,422.15,375.16,421.61,376.39z"/>
		<path class="st13" d="M439.47,313.39c0.05,0.03,0.99-3.61,1.02-3.85c0.38-2.74-0.49-8.25-3.28-9.6c-2.01-0.97-4.25,0.2-4.98,2.21
			c-0.75,2.05,0.2,4.57,1.32,6.31C434.87,310.49,439.47,313.39,439.47,313.39z"/>
	</g>
</g>
<g id="Character">
	<g>
		<g>
			<polygon class="st14" points="257.37,435.1 256.51,451.42 254.79,451.42 254.22,437.1 			"/>
			<path class="st14" d="M232.73,331.4l5.16,23.2c0,0-3.15,15.75,0.29,29.79c3.44,14.04,9.74,36.38,9.74,40.1
				c0,3.72-4.01,15.75-5.16,20.34c-1.15,4.58-2.86,4.87-3.44,7.45c-0.57,2.58,11.17,1.72,13.18,0.86c2.01-0.86,2.86-7.73,2.86-10.6
				c0-2.86,0.86-4.87,2.01-7.45c1.15-2.58,1.43-5.16,0-7.73c-1.43-2.58-1.72-4.58-1.72-5.44c0-0.86,3.72-43.54,3.72-55.57
				c0-12.03-0.29-25.78,0-27.5c0.29-1.72,0.86-4.58,0.86-4.58L232.73,331.4z"/>
			<path class="st15" d="M257.37,435.1c1.15-2.58,1.43-5.16,0-7.73c-0.19-0.35-0.36-0.68-0.52-1.01c-0.03,1.29-0.13,2.83-0.34,4.45
				c-0.57,4.3-2.58,8.02-2.58,12.03c0,4.01-2.01,5.16-2.86,5.16c-0.72,0-7.39,0.2-9.59,0.26c-0.89,1.61-1.77,2.32-2.15,4.03
				c-0.57,2.58,11.17,1.72,13.18,0.86c2.01-0.86,2.86-7.73,2.86-10.6C255.36,439.68,256.22,437.67,257.37,435.1z"/>
		</g>
		<path class="st14" d="M256.51,333.69c0,0,1.43,24.92,1.43,36.95c0,12.03,3.15,42.97,3.15,46.69c0,3.72-0.86,14.32-1.43,20.62
			c-0.57,6.3-4.01,13.18-3.15,14.61c0.86,1.43,2.86,1.72,3.72,1.72c0.86,0,7.73-0.29,8.59-0.86c0.86-0.57,2.01-3.44,2.58-13.18
			c0.57-9.74-1.72-18.62-0.57-24.06c1.15-5.44,8.88-32.94,9.45-44.11c0.57-11.17-1.72-20.91-1.43-26.93
			c0.29-6.02,2.01-14.32,2.01-14.32l-24.35,0.86V333.69z"/>
		<path class="st15" d="M223.57,270.96c0,0-3.15,14.32-2.01,31.51c1.15,17.19,10.31,31.22,10.31,31.22s6.87,4.01,29.22,3.72
			c18.33-0.24,24.35-4.58,24.35-4.58s7.16-22.34,7.16-37.24c0-14.89-2.29-22.92-2.29-22.92l-65.6-6.87L223.57,270.96z"/>
		<path class="st16" d="M253.07,176.15l-24.68,8.78c0,0-11.99,43.64-11.41,46.21c0.57,2.58,15.47,3.72,15.47,3.72l-11.46,36.09
			c0,0,2.58,6.02,7.73,8.59c5.16,2.58,18.05,5.73,18.05,5.73l4.3-6.87l2.58,7.16c0,0,16.04,1.72,27.78-2.86
			c11.74-4.58,14.61-6.3,14.61-6.3l-11.17-34.37l3.44-10.03l16.36,3.33c0,0-3.75-47.73-5.18-48.87s-30.65-8.59-32.65-9.17
			C264.81,176.72,256.51,175.01,253.07,176.15z"/>
		<path class="st14" d="M258.51,171.57c0,0-4.01-0.86-7.45,2.58c-3.44,3.44-7.45,19.76-7.45,19.76l6.87,0.57l-5.16,4.87l10.31,13.75
			l4.87,0.57l12.6-11.46l-3.15-6.02h10.31c0,0,0.86-14.61-2.58-20.62C274.27,169.56,258.51,171.57,258.51,171.57z"/>
		<g>
			<path class="st14" d="M269.68,127.38c0,0,4.3,3.15,6.59,7.73c1.43,2.86,2.29,7.16,4.01,8.02c1.72,0.86,5.16,0.29,5.16,2.58
				c0,2.29-2.86,3.72-2.86,4.58c0,0.86,0.57,13.18,0,15.47c-0.57,2.29-7.73,2.58-8.59,2.86c-0.86,0.29-16.9,55.57-16.9,55.57
				l-4.58,0.57l3.72-56.43c0,0-5.16,0-9.17-8.02c-4.01-8.02,4.87-15.18,10.6-21.77C263.37,131.96,269.68,127.38,269.68,127.38z"/>
			<path class="st14" d="M258.27,202.88l-3.97-5.56l-1.81,27.45l4.58-0.57c0,0,3.67-12.66,7.6-25.89L258.27,202.88z"/>
			<path class="st15" d="M252.78,158.03c0,0,4.87,0,6.02-3.72c1.15-3.72,1.15-5.44,1.15-5.44s8.31-11.74,12.6-17.76
				c4.3-6.02-1.43-11.17-10.03-11.17c-7.34,0-21.48,6.59-27.5,15.18c-6.02,8.59,0.57,22.06,5.16,26.35
				c4.58,4.3,9.17,6.02,11.74,4.58C254.49,164.62,252.78,158.03,252.78,158.03z"/>
			<path class="st15" d="M236.74,133.97c0,0-1.15-4.87-5.44-8.31c-4.3-3.44-14.61,0.29-19.19,8.31s4.58,15.75,5.44,18.33
				c0.86,2.58-2.86,2.58-3.44,5.73s3.15,5.16,5.44,6.3c2.29,1.15,0.57,1.15-0.57,5.73c-1.15,4.58,0.29,7.45,7.73,7.45
				c7.45,0,5.73-7.16,4.87-9.45c-0.86-2.29,1.72,0,3.72-4.58s-3.15-11.74-3.15-15.18C232.15,144.85,239.03,142.28,236.74,133.97z"/>
			<path class="st13" d="M275.36,143.55c0.31,1.14,0.07,2.21-0.54,2.37c-0.61,0.17-1.36-0.63-1.67-1.77
				c-0.31-1.14-0.07-2.21,0.54-2.37C274.31,141.61,275.05,142.41,275.36,143.55z"/>
			<path class="st6" d="M269.96,140.56c0,0,2.01-4.3,5.44-2.58"/>
			<path class="st6" d="M281.99,154.59c0,0-3.15,1.72-5.73,0.57"/>
		</g>
		<path class="st14" d="M256.5,158.6c0,0-5.44-6.3-8.31-1.43c-2.86,4.87,1.15,8.88,5.16,9.45c4.01,0.57,5.44-2.01,5.44-2.01"/>
		<path class="st16" d="M296.61,225.99L255.08,230l-6.59,7.16c0,0,22.92,4.58,37.81,6.02c14.89,1.43,17.79,0.79,18.36-1.21
			c0.57-2.01-0.6-15.4-0.6-15.4"/>
		<line class="st6" x1="286.3" y1="227.14" x2="284.87" y2="203.65"/>
		<line class="st6" x1="233.59" y1="217.97" x2="236.74" y2="199.93"/>
		<path class="st14" d="M248.2,223.41c0,0-12.89-4.87-14.61-5.44c-1.72-0.57-5.16,0.86-8.02,2.86c-2.86,2.01-4.01,2.86-4.01,2.86
			c1.43,1.43,25.21,1.15,25.21,1.15S249.35,226.28,248.2,223.41z"/>
		<path class="st14" d="M272.26,223.7c0,0,8.31-1.72,9.74-0.86c1.43,0.86,7.45,3.15,7.45,3.15l-7.45,2.86l-8.31,1.43L272.26,223.7z"
			/>
		<path class="st16" d="M276.27,230.29l-2.29-7.73L225,223.7c0,0-6.3-2.01-8.88,3.44c-2.58,5.44-4.58,14.32,0.57,16.33
			C221.85,245.47,273.69,230.58,276.27,230.29z"/>
		<line class="st14" x1="251.64" y1="237.74" x2="249.92" y2="275.83"/>
		<path class="st15" d="M270.26,433.66c-0.29,5.44-1.15,12.03-2.86,13.75c-1.72,1.72-9.45,0-9.45,0l-0.55,0.17
			c-0.75,2.44-1.29,4.31-0.89,4.98c0.86,1.43,2.86,1.72,3.72,1.72c0.86,0,7.73-0.29,8.59-0.86c0.86-0.57,2.01-3.44,2.58-13.18
			c0.31-5.35-0.23-10.43-0.6-14.83C270.72,426.37,270.49,429.27,270.26,433.66z"/>
	</g>
</g>
</svg>
