<?xml version="1.0" encoding="utf-8"?>
<!-- Generator: Adobe Illustrator 26.5.0, SVG Export Plug-In . SVG Version: 6.00 Build 0)  -->
<svg version="1.1" xmlns="http://www.w3.org/2000/svg" xmlns:xlink="http://www.w3.org/1999/xlink" x="0px" y="0px"
	 viewBox="0 0 500 500" style="enable-background:new 0 0 500 500;" xml:space="preserve">
<style type="text/css">
	.st0{fill:#92E3A9;}
	.st1{opacity:0.7;fill:#FFFFFF;}
	.st2{fill:none;stroke:#263238;stroke-linecap:round;stroke-linejoin:round;stroke-miterlimit:10;}
	.st3{fill:#FFFFFF;stroke:#263238;stroke-linecap:round;stroke-linejoin:round;stroke-miterlimit:10;}
	.st4{fill:#757575;stroke:#263238;stroke-linecap:round;stroke-linejoin:round;stroke-miterlimit:10;}
	.st5{fill:#5C5C5C;stroke:#263238;stroke-linecap:round;stroke-linejoin:round;stroke-miterlimit:10;}
	.st6{fill:#263238;stroke:#263238;stroke-linecap:round;stroke-linejoin:round;stroke-miterlimit:10;}
	.st7{fill:none;stroke:#BFBFBF;stroke-linecap:round;stroke-linejoin:round;stroke-miterlimit:10;}
	.st8{fill:#92E3A9;stroke:#263238;stroke-linecap:round;stroke-linejoin:round;stroke-miterlimit:10;}
	.st9{fill:#263238;}
	.st10{fill:#BFBFBF;stroke:#263238;stroke-linecap:round;stroke-linejoin:round;}
	.st11{fill:none;stroke:#263238;stroke-linecap:round;stroke-linejoin:round;}
	.st12{opacity:0.5;}
	.st13{fill:#FFFFFF;}
	.st14{opacity:0.3;}
	.st15{opacity:0.4;fill:#FFFFFF;}
	.st16{opacity:0.2;fill:#FFFFFF;}
	.st17{opacity:0.3;fill:#FFFFFF;}
	.st18{fill:#92E3A9;stroke:#263238;stroke-miterlimit:10;}
	.st19{fill:#FFFFFF;stroke:#263238;stroke-width:0.75;stroke-linecap:round;stroke-linejoin:round;stroke-miterlimit:10;}
	.st20{fill:none;stroke:#263238;stroke-width:0.75;stroke-linecap:round;stroke-linejoin:round;stroke-miterlimit:10;}
	.st21{fill:#BFBFBF;}
	.st22{opacity:0.2;clip-path:url(#XMLID_00000090285354193335427290000000127365045964984725_);}
	.st23{opacity:0.2;clip-path:url(#XMLID_00000001626032713610710070000006814104436335007634_);}
	.st24{opacity:0.2;clip-path:url(#XMLID_00000109737062375477044480000017764465729791645103_);}
	.st25{opacity:0.2;clip-path:url(#XMLID_00000166641562237845621510000009493038695664364179_);}
	.st26{fill:#999999;stroke:#263238;stroke-linecap:round;stroke-linejoin:round;stroke-miterlimit:10;}
	.st27{fill:#192E34;}
	.st28{fill:none;stroke:#C0C0C0;stroke-width:0.75;stroke-linecap:round;stroke-linejoin:round;stroke-miterlimit:10;}
	.st29{fill:#BFBFBF;stroke:#263238;stroke-linecap:round;stroke-linejoin:round;stroke-miterlimit:10;}
	.st30{fill:none;stroke:#263238;stroke-miterlimit:10;}
</style>
<g id="Background_Simple">
	<g>
		<path class="st0" d="M32.17,187.43c-4.85,11.35-8.95,23.26-9.37,35.59c-0.42,12.33,3.24,25.24,12.04,33.89
			c8.58,8.43,21.5,12.49,27.56,22.88c8.65,14.8-1.12,33.37-11.73,46.84c-10.61,13.47-23.13,28.79-19.76,45.6
			c2.23,11.13,11.09,20.52,21.67,24.64c90.28,35.11,234.44,31.27,277.86,26.72c43.42-4.56,87.06-19.71,118.34-50.16
			c15.06-14.66,27.35-33.92,27.37-54.93c0.02-18.4-9.57-35.93-23.1-48.39c-13.53-12.47-30.69-20.35-48.23-25.89
			c-13.17-4.16-28.8-9-32.93-22.17c-3.37-10.76,2.83-21.96,8.79-31.54c9.64-15.49,19.28-30.98,28.92-46.46
			c7.91-12.71,16.06-26.11,16.99-41.06c1.04-16.61-7.33-32.84-19.46-44.23c-12.14-11.39-27.7-18.47-43.53-23.6
			c-52.33-16.96-110.99-12.47-163.22,3.21c-47.43,14.24-90.57,42.17-123.49,79.11C58.4,138.21,43.11,161.85,32.17,187.43z"/>
		<path class="st1" d="M32.17,187.07c-4.85,11.35-8.95,23.26-9.37,35.59c-0.42,12.33,3.24,25.24,12.04,33.89
			c8.58,8.43,21.5,12.49,27.56,22.88c8.65,14.8-1.12,33.37-11.73,46.84c-10.61,13.47-23.13,28.79-19.76,45.6
			c2.23,11.13,11.09,20.52,21.67,24.64c90.28,35.11,234.44,31.27,277.86,26.72c43.42-4.56,87.06-19.71,118.34-50.16
			c15.06-14.66,27.35-33.92,27.37-54.93c0.02-18.4-9.57-35.93-23.1-48.39c-13.53-12.47-30.69-20.35-48.23-25.89
			c-13.17-4.16-28.8-9-32.93-22.17c-3.37-10.76,2.83-21.96,8.79-31.54c9.64-15.49,19.28-30.98,28.92-46.46
			c7.91-12.71,16.06-26.11,16.99-41.06c1.04-16.61-7.33-32.84-19.46-44.23C395,47,379.43,39.92,363.6,34.79
			C311.27,17.83,252.61,22.32,200.39,38c-47.43,14.24-90.57,42.17-123.49,79.11C58.4,137.85,43.11,161.5,32.17,187.07z"/>
	</g>
</g>
<g id="Floor">
	<line class="st2" x1="31.33" y1="426.41" x2="476.16" y2="426.41"/>
</g>
<g id="Camera">
	<g>
		<path class="st0" d="M166.15,462.27c0,6.81-29.38,12.33-65.62,12.33c-36.24,0-65.62-5.52-65.62-12.33
			c0-6.81,29.38-12.33,65.62-12.33C136.77,449.94,166.15,455.46,166.15,462.27z"/>
		<g>
			<g>
				<g>
					<g>
						<g>
							<g>
								<g>
									<g>
										<path class="st3" d="M132.31,401.82c-4.28,0-8.34,0.9-12.03,2.51l-7.25,3.2c-9.95,3.68-17.05,13.22-17.05,24.45
											c0,11.23,7.1,20.77,17.05,24.45l7.25,3.2c3.69,1.61,7.75,2.51,12.03,2.51c16.66,0,30.16-13.5,30.16-30.16
											C162.47,415.32,148.97,401.82,132.31,401.82z"/>
										<path class="st4" d="M132.31,401.82c-4.28,0-8.34,0.9-12.03,2.51l-7.25,3.2c-9.95,3.68-17.05,13.22-17.05,24.45
											c0,11.23,7.1,20.77,17.05,24.45l7.25,3.2c3.69,1.61,7.75,2.51,12.03,2.51c16.66,0,30.16-13.5,30.16-30.16
											C162.47,415.32,148.97,401.82,132.31,401.82z"/>
										<g>
											<g>
												<path class="st3" d="M121.63,409.15c-5.74,0-24.22,0-29.96,0c-12.61,0-22.83,10.22-22.83,22.83
													c0,12.61,10.22,22.83,22.83,22.83c5.74,0,24.22,0,29.96,0c12.61,0,22.83-10.22,22.83-22.83
													C144.46,419.37,134.24,409.15,121.63,409.15z"/>
												<path class="st5" d="M121.63,409.15c-5.74,0-24.22,0-29.96,0c-12.61,0-22.83,10.22-22.83,22.83
													c0,12.61,10.22,22.83,22.83,22.83c5.74,0,24.22,0,29.96,0c12.61,0,22.83-10.22,22.83-22.83
													C144.46,419.37,134.24,409.15,121.63,409.15z"/>
											</g>
											<path class="st5" d="M113.3,409.15c-1.57,0-4.12,0-7.09,0c12.61,0,22.83,10.22,22.83,22.83
												c0,12.61-10.22,22.83-22.83,22.83c2.97,0,5.52,0,7.09,0c12.61,0,22.83-10.22,22.83-22.83
												C136.13,419.37,125.91,409.15,113.3,409.15z"/>
										</g>
									</g>
									<g>
										<path class="st5" d="M97.8,388.35H77.14c-2.09,0-3.96,1.29-4.71,3.24l-4.85,12.66h40.06
											C107.64,404.24,101.18,388.35,97.8,388.35z"/>
										<path class="st5" d="M55.36,404.24h13.04v-2.65c0-0.68-0.56-1.24-1.24-1.24H56.6c-0.68,0-1.24,0.56-1.24,1.24V404.24z"/>
										<path class="st4" d="M90.64,388.35h-13.5c-2.09,0-3.96,1.29-4.71,3.24l-4.85,12.66h32.62l-4.85-12.66
											C94.6,389.63,92.72,388.35,90.64,388.35z"/>
									</g>
									<g>
										<path class="st5" d="M52.94,462.02h79.42c2.21,0,4-1.79,4-4v-51.78c0-1.1-0.9-2-2-2H50.94c-1.1,0-2,0.9-2,2v51.78
											C48.94,460.23,50.73,462.02,52.94,462.02z"/>
										<path class="st4" d="M52.94,462.02h64.09c2.21,0,4-1.79,4-4v-51.78c0-1.1-0.9-2-2-2H50.94c-1.1,0-2,0.9-2,2v51.78
											C48.94,460.23,50.73,462.02,52.94,462.02z"/>
									</g>
									<g>
										<path class="st6" d="M91.51,450.04H52.86c-0.55,0-1-0.45-1-1v-31.38c0-0.55,0.45-1,1-1h38.65c0.55,0,1,0.45,1,1v31.38
											C92.51,449.59,92.07,450.04,91.51,450.04z"/>
									</g>
									<g>
										<line class="st7" x1="75.78" y1="422.24" x2="83.46" y2="436.3"/>
										<line class="st7" x1="64.59" y1="429.27" x2="73.43" y2="444.76"/>
										<line class="st7" x1="60.67" y1="422.4" x2="62.95" y2="426.41"/>
									</g>
									<g>
										<path class="st6" d="M89.64,403.27H76.19c-0.55,0-1-0.45-1-1v-7.3c0-0.55,0.45-1,1-1h13.44c0.55,0,1,0.45,1,1v7.3
											C90.64,402.82,90.19,403.27,89.64,403.27z"/>
									</g>
								</g>
								<g>
									<rect x="92.51" y="422.4" class="st5" width="4.51" height="4.51"/>
									<rect x="92.51" y="427.8" class="st5" width="4.51" height="4.51"/>
									<rect x="92.51" y="433.19" class="st5" width="4.51" height="4.51"/>
									<rect x="92.51" y="438.59" class="st5" width="4.51" height="4.51"/>
								</g>
								<g>
									<path class="st5" d="M98.52,432.65c0,5.29,4.28,9.58,9.58,9.58c5.29,0,9.58-4.29,9.58-9.58c0-5.29-4.29-9.59-9.58-9.59
										C102.8,423.06,98.52,427.36,98.52,432.65z M102.54,432.65c0-3.07,2.5-5.55,5.56-5.55s5.55,2.48,5.55,5.55
										c0,3.06-2.49,5.55-5.55,5.55S102.54,435.71,102.54,432.65z"/>
									<path class="st6" d="M111.7,432.65c0,1.97-1.6,3.56-3.56,3.56c-1.97,0-3.56-1.6-3.56-3.56c0-1.97,1.6-3.56,3.56-3.56
										C110.11,429.08,111.7,430.68,111.7,432.65z"/>
								</g>
							</g>
							<path class="st8" d="M96.17,409.43c0,0.77-0.62,1.4-1.4,1.4c-0.77,0-1.4-0.62-1.4-1.4c0-0.77,0.63-1.4,1.4-1.4
								C95.54,408.03,96.17,408.66,96.17,409.43z"/>
						</g>
					</g>
				</g>
				<path class="st2" d="M130.83,420.62c11.83,2.23,10.81,25.99,21.01,34.33c20.83,17.02,60.1,0.59,46.61-9.8
					c-10.53-8.11-11.59-12.37-9.63-14.93c1.06-1.38,2.97-1.94,4.75-2.36c6.36-1.5,14.01-1.91,20.58-2.08"/>
			</g>
			<path class="st6" d="M129.04,423.53h2.12c0.57,0,1.04-0.47,1.04-1.04v-2.79c0-0.57-0.47-1.04-1.04-1.04h-2.12V423.53z"/>
		</g>
	</g>
</g>
<g id="Device">
	<g>
		<g>
			<g>
				<g>
					<g>
						<path class="st9" d="M193.39,441.15h111.94v3.53c0,0.9-1.17,1.63-2.62,1.63H196c-1.45,0-2.62-0.73-2.62-1.63V441.15z"/>
						<path class="st10" d="M286.76,415.3v-46.05h-74.84v46.05c0,6.35-12.31,18.79-18.06,24.26c-1.02,0.97-0.33,2.69,1.08,2.69
							h108.82c1.41,0,2.1-1.72,1.08-2.69C299.09,434.09,286.76,421.65,286.76,415.3z"/>
						<line class="st11" x1="272.7" y1="416.31" x2="282.38" y2="416.31"/>
						<line class="st11" x1="216.4" y1="416.31" x2="265.57" y2="416.31"/>
					</g>
					<g class="st12">
						<path class="st13" d="M204.42,431.34l21.4-12.74l2.55,0.25c0,0-27.01,18.6-21.4,19.11c5.6,0.51,18.09,1.02,18.09,1.02
							l-24.61,0.89c-1.39,0.05-2.16-1.58-1.24-2.62L204.42,431.34z"/>
						<path class="st13" d="M213.09,418.35c0-0.76,72.1,0,72.1,0s0.51,3.82,2.55,5.61c2.04,1.78-2.55-3.82-5.86-3.82
							c-3.31,0-64.97-1.53-66.75-0.25c-1.78,1.27-14.52,15.8-14.52,15.8L213.09,418.35z"/>
						<path class="st13" d="M214.87,384.47l-0.23,25.84c-0.01,1.48,1.18,2.69,2.67,2.69h66.86v-12.48c0,0-1.02,8.15-3.57,8.92
							c-2.55,0.76-59.81,2.83-61.15,0.25C215.89,402.81,214.87,384.47,214.87,384.47z"/>
					</g>
					<path class="st9" d="M286.97,382.68l-0.24-0.06c-24.6-6.15-50.33-6.13-74.92,0.06h0v-13.25h75.16V382.68z"/>
				</g>
				<g>
					<g>
						<g>
							<path class="st13" d="M397.99,325.6H100.11c-0.88,0-1.59-0.71-1.59-1.59V157.85c0-0.88,0.71-1.59,1.59-1.59h297.88
								c0.88,0,1.59,0.71,1.59,1.59v166.17C399.58,324.89,398.87,325.6,397.99,325.6z"/>
						</g>
					</g>
				</g>
				<path class="st9" d="M412.4,162.27V343.9l-324.8-0.98V161.35c0-5.47,4.44-9.9,9.91-9.88l288.7,0.87l16.33,0.05
					C407.99,152.4,412.4,156.83,412.4,162.27z"/>
			</g>
			<g>
				<g class="st14">
					<path class="st15" d="M412.4,162.27v26.05l-7.32,22.69l-1.59,4.96l-12.14,37.62l-4.76,14.76l-0.02,0.07l-3.08,9.55l-8.65,26.78
						l-0.52,1.65l-5.09,15.78l-0.08,0.25l-2.04,6.31l-0.97,3l-0.67,2.1l-1.13,3.49l-0.18,0.58l-1.67,5.16l-0.01,0.03h-37.36
						l0.02-0.03l1.65-5.16l0.18-0.58l1.7-5.3l0.69-2.16l1.96-6.13v-0.01l0.37-1.15l0.1-0.32l6.89-21.51l6.61-20.64v-0.02l3.94-12.26
						l0.15-0.48l3.04-9.49l0.85-2.67l0.02-0.02l0.01-0.03l4.22-13.21l13.75-42.94l0.04-0.12l13.36-41.7l0.19-0.58l1.35-4.25
						l16.33,0.05C407.99,152.4,412.4,156.83,412.4,162.27z"/>
				</g>
				<polygon class="st16" points="193.84,151.6 192.23,156.59 192.05,157.17 170.91,222.69 153.16,277.7 145.33,302 136.25,330.15 
					136.14,330.49 134.16,336.61 133.93,337.33 133.75,337.91 132.09,343.07 94.04,342.92 98.85,330.19 99.43,328.4 99.97,326.72 
					100.1,326.28 100.11,326.24 100.25,325.82 103.01,317.23 117.15,273.06 139.95,201.87 154.28,157.17 154.46,156.59 
					156.06,151.6 				"/>
				<polygon class="st17" points="87.6,296.33 124.34,195.38 126.33,189.17 129.8,178.34 138.37,151.59 148.09,151.59 
					148.08,151.62 142.68,168.36 139.46,178.34 135.97,189.17 133.97,195.38 87.6,325.36 				"/>
			</g>
		</g>
		<g>
			<rect x="99.06" y="161.62" class="st0" width="300.52" height="168.8"/>
			<rect x="105.36" y="168.48" class="st3" width="285.88" height="131.21"/>
			<g>
				<rect x="175.46" y="175.58" class="st18" width="150.48" height="86.51"/>
				<g>
					<g>
						<g>
							<polygon class="st3" points="175.46,262.27 224.84,214.77 250.6,262.27 							"/>
							<polygon class="st3" points="228.26,262.27 292.46,200.53 325.93,262.27 							"/>
						</g>
						<path class="st13" d="M262.29,201.15c0,6.29-5.1,11.39-11.39,11.39c-6.29,0-11.39-5.1-11.39-11.39
							c0-6.29,5.1-11.39,11.39-11.39C257.19,189.76,262.29,194.86,262.29,201.15z"/>
					</g>
					<line class="st3" x1="283.64" y1="219.01" x2="287.93" y2="214.77"/>
					<line class="st3" x1="250.6" y1="251.64" x2="279.35" y2="223.24"/>
					<line class="st3" x1="219.44" y1="227.64" x2="222.38" y2="224.84"/>
					<line class="st3" x1="199.67" y1="246.45" x2="216.49" y2="230.45"/>
				</g>
			</g>
			<g>
				<g>
					<rect x="133.49" y="269.6" class="st18" width="40.98" height="23.56"/>
					<g>
						<g>
							<path class="st19" d="M134.97,293.16l8.57-8.7c2.61-2.51,6.56-3.04,9.73-1.29l18.21,10L134.97,293.16z"/>
						</g>
						<g>
							<path class="st19" d="M157.14,291.6c0.46,0.6,0.75,0.98,0.75,0.98"/>
							<path class="st19" d="M148.55,282.8c0.64-0.08,1.3,0.1,2.23,0.86c0.63,0.51,3.65,4.4,5.54,6.87"/>
						</g>
						<path class="st13" d="M164.38,276.35c0,1.71-1.39,3.1-3.1,3.1c-1.71,0-3.1-1.39-3.1-3.1s1.39-3.1,3.1-3.1
							C162.99,273.25,164.38,274.64,164.38,276.35z"/>
					</g>
				</g>
				<g>
					<g>
						<rect x="181.83" y="269.6" class="st18" width="40.98" height="23.56"/>
					</g>
					<g>
						<g>
							<polygon class="st19" points="196.86,280.51 203.7,293.12 213.11,293.12 							"/>
							<polygon class="st19" points="183.76,293.12 196.86,280.51 203.7,293.12 							"/>
						</g>
						<line class="st19" x1="196.25" y1="289.34" x2="197.75" y2="289.34"/>
						<line class="st19" x1="190.77" y1="289.34" x2="195.27" y2="289.34"/>
						<line class="st19" x1="205.56" y1="291.01" x2="206.96" y2="291.01"/>
						<line class="st19" x1="202.7" y1="291.01" x2="204.83" y2="291.01"/>
						<line class="st19" x1="194.73" y1="285.78" x2="199.69" y2="285.78"/>
					</g>
					<g>
						<path class="st13" d="M211.95,276.35c0,1.71-1.39,3.1-3.1,3.1c-1.71,0-3.1-1.39-3.1-3.1s1.39-3.1,3.1-3.1
							C210.56,273.25,211.95,274.64,211.95,276.35z"/>
					</g>
				</g>
				<g>
					<g>
						<rect x="278.52" y="269.57" class="st18" width="40.98" height="23.56"/>
						<g>
							<path class="st13" d="M313.71,276.31c0,1.71-1.39,3.1-3.1,3.1c-1.71,0-3.1-1.39-3.1-3.1c0-1.71,1.39-3.1,3.1-3.1
								C312.32,273.21,313.71,274.6,313.71,276.31z"/>
						</g>
					</g>
					<g>
						<polygon class="st19" points="284.39,293.2 297.5,280.6 313.74,293.2 						"/>
						<polygon class="st19" points="292.98,284.93 298.4,282.97 303.09,284.93 297.5,280.6 						"/>
						<line class="st19" x1="300.49" y1="286.9" x2="303.09" y2="291.48"/>
						<line class="st19" x1="299.18" y1="284.6" x2="299.9" y2="285.86"/>
						<line class="st19" x1="296.18" y1="285.23" x2="293.66" y2="290.06"/>
					</g>
				</g>
				<g>
					<g>
						<g>
							<rect x="326.87" y="269.6" class="st18" width="40.98" height="23.56"/>
							<g>
								<path class="st13" d="M350.51,276.35c0,1.71-1.39,3.1-3.1,3.1c-1.71,0-3.1-1.39-3.1-3.1s1.39-3.1,3.1-3.1
									C349.13,273.25,350.51,274.64,350.51,276.35z"/>
							</g>
						</g>
					</g>
					<g>
						<path class="st19" d="M362.43,293.16h-29.35l5.09-5.63c1.29-1.43,3.13-2.25,5.05-2.25h7.79c1.67,0,3.29,0.62,4.54,1.73
							L362.43,293.16z"/>
						<g>
							<line class="st20" x1="343.62" y1="288.71" x2="341.84" y2="291.85"/>
							<line class="st20" x1="344.92" y1="286.42" x2="344.21" y2="287.67"/>
							<line class="st20" x1="349.51" y1="286.38" x2="351.33" y2="289.86"/>
						</g>
					</g>
				</g>
				<g>
					<rect x="230.18" y="269.34" class="st18" width="40.98" height="23.56"/>
					<g>
						<g>
							<g>
								<polygon class="st19" points="230.18,292.94 243.63,280.01 250.64,292.94 								"/>
								<polygon class="st19" points="244.56,292.94 262.04,276.13 271.16,292.94 								"/>
							</g>
							<path class="st13" d="M253.82,276.3c0,1.71-1.39,3.1-3.1,3.1c-1.71,0-3.1-1.39-3.1-3.1c0-1.71,1.39-3.1,3.1-3.1
								C252.44,273.2,253.82,274.59,253.82,276.3z"/>
						</g>
						<line class="st19" x1="259.64" y1="281.16" x2="260.81" y2="280.01"/>
						<line class="st19" x1="250.64" y1="290.05" x2="258.47" y2="282.32"/>
						<line class="st19" x1="242.16" y1="283.51" x2="242.96" y2="282.75"/>
						<line class="st19" x1="236.77" y1="288.64" x2="241.35" y2="284.28"/>
					</g>
				</g>
			</g>
			<path class="st13" d="M327.73,324.45H173.72c-4.94,0-8.95-4.01-8.95-8.95v-1.29c0-4.94,4.01-8.95,8.95-8.95h154.01
				c4.94,0,8.95,4.01,8.95,8.95v1.29C336.68,320.45,332.67,324.45,327.73,324.45z"/>
			<g>
				<g>
					<polyline class="st2" points="245.1,319.78 239.67,314.35 245.1,308.92 					"/>
					<polyline class="st2" points="254.89,308.92 260.32,314.35 254.89,319.78 					"/>
				</g>
				<g>
					<g>
						<polyline class="st2" points="269.87,313.25 268.08,311.45 269.87,309.66 						"/>
						<path class="st2" d="M268.12,311.49c0.5-0.24,1.07-0.38,1.67-0.38c2.12,0,3.83,1.72,3.83,3.83c0,2.12-1.72,3.84-3.83,3.84
							c-1.16,0-2.2-0.52-2.91-1.34"/>
					</g>
					<g>
						<polyline class="st2" points="281.87,313.25 283.66,311.45 281.87,309.66 						"/>
						<path class="st2" d="M284.86,317.44c-0.71,0.82-1.75,1.34-2.91,1.34c-2.12,0-3.83-1.72-3.83-3.84c0-2.12,1.72-3.83,3.83-3.83
							c0.6,0,1.17,0.14,1.67,0.38"/>
					</g>
				</g>
				<g>
					<path class="st2" d="M233.17,313.35c0,2.83-2.29,5.12-5.12,5.12c-2.83,0-5.12-2.29-5.12-5.12c0-2.83,2.29-5.12,5.12-5.12
						C230.88,308.22,233.17,310.52,233.17,313.35z"/>
					<line class="st2" x1="225.2" y1="317.6" x2="222.92" y2="321.16"/>
					<g>
						<line class="st2" x1="228.05" y1="311.33" x2="228.05" y2="315.16"/>
						<line class="st2" x1="226.13" y1="313.25" x2="229.96" y2="313.25"/>
					</g>
				</g>
				<g>
					<g>
						<polyline class="st2" points="200.72,318.78 198.87,318.78 198.87,317.14 						"/>
						<polyline class="st2" points="198.87,310.68 198.87,308.92 200.72,308.92 						"/>
					</g>
					<g>
						<polyline class="st2" points="213.31,318.78 215.16,318.78 215.16,317.14 						"/>
						<polyline class="st2" points="215.16,310.68 215.16,308.92 213.31,308.92 						"/>
					</g>
				</g>
				<g>
					<line class="st2" x1="290.53" y1="308.92" x2="301.86" y2="320.26"/>
					<line class="st2" x1="301.86" y1="308.92" x2="290.53" y2="320.26"/>
				</g>
			</g>
		</g>
		<g>
			<path class="st21" d="M94.4,375.3c-3.48,0-6.31-2.83-6.31-6.31v-25.58h323.8V369c0,3.48-2.83,6.31-6.31,6.31H94.4z"/>
			<path class="st9" d="M411.4,343.92V369c0,3.2-2.6,5.81-5.81,5.81H94.4c-3.2,0-5.81-2.6-5.81-5.81v-25.08H411.4 M412.4,342.92
				H87.6V369c0,3.76,3.05,6.81,6.81,6.81H405.6c3.76,0,6.81-3.05,6.81-6.81V342.92L412.4,342.92z"/>
		</g>
	</g>
</g>
<g id="Character">
	<g>
		<path class="st0" d="M466.16,462.27c0,6.81-29.38,12.33-65.62,12.33c-36.24,0-65.62-5.52-65.62-12.33
			c0-6.81,29.38-12.33,65.62-12.33C436.78,449.94,466.16,455.46,466.16,462.27z"/>
		<g>
			<g>
				<g>
					<g>
						<g>
							<g>
								<defs>
									<path id="XMLID_10_" d="M447.19,240.93c-2-4.78-1.5-19.36,0.65-25.28c0.54-1.49,2.42-1.96,3.6-0.9c0,0,6,4.09,8.99,15.25
										c0,0,15,26.41,15,38.46c0,11.3-22.33,34.81-22.33,34.81s-3.91-1.02-5.96-4.77c0,0,8.35-20.62,14.83-29.48
										C461.96,269.02,449.41,246.21,447.19,240.93z"/>
								</defs>
								<use xlink:href="#XMLID_10_"  style="overflow:visible;fill:#757575;"/>
								<clipPath id="XMLID_00000155857481036535904810000010655196394260512391_">
									<use xlink:href="#XMLID_10_"  style="overflow:visible;"/>
								</clipPath>
								<path style="opacity:0.2;clip-path:url(#XMLID_00000155857481036535904810000010655196394260512391_);" d="M449.64,252.38
									c0,0,7.15-15.22,9.87-13.86c2.73,1.36,9.64,27.04,6.98,31.13c-2.66,4.09-17.2,32.96-20.84,32.39
									C442.02,301.45,449.64,252.38,449.64,252.38z"/>
								
									<use xlink:href="#XMLID_10_"  style="overflow:visible;fill:none;stroke:#263238;stroke-linecap:round;stroke-linejoin:round;stroke-miterlimit:10;"/>
							</g>
							<path class="st3" d="M449.03,296.63l-3.38,5.4c0,0-10.49,3.28-11.59,6.75c-1.09,3.47,4.28,8.3,7.48,7.33
								c3.2-0.96,8.41-10.61,8.41-10.61l4.25-4.95L449.03,296.63z"/>
							<path class="st8" d="M456.84,300.43l-2.64,3.63c0,0-5.62-1.3-8.44-6.05l2.56-4.06C448.32,293.96,450.26,298.5,456.84,300.43z
								"/>
							<path class="st6" d="M442.18,446.59l2.93,12.24c0.42,1.75-0.91,3.44-2.71,3.44h-17.2c-1.73,0-3.06-1.56-2.75-3.27
								c0.28-1.57,1.03-3.37,2.87-4.57c3.92-2.56,5.79-10.57,5.79-10.57L442.18,446.59z"/>
							<path class="st6" d="M399.75,448.63c0,0,2.79,4,3.2,11.13c0.08,1.36-1.03,2.5-2.39,2.5h-30.54c-2.71,0-3.92-3.41-1.81-5.11
								c0.97-0.78,2.39-1.43,4.45-1.71c7.5-1.02,14.13-4.43,15.33-8.86L399.75,448.63z"/>
							<g>
								<defs>
									<path id="XMLID_9_" d="M447.13,298.5c0,0,6.43,3.68,1.78,34.23l-2.26,46.54c0,0,3.14,28.75-2.88,68.51
										c0,0-7.35,4.17-14.83-1.65l-1.36-67.88l-12.43-74.98L447.13,298.5z"/>
								</defs>
								<use xlink:href="#XMLID_9_"  style="overflow:visible;fill:#FFFFFF;"/>
								<clipPath id="XMLID_00000129195094364579384810000004627168332352963219_">
									<use xlink:href="#XMLID_9_"  style="overflow:visible;"/>
								</clipPath>
								<path style="opacity:0.2;clip-path:url(#XMLID_00000129195094364579384810000004627168332352963219_);" d="M422.4,330.08
									c0,0,5.07,20.22,7.12,32.04c2.04,11.82,14.2,10.91,15.67,18.63c1.47,7.73-12.8-1.36-11.39,26.58
									c1.4,27.95,6.37,43.16-1.45,42.94c-7.82-0.22-8.05-22.26-8.05-22.26l-4.77-67.03v-9.32l-1.14-17.72L422.4,330.08z"/>
								<path style="opacity:0.2;clip-path:url(#XMLID_00000129195094364579384810000004627168332352963219_);" d="M423.43,329.32
									c-1.59,0.92-3.46,1.84-3.98,3.6c4.54,0.29,9.17-1.65,12.14-5.1c1.66-1.93,2.78-4.3,3.27-6.79c0.42-2.12,0.41-5.3-1.66-2.96
									c-1.52,1.71-2.25,4.41-3.81,6.25C427.7,326.31,425.69,328.02,423.43,329.32z"/>
								
									<use xlink:href="#XMLID_9_"  style="overflow:visible;fill:none;stroke:#263238;stroke-linecap:round;stroke-linejoin:round;stroke-miterlimit:10;"/>
							</g>
							<g>
								<path class="st2" d="M442.58,379.67c0,0-11.37-2.43-12.14,0c-0.48,1.51,2.53,0.67,6.49,2.23"/>
							</g>
							<g>
								<defs>
									<path id="XMLID_8_" d="M424.8,334.99c-8.86,14.29-21.3,42.39-21.3,42.39s1.87,3.26,0,8.71c0,0,4.94,18.99-2.21,64.37
										c0,0-10.64,2.09-15.38-0.52c0,0-4.04-70.66-2.34-79.86c1.7-9.2,17.72-69.98,17.72-69.98h35.14"/>
								</defs>
								<use xlink:href="#XMLID_8_"  style="overflow:visible;fill:#FFFFFF;"/>
								<clipPath id="XMLID_00000149359493450233069510000010415560706524713869_">
									<use xlink:href="#XMLID_8_"  style="overflow:visible;"/>
								</clipPath>
								<path style="opacity:0.2;clip-path:url(#XMLID_00000149359493450233069510000010415560706524713869_);" d="M426.79,335.99
									c0,0-5.36,2.73-15.63,0c-10.27-2.73-1.75,8.86-5.16,21.47c-3.41,12.61-12.95,18.4-11.42,23.86
									c1.53,5.45,6.07,6.82,7.04,21.47c0.97,14.66-11.88,41.73-6.82,47.28c5.06,5.55,17.33-7.57,17.33-7.57l10.26-69.47
									L426.79,335.99z"/>
								<path style="opacity:0.2;clip-path:url(#XMLID_00000149359493450233069510000010415560706524713869_);" d="M423.43,329.32
									c-1.59,0.92-3.46,1.84-3.98,3.6c4.54,0.29,9.17-1.65,12.14-5.1c1.66-1.93,2.78-4.3,3.27-6.79c0.42-2.12,0.41-5.3-1.66-2.96
									c-1.52,1.71-2.25,4.41-3.81,6.25C427.7,326.31,425.69,328.02,423.43,329.32z"/>
								
									<use xlink:href="#XMLID_8_"  style="overflow:visible;fill:none;stroke:#263238;stroke-linecap:round;stroke-linejoin:round;stroke-miterlimit:10;"/>
							</g>
							<g>
								<path class="st2" d="M396.99,379.79c-4.03-0.61-9.2-1.04-8.99,0.85c0.34,3.07,7.54-0.05,11.93,5.11"/>
								<path class="st2" d="M401.63,380.64c0,0-0.7-0.15-1.79-0.36"/>
							</g>
							<g>
								<g>
									<path class="st19" d="M405.17,212.88c1.08,1.87,3.97,1.21,6.12,1.18c2.12-0.04,4.2-1.03,5.58-2.65
										c0.3-0.35,0.55-0.74,0.74-1.16c-0.86,0.31-1.78,0.46-2.68,0.43c-0.29-0.01-0.58-0.03-0.83-0.17
										c-0.25-0.14-0.44-0.41-0.4-0.69c0.05-0.42,0.53-0.6,0.92-0.71c1.04-0.28,2.09-0.5,3.15-0.68c0.08-0.01,0.23,0.03,0.36,0.09
										c0.04-0.2,0.08-0.4,0.09-0.6c-0.91,0.36-1.91,0.54-2.89,0.51c-0.29-0.01-0.58-0.03-0.83-0.17c-0.25-0.14-0.44-0.41-0.4-0.7
										c0.05-0.41,0.53-0.59,0.92-0.7c1.04-0.28,2.09-0.5,3.15-0.68h0.05c0-0.1-0.01-0.2-0.02-0.31
										c-1.22-0.02-2.19-1.01-2.19-2.22v-1.57c-1.59,0.5-4.79,1.28-5.38,2.14c0.63-2.48,0.7-4.87,0.25-5.65
										c-0.4-0.71-1.14-1.39-1.93-1.22c-1.05,0.24-1.18,1.66-1.07,2.73c0.1,0.9-0.04,1.68-0.19,2.47
										c-0.3,1.59-2.96,3.64-3.61,5.12C403.33,209.4,405.17,212.88,405.17,212.88z"/>
									<path class="st20" d="M412.35,210.12c0.32-1.71-0.21-3.56-1.39-4.85c-0.02,2.34-1.45,4.77-3.41,6.04"/>
									<line class="st20" x1="416.15" y1="204.42" x2="414.1" y2="205.03"/>
								</g>
								<path class="st19" d="M414.11,207.58c-0.04,0.29,0.15,0.56,0.4,0.7c0.25,0.14,0.54,0.16,0.83,0.17
									c0.99,0.02,1.98-0.15,2.89-0.51c0.07-0.02,0.14-0.04,0.21-0.07c0.4-0.16,0.36-0.94,0.4-1.46c-0.12-0.04-0.37-0.5-0.6-0.19
									h-0.05c-1.06,0.17-2.11,0.4-3.15,0.68C414.63,206.99,414.16,207.17,414.11,207.58z"/>
								<path class="st19" d="M413.7,209.83c-0.04,0.28,0.15,0.55,0.4,0.69c0.25,0.14,0.54,0.16,0.83,0.17
									c0.9,0.03,1.82-0.12,2.68-0.43c0.15-0.03,0.29-0.09,0.44-0.15c0.4-0.21,0.49-0.54,0.39-1.46c-0.05-0.02-0.17-0.08-0.29-0.11
									v-0.01c-0.14-0.05-0.29-0.1-0.36-0.09c-1.06,0.17-2.11,0.4-3.15,0.68C414.23,209.23,413.75,209.41,413.7,209.83z"/>
							</g>
							<path class="st3" d="M414.02,195.49l2,0.57v7.61c0,1.21,0.96,2.2,2.19,2.22h4.4l0.38,5.56l14.36-1.46l-1.48-8.76
								c0,0,0.58-0.51,1.48-1.4l-1.48-1.74l5.02-12.07l-10.17-13.44h-6.68l-2.44-3.02c-0.6,0.47-0.75,0.88-0.75,0.88
								s-4.19,8.26-4.8,11.25c-0.27,1.29,0.26,3.95,0,5.23c-0.38,1.8-2.87,6.77-2.87,6.77
								C412.83,194.42,413.24,195.28,414.02,195.49z"/>
							<path class="st20" d="M421.61,196.52c0,0-1.66,2.01-4.31,1.62"/>
							<ellipse class="st9" cx="417.96" cy="186.42" rx="0.58" ry="1.24"/>
							<path class="st20" d="M416.49,182.8c0,0,2.85-0.64,3.93,2.08"/>
							<path class="st8" d="M442.87,212.84c0,0-0.05-6.72-11.59-5.68c-14.09,1.27-19.77,8.49-19.77,8.49L442.87,212.84z"/>
							<path class="st4" d="M408.41,214.2c-0.02,0.08-11.48,33.64-11.48,33.64s-4.5,10.93-13.76,4.77
								c-7.22-4.8,19.09-45.55,19.09-45.55S409.35,209.88,408.41,214.2z"/>
							<g>
								<defs>
									<path id="XMLID_1_" d="M381.93,250.82c2.49,6.41,6.62,7,9.92,6.17c2.69-0.68,5.01-2.4,6.64-4.65l1.27-1.75
										c0.07,23.02-1.27,51.61-1.27,51.61s34.39,6.07,51.66-0.75c0,0-0.67-19.28,5-50.25c5.69-31.08,3.14-44.07-34.99-39.57
										c-3.65,0.43-7.99-0.05-11.74,1.52c-1.4,0.17-2.6,0.62-3.24,1.05C404.72,214.5,379.36,244.21,381.93,250.82z"/>
								</defs>
								<use xlink:href="#XMLID_1_"  style="overflow:visible;fill:#757575;"/>
								<clipPath id="XMLID_00000044175673461820309360000000824013887791853461_">
									<use xlink:href="#XMLID_1_"  style="overflow:visible;"/>
								</clipPath>
								<path style="opacity:0.2;clip-path:url(#XMLID_00000044175673461820309360000000824013887791853461_);" d="M401.55,254.03
									c0.49,1.3,1.41,2.64,2.79,2.78c1.56,0.15,2.77-1.28,3.63-2.59c3.87-5.97,6.69-12.74,8.07-19.73
									c0.65-3.3-0.71-3.59-2.71-2.58l-0.16,0.23l-12.34,16.96v0.04C400.74,250.8,400.96,252.45,401.55,254.03z"/>
								<path style="opacity:0.2;clip-path:url(#XMLID_00000044175673461820309360000000824013887791853461_);" d="M412.31,286.55
									c1.75,1.1,3.85,1.5,5.89,1.83c4.93,0.8,9.91,1.34,14.9,1.63c1.44,0.08,2.97,0.17,4.16,0.99c1.19,0.82,1.79,2.67,0.82,3.74
									c1.54-0.37,3.15-0.78,4.33-1.83c1.18-1.05,1.77-2.96,0.85-4.25c-0.99-1.38-3.02-1.35-4.71-1.22
									c-6.93,0.52-13.93,0.28-20.81-0.71c-1.69-0.25-3.3-0.59-4.81-1.41c-1.07-0.58-1.52-1.59-2.83-1.31
									C410.38,285.05,411.36,285.95,412.31,286.55z"/>
								
									<use xlink:href="#XMLID_1_"  style="overflow:visible;fill:none;stroke:#263238;stroke-linecap:round;stroke-linejoin:round;stroke-miterlimit:10;"/>
							</g>
							<g>
								<path class="st26" d="M470.8,268.03c0.49,0.12,1.01,0.26,1.56,0.44"/>
								<path class="st26" d="M463.56,268.47c0,0,1.85-1.32,5.87-0.71"/>
							</g>
							<g>
								<line class="st26" x1="459.51" y1="232.07" x2="456.23" y2="244.77"/>
							</g>
							<line class="st26" x1="449.97" y1="290.49" x2="449.97" y2="299.32"/>
							<path class="st2" d="M434.99,312.69c0,0,1.44,12.67-6.38,17.73"/>
							<g>
								<path class="st2" d="M411.13,292.67c4.16,2.03,10.48,3.96,27.66,2.69"/>
								<path class="st26" d="M406.34,288.62c0,0,0.3,1.03,1.88,2.3"/>
							</g>
						</g>
						<path class="st8" d="M408.5,213.15c0,0-1.5-6.55-6.24-6.1l-2.34,4.26c0,0,2.97-0.35,3.98,2.89L408.5,213.15z"/>
						<path class="st27" d="M424.13,202.07c0.2,2.33-1.85,4.8-4.18,4.66c-3.48-0.21-4.82-2.33-3.02-3.4
							C416.92,203.33,419.59,204.72,424.13,202.07z"/>
						<path class="st27" d="M421.78,175.68c0.58,0.8,1.25,1.51,1.98,2.18c-0.19,1.23,2.68,9.18,2.55,11.14
							c0.89-1.97,2.13-5.18,3.98-5.21c1.33,0.73,1.77,1.37,2.15,2.3c1.15,2.87-5.18,8.34-5.18,8.34l-0.06,5.84
							c0.07,1.8,6.14,1.36,8.66,0.97c1.79-0.29,11.33-9.21,12.81-12.29c1.47-3.07,2.22-6.59,1.48-9.92
							c-0.01-0.03-0.01-0.06-0.02-0.1c-0.77-0.01-1.53-0.12-2.27-0.3c-1.76-0.44-3.47-1.4-4.42-2.95c-1.22-1.97-0.7-3.97,0.6-5.51
							c-4.02-3.16-9.06-5.01-14.16-5.17C423.82,164.81,417.11,169.23,421.78,175.68z"/>
						<g>
							<path class="st28" d="M437.81,171.4c0.94-0.16,1.93,0.01,2.76,0.47"/>
							<path class="st28" d="M438.17,173.79c1.18-0.35,2.43-0.45,3.65-0.3"/>
							<path class="st28" d="M439.04,176.24c1.31-0.42,2.61-0.83,3.92-1.25"/>
							<path class="st28" d="M443.84,176.49c-0.92,1.14-2.22,1.97-3.64,2.33"/>
							<path class="st28" d="M443.95,178.04c0.01,0.62-0.35,1.23-0.89,1.51"/>
							<path class="st28" d="M445.11,179.38c-0.15,0.64-0.54,1.22-1.08,1.6"/>
							<path class="st28" d="M446.72,180.1c-0.24,1.54-1.11,2.97-2.38,3.89c-0.01-0.08-0.02-0.16-0.03-0.25"/>
							<path class="st28" d="M447.97,181.52c-0.1,0.69-0.35,1.36-0.73,1.96"/>
							<path class="st28" d="M449.12,182.85c-0.06,0.12-0.12,0.24-0.18,0.36"/>
						</g>
						<path class="st27" d="M443.44,175.69c0.94,1.54,2.66,2.51,4.42,2.95c0.74,0.18,1.5,0.29,2.27,0.3
							c-0.78-3.36-3.02-6.24-5.69-8.44c-0.13-0.11-0.27-0.21-0.4-0.32C442.74,171.72,442.22,173.72,443.44,175.69z"/>
						<path class="st27" d="M443.44,175.69c0.94,1.54,2.66,2.51,4.42,2.95c0.74,0.18,1.5,0.29,2.27,0.3
							c1.31,0.01,2.62-0.27,3.75-0.9c1.81-1.02,3.1-3.03,2.95-5.1c-0.15-1.99-1.6-3.73-3.37-4.69c-1.53-0.83-3.36-1.16-5.06-0.77
							c-1.6,0.38-3.27,1.37-4.36,2.7C442.74,171.72,442.22,173.72,443.44,175.69z"/>
					</g>
					<path class="st2" d="M419.4,229.65c-3.36,4.84-12.11,10.57-12.11,10.57"/>
					<path class="st2" d="M443.57,292.09c1.1-0.61,0.92-2.4-0.03-3.23c-0.95-0.83-2.31-0.96-3.57-1.05
						c-7.05-0.53-14.11-1.06-21.16-1.59c-1.89-0.14-3.83-0.3-5.54-1.12c-1.71-0.82-3.15-2.49-3.14-4.38
						c0.01-1.57,0.96-2.95,1.89-4.21c4.84-6.59,9.96-12.96,15.36-19.09"/>
				</g>
				<path class="st2" d="M406,213.72c8.09-1.17,8.53,4.77,8.35,8.52"/>
				<path class="st29" d="M400.83,249.1l-0.32,0.46c0.1-0.13,0.21-0.27,0.32-0.42c2.83-3.88,8.37-11.46,12.34-17L400.83,249.1z"/>
			</g>
			<path class="st2" d="M388.69,419.82c0.95,7.6,2.6,15.12,4.92,22.42"/>
			<path class="st2" d="M388.02,412.89c0.09,1.32,0.2,2.65,0.34,3.96"/>
			<path class="st2" d="M431.41,416.42c1.13,9.99,2.96,16.07,7.73,23.83c0.44,0.71,0.92,1.51,0.77,2.33c-0.18,1-1.26,1.64-2.28,1.66
				c-1.02,0.03-3.29,0.38-4.22-0.05"/>
			<path class="st2" d="M430.71,408.78c0.11,1.44,0.22,2.81,0.34,4.11"/>
			<path class="st3" d="M398.14,361.28c0.82,3.16,1.85,6.27,3.1,9.28"/>
			<path class="st3" d="M398.41,323.9c-3.01,10.84-3.38,22.39-1.18,33.42"/>
			<path class="st2" d="M426.7,352.31c3.2,6.76,7.86,12.83,13.6,17.63c1.15,0.96,2.46,2.5,1.61,3.74c-0.46,0.67-1.36,0.85-2.18,0.91
				c-2.09,0.17-4.2,0-6.24-0.5"/>
			<path class="st2" d="M423.79,344.62c0.42,1.46,0.91,2.9,1.46,4.32"/>
		</g>
	</g>
</g>
<g id="Images">
	<g>
		<g id="Images_1_">
			<g>
				<polyline class="st2" points="381.97,118.03 378.84,102.07 350.28,116.29 341.92,120.45 318.52,113.12 318.43,113.09 
					330.45,74.74 397.16,95.66 385.13,134.01 385.1,133.99 382.7,121.76 				"/>
				<g>
					<g>
						<g>
							<line class="st2" x1="348.26" y1="105.97" x2="348.49" y2="107.15"/>
							<polyline class="st2" points="349.11,110.31 350.28,116.29 341.92,120.45 351.69,123.52 351.71,123.62 341.81,120.51 
								318.41,113.17 318.52,113.12 346.9,98.98 347.7,103.1 							"/>
							<polyline class="st2" points="382.7,121.76 385.1,133.99 351.69,123.52 341.92,120.45 350.28,116.29 378.84,102.07 
								381.97,118.03 							"/>
							<polygon class="st2" points="385.11,134.09 351.71,123.62 341.81,120.51 341.92,120.45 351.69,123.52 385.1,133.99 							
								"/>
						</g>
						<path class="st2" d="M365.39,98.15c-0.87,2.79-3.84,4.34-6.63,3.47c-2.79-0.87-4.34-3.84-3.47-6.63
							c0.87-2.79,3.84-4.34,6.63-3.47C364.71,92.39,366.27,95.36,365.39,98.15z"/>
					</g>
					<line class="st2" x1="372.37" y1="109.03" x2="374.86" y2="107.75"/>
					<line class="st2" x1="353.19" y1="118.91" x2="369.88" y2="110.31"/>
					<line class="st2" x1="342.71" y1="103.94" x2="344.41" y2="103.1"/>
					<line class="st2" x1="331.34" y1="109.53" x2="341.02" y2="104.77"/>
				</g>
			</g>
			<g>
				
					<rect x="119.58" y="75.58" transform="matrix(0.983 -0.1838 0.1838 0.983 -16.4923 27.648)" class="st30" width="42.67" height="54.44"/>
				<path class="st2" d="M145.55,90.09c0.73,1.21,1.38,2.79,1.74,4.6c0.1,0.52,0.26,1.16,0.26,1.16s0.63,0.13,0.87,0.66
					c0.18,0.39,0.41,1.12,0.52,1.54c0.14,0.51,0.03,1.07-0.19,1.55c-0.22,0.48-0.55,0.91-0.88,1.32c-0.14,0.17-0.28,0.35-0.47,0.47
					c-0.12,0.08-0.27,0.13-0.41,0.13c-0.21,1.58-0.61,3.11-1.18,4.38l0.29,1.53c1.15,0.11,2.29,0.51,2.55,1.55
					c0.04,0.14,0.09,0.3,0.15,0.46c3.56,0.18,9.15,0.69,9.15,0.69l0.14,0.35c1.07,1.48,1.97,3.06,2.69,4.73
					c0.72,1.66,1.25,3.41,1.59,5.2l1.78,5.22l0.01,0.02l-36.38,6.8l0-0.02l-0.06-4.54l-0.17-0.91c-0.67-3.57-0.53-7.25,0.39-10.76
					c-0.02-0.06-0.03-0.09-0.03-0.09l8.67-4.19c0.05-1.01,0.1-2.02,0.31-2.33c0.19-0.28,0.91-0.73,1.51-1.08l-0.31-1.67
					c-0.84-0.91-1.62-2.03-2.29-3.24c-0.11,0.02-0.22,0.02-0.33,0c-0.22-0.04-0.41-0.16-0.61-0.27c-0.46-0.27-0.92-0.54-1.3-0.91
					c-0.38-0.37-0.68-0.85-0.73-1.38c-0.05-0.43-0.13-1.14,0.03-1.54c0.17-0.43,0.69-0.78,0.7-0.78c0,0-0.09-0.89-0.36-1.82
					c-1.94-6.47,2.97-11.11,7.61-10.32"/>
				<path class="st2" d="M142.83,87.35c0.38,0.22,0.75,0.48,1.11,0.79"/>
			</g>
		</g>
		<g>
			<g>
				<path class="st2" d="M259.52,99.88c-6.28,1.74-15.86,2.94-25.87-2.11c0,0,9.9-12.29,16.38-11.98
					c6.48,0.32,16.28,11.69,16.28,11.69s0.12,0-1.14,0.49"/>
				<path class="st2" d="M262.99,98.83c-0.39,0.14-0.81,0.28-1.26,0.42"/>
				<g>
					<g>
						<path class="st9" d="M233.91,97.97l-0.52-0.4c0.4-0.5,9.84-12.13,16.42-12.13c0.09,0,0.18,0,0.26,0.01
							c6.54,0.32,16.1,11.33,16.5,11.79l-0.54,0.47c-0.1-0.11-9.79-11.28-16.05-11.58c-0.08,0-0.16-0.01-0.23-0.01
							C243.52,86.13,234.01,97.85,233.91,97.97z"/>
					</g>
					<g>
						<g>
							<g>
								<path class="st9" d="M232.69,98.21c-1.33,0-3.02-0.49-3.46-2.38c-0.04-0.18,0.07-0.37,0.26-0.43
									c0.18-0.06,0.37,0.04,0.41,0.22c0.58,2.43,3.58,1.85,3.71,1.82c0.19-0.04,0.36,0.08,0.38,0.27c0.02,0.19-0.11,0.37-0.3,0.41
									C233.41,98.17,233.07,98.21,232.69,98.21z"/>
							</g>
							<g>
								<path class="st9" d="M238.4,92.93c-0.07,0-0.15-0.02-0.2-0.07c-0.1-0.08-2.37-1.97-2.82-3.88
									c-0.04-0.18,0.07-0.37,0.26-0.43c0.18-0.06,0.37,0.04,0.41,0.22c0.41,1.71,2.6,3.53,2.62,3.55
									c0.14,0.12,0.15,0.33,0.02,0.48C238.61,92.88,238.5,92.93,238.4,92.93z"/>
							</g>
							<g>
								<path class="st9" d="M243.86,88.25C243.86,88.25,243.85,88.25,243.86,88.25c-0.2,0-0.33-0.16-0.31-0.35
									c0.05-0.44-0.79-3.32-1.11-4.4c-0.13-0.45-0.23-0.78-0.25-0.87c-0.04-0.18,0.08-0.37,0.27-0.43
									c0.19-0.06,0.37,0.05,0.41,0.23c0.02,0.08,0.11,0.39,0.23,0.82c0.74,2.52,1.18,4.18,1.13,4.66
									C244.21,88.1,244.04,88.25,243.86,88.25z"/>
							</g>
							<g>
								<path class="st9" d="M250,86.14c-0.18,0-0.31-0.13-0.31-0.31l0-5.53c0-0.19,0.15-0.36,0.34-0.37
									c0.2-0.02,0.34,0.12,0.35,0.31l0,5.53c0,0.19-0.15,0.36-0.34,0.37C250.02,86.14,250.01,86.14,250,86.14z"/>
							</g>
						</g>
						<g>
							<g>
								<path class="st9" d="M267.31,97.83c-0.56,0-0.96-0.08-1-0.09c-0.18-0.04-0.29-0.22-0.23-0.4c0.05-0.19,0.24-0.31,0.43-0.27
									c0.02,0,1.65,0.32,2.74-0.4c0.46-0.31,0.76-0.75,0.91-1.36c0.04-0.19,0.23-0.31,0.42-0.29c0.18,0.03,0.3,0.2,0.25,0.39
									c-0.19,0.79-0.6,1.41-1.23,1.82C268.86,97.72,267.97,97.83,267.31,97.83z"/>
							</g>
							<g>
								<path class="st9" d="M261.6,92.56c-0.09,0-0.19-0.04-0.25-0.12c-0.11-0.14-0.08-0.36,0.07-0.49
									c0.02-0.02,2.19-1.82,2.59-3.51c0.04-0.19,0.23-0.31,0.42-0.29c0.19,0.03,0.3,0.2,0.25,0.39c-0.46,1.94-2.75,3.84-2.85,3.92
									C261.76,92.53,261.68,92.56,261.6,92.56z"/>
							</g>
							<g>
								<path class="st9" d="M256.14,88.57c-0.02,0-0.04,0-0.06,0c-0.18-0.03-0.3-0.21-0.25-0.4c0.01-0.04,1.14-4.46,1.36-5.37
									c0.04-0.19,0.23-0.32,0.42-0.29c0.19,0.03,0.3,0.2,0.25,0.39c-0.22,0.91-1.35,5.33-1.36,5.38
									C256.46,88.45,256.3,88.57,256.14,88.57z"/>
							</g>
						</g>
					</g>
				</g>
				<path class="st18" d="M257.81,93.58c0,4.3-3.49,7.78-7.78,7.78s-7.78-3.49-7.78-7.78c0-4.3,3.49-7.78,7.78-7.78
					C254.33,85.8,257.81,89.28,257.81,93.58z"/>
				<path class="st14" d="M253.25,93.58c0.03-0.17,0.04-0.34,0.04-0.52c0-1.83-1.48-3.31-3.31-3.31c-1.82,0-3.31,1.48-3.31,3.31
					c0,0.18,0.01,0.35,0.05,0.52h-4.47c0-4.3,3.48-7.79,7.79-7.79c4.29,0,7.79,3.48,7.79,7.79H253.25z"/>
				<path class="st9" d="M253.29,93.06c0,0.18-0.01,0.35-0.04,0.52c-0.25,1.58-1.62,2.78-3.27,2.78c-1.64,0-3.01-1.2-3.26-2.78
					c-0.03-0.17-0.05-0.34-0.05-0.52c0-1.83,1.48-3.31,3.31-3.31C251.8,89.75,253.29,91.23,253.29,93.06z"/>
				<path class="st1" d="M255.37,89.82c0,1.49-1.21,2.69-2.69,2.69c-1.49,0-2.69-1.21-2.69-2.69s1.21-2.69,2.69-2.69
					C254.16,87.12,255.37,88.33,255.37,89.82z"/>
			</g>
			<rect x="226.77" y="70.98" class="st2" width="46.45" height="46.45"/>
		</g>
	</g>
</g>
</svg>
