<?xml version="1.0" encoding="UTF-8"?>
<svg xmlns="http://www.w3.org/2000/svg" viewBox="0 0 413.99 442.98">
  <defs>
    <style>
      .cls-1, .cls-2, .cls-3 {
        fill: #fff;
      }

      .cls-4 {
        opacity: .5;
      }

      .cls-5 {
        opacity: .4;
      }

      .cls-5, .cls-6, .cls-7 {
        fill: #92e3a9;
      }

      .cls-8 {
        stroke: #fff;
      }

      .cls-8, .cls-6, .cls-3, .cls-9, .cls-10, .cls-11 {
        stroke-linecap: round;
        stroke-linejoin: round;
      }

      .cls-8, .cls-9, .cls-11 {
        fill: none;
      }

      .cls-2 {
        opacity: .7;
      }

      .cls-6, .cls-3, .cls-9, .cls-10, .cls-11 {
        stroke: #263238;
      }

      .cls-10, .cls-12 {
        fill: #263238;
      }

      .cls-11 {
        stroke-dasharray: 0 0 6.47 6.47;
      }
    </style>
  </defs>
  <g id="Background_Simple" data-name="Background Simple">
    <path class="cls-2" d="M28.68,137.97S.8,209.96,39.97,282.47c39.17,72.52,119.88,110.8,184.47,143.55,64.59,32.75,131.66,16.8,163.53-36.84,31.87-53.64-11.85-91.93-11.9-168.42-.05-76.49,11.45-96.74-29.96-161.36C304.71-5.22,203.06-19.52,126.22,28.41,49.38,76.34,28.68,137.97,28.68,137.97Z"/>
    <g>
      <path class="cls-7" d="M2.46,248.83c-4.38-20.58-3.18-42.34,5.79-64.51,11.55-28.56,36.37-48.85,64.17-60.69,40.41-17.21,80.07-17.53,112.92-51.25,10.13-10.4,18.63-22.31,28.98-32.49,30.52-30.04,75.19-26.39,108.55-2.57,69.59,49.69,94.61,148.1,90.74,229.46-1.74,36.51-19.17,70.49-46.76,94.45-62.4,54.18-168.36,45.07-240.03,16.79C73.38,356.93,15.01,307.73,2.46,248.83Z"/>
      <path class="cls-2" d="M2.46,248.83c-4.38-20.58-3.18-42.34,5.79-64.51,11.55-28.56,36.37-48.85,64.17-60.69,40.41-17.21,80.07-17.53,112.92-51.25,10.13-10.4,18.63-22.31,28.98-32.49,30.52-30.04,75.19-26.39,108.55-2.57,69.59,49.69,94.61,148.1,90.74,229.46-1.74,36.51-19.17,70.49-46.76,94.45-62.4,54.18-168.36,45.07-240.03,16.79C73.38,356.93,15.01,307.73,2.46,248.83Z"/>
    </g>
  </g>
  <g id="Graphics">
    <g>
      <line class="cls-9" x1="211.23" y1="92.36" x2="211.23" y2="98.36"/>
      <line class="cls-11" x1="211.23" y1="104.83" x2="211.23" y2="114.54"/>
      <line class="cls-9" x1="211.23" y1="117.78" x2="211.23" y2="123.78"/>
    </g>
    <g>
      <g>
        <line class="cls-9" x1="306.94" y1="193.89" x2="300.94" y2="193.89"/>
        <line class="cls-11" x1="294.47" y1="193.89" x2="284.76" y2="193.89"/>
        <line class="cls-9" x1="281.53" y1="193.89" x2="275.53" y2="193.89"/>
      </g>
      <g>
        <line class="cls-9" x1="146.94" y1="193.89" x2="140.94" y2="193.89"/>
        <line class="cls-11" x1="134.47" y1="193.89" x2="124.76" y2="193.89"/>
        <line class="cls-9" x1="121.53" y1="193.89" x2="115.53" y2="193.89"/>
      </g>
    </g>
    <g>
      <g>
        <path class="cls-12" d="M376.57,214.23c0-1.06,.56-1.66,1.58-1.66s1.58,.61,1.58,1.66v3.44c0,1.06-.56,1.66-1.58,1.66s-1.58-.61-1.58-1.66v-3.44Zm1.04,3.51c0,.47,.21,.65,.54,.65s.54-.18,.54-.65v-3.57c0-.47-.21-.65-.54-.65s-.54,.18-.54,.65v3.57Z"/>
        <path class="cls-12" d="M377.3,222.93c.8,0,.98-.39,1.14-.83h.7v6.62h-1.04v-5.05h-.8v-.74Z"/>
        <path class="cls-12" d="M376.57,233.15c0-1.06,.56-1.66,1.58-1.66s1.58,.61,1.58,1.66v3.44c0,1.06-.56,1.66-1.58,1.66s-1.58-.61-1.58-1.66v-3.44Zm1.04,3.51c0,.47,.21,.65,.54,.65s.54-.18,.54-.65v-3.57c0-.47-.21-.65-.54-.65s-.54,.18-.54,.65v3.57Z"/>
        <path class="cls-12" d="M377.3,241.85c.8,0,.98-.39,1.14-.83h.7v6.62h-1.04v-5.05h-.8v-.74Z"/>
        <path class="cls-12" d="M376.57,252.07c0-1.06,.56-1.66,1.58-1.66s1.58,.61,1.58,1.66v3.44c0,1.06-.56,1.66-1.58,1.66s-1.58-.61-1.58-1.66v-3.44Zm1.04,3.51c0,.47,.21,.65,.54,.65s.54-.18,.54-.65v-3.57c0-.47-.21-.65-.54-.65s-.54,.18-.54,.65v3.57Z"/>
        <path class="cls-12" d="M377.3,260.77c.8,0,.98-.39,1.14-.83h.7v6.62h-1.04v-5.05h-.8v-.74Z"/>
        <path class="cls-12" d="M376.57,270.98c0-1.06,.56-1.66,1.58-1.66s1.58,.6,1.58,1.66v3.44c0,1.06-.56,1.66-1.58,1.66s-1.58-.61-1.58-1.66v-3.44Zm1.04,3.51c0,.47,.21,.65,.54,.65s.54-.18,.54-.65v-3.57c0-.47-.21-.65-.54-.65s-.54,.18-.54,.65v3.57Z"/>
        <path class="cls-12" d="M376.57,280.44c0-1.06,.56-1.66,1.58-1.66s1.58,.61,1.58,1.66v3.44c0,1.06-.56,1.66-1.58,1.66s-1.58-.6-1.58-1.66v-3.44Zm1.04,3.51c0,.47,.21,.65,.54,.65s.54-.18,.54-.65v-3.57c0-.47-.21-.65-.54-.65s-.54,.18-.54,.65v3.57Z"/>
        <path class="cls-12" d="M376.57,289.9c0-1.06,.56-1.66,1.58-1.66s1.58,.6,1.58,1.66v3.44c0,1.06-.56,1.66-1.58,1.66s-1.58-.61-1.58-1.66v-3.44Zm1.04,3.51c0,.47,.21,.65,.54,.65s.54-.18,.54-.65v-3.57c0-.47-.21-.65-.54-.65s-.54,.18-.54,.65v3.57Z"/>
        <path class="cls-12" d="M377.3,308.07c.8,0,.98-.39,1.14-.83h.7v6.62h-1.04v-5.05h-.8v-.74Z"/>
        <path class="cls-12" d="M377.3,317.52c.8,0,.98-.39,1.14-.83h.7v6.62h-1.04v-5.05h-.8v-.74Z"/>
        <path class="cls-12" d="M377.3,326.98c.8,0,.98-.39,1.14-.83h.7v6.62h-1.04v-5.05h-.8v-.74Z"/>
        <path class="cls-12" d="M376.57,337.2c0-1.06,.56-1.66,1.58-1.66s1.58,.61,1.58,1.66v3.44c0,1.06-.56,1.66-1.58,1.66s-1.58-.61-1.58-1.66v-3.44Zm1.04,3.51c0,.47,.21,.65,.54,.65s.54-.18,.54-.65v-3.57c0-.47-.21-.65-.54-.65s-.54,.18-.54,.65v3.57Z"/>
        <path class="cls-12" d="M376.57,346.66c0-1.06,.56-1.66,1.58-1.66s1.58,.6,1.58,1.66v3.44c0,1.06-.56,1.66-1.58,1.66s-1.58-.61-1.58-1.66v-3.44Zm1.04,3.51c0,.47,.21,.65,.54,.65s.54-.18,.54-.65v-3.57c0-.47-.21-.65-.54-.65s-.54,.18-.54,.65v3.57Z"/>
        <path class="cls-12" d="M377.3,355.36c.8,0,.98-.39,1.14-.83h.7v6.62h-1.04v-5.05h-.8v-.74Z"/>
      </g>
      <g>
        <path class="cls-12" d="M382.93,204.01c.8,0,.98-.39,1.14-.83h.7v6.62h-1.04v-5.05h-.8v-.74Z"/>
        <path class="cls-12" d="M382.93,213.47c.8,0,.98-.39,1.14-.83h.7v6.62h-1.04v-5.05h-.8v-.74Z"/>
        <path class="cls-12" d="M382.2,233.15c0-1.06,.56-1.66,1.58-1.66s1.58,.61,1.58,1.66v3.44c0,1.06-.56,1.66-1.58,1.66s-1.58-.61-1.58-1.66v-3.44Zm1.04,3.51c0,.47,.21,.65,.54,.65s.54-.18,.54-.65v-3.57c0-.47-.21-.65-.54-.65s-.54,.18-.54,.65v3.57Z"/>
        <path class="cls-12" d="M382.93,260.77c.8,0,.98-.39,1.14-.83h.7v6.62h-1.04v-5.05h-.8v-.74Z"/>
        <path class="cls-12" d="M382.2,270.98c0-1.06,.56-1.66,1.58-1.66s1.58,.6,1.58,1.66v3.44c0,1.06-.56,1.66-1.58,1.66s-1.58-.61-1.58-1.66v-3.44Zm1.04,3.51c0,.47,.21,.65,.54,.65s.54-.18,.54-.65v-3.57c0-.47-.21-.65-.54-.65s-.54,.18-.54,.65v3.57Z"/>
        <path class="cls-12" d="M382.93,279.69c.8,0,.98-.39,1.14-.83h.7v6.62h-1.04v-5.05h-.8v-.74Z"/>
        <path class="cls-12" d="M382.93,289.15c.8,0,.98-.39,1.14-.83h.7v6.62h-1.04v-5.05h-.8v-.74Z"/>
        <path class="cls-12" d="M382.93,298.61c.8,0,.98-.39,1.14-.83h.7v6.62h-1.04v-5.05h-.8v-.74Z"/>
        <path class="cls-12" d="M382.2,308.82c0-1.06,.56-1.66,1.58-1.66s1.58,.6,1.58,1.66v3.44c0,1.06-.56,1.66-1.58,1.66s-1.58-.61-1.58-1.66v-3.44Zm1.04,3.51c0,.47,.21,.65,.54,.65s.54-.18,.54-.65v-3.57c0-.47-.21-.65-.54-.65s-.54,.18-.54,.65v3.57Z"/>
        <path class="cls-12" d="M382.2,318.28c0-1.06,.56-1.66,1.58-1.66s1.58,.61,1.58,1.66v3.44c0,1.06-.56,1.66-1.58,1.66s-1.58-.6-1.58-1.66v-3.44Zm1.04,3.51c0,.47,.21,.65,.54,.65s.54-.18,.54-.65v-3.57c0-.47-.21-.65-.54-.65s-.54,.18-.54,.65v3.57Z"/>
      </g>
      <g>
        <path class="cls-12" d="M371.68,260.77c.8,0,.98-.39,1.14-.83h.7v6.62h-1.04v-5.05h-.8v-.74Z"/>
        <path class="cls-12" d="M370.95,270.98c0-1.06,.56-1.66,1.58-1.66s1.58,.6,1.58,1.66v3.44c0,1.06-.56,1.66-1.58,1.66s-1.58-.61-1.58-1.66v-3.44Zm1.04,3.51c0,.47,.21,.65,.54,.65s.54-.18,.54-.65v-3.57c0-.47-.21-.65-.54-.65s-.54,.18-.54,.65v3.57Z"/>
        <path class="cls-12" d="M370.95,280.44c0-1.06,.56-1.66,1.58-1.66s1.58,.61,1.58,1.66v3.44c0,1.06-.56,1.66-1.58,1.66s-1.58-.6-1.58-1.66v-3.44Zm1.04,3.51c0,.47,.21,.65,.54,.65s.54-.18,.54-.65v-3.57c0-.47-.21-.65-.54-.65s-.54,.18-.54,.65v3.57Z"/>
        <path class="cls-12" d="M371.68,289.15c.8,0,.98-.39,1.14-.83h.7v6.62h-1.04v-5.05h-.8v-.74Z"/>
        <path class="cls-12" d="M371.68,308.07c.8,0,.98-.39,1.14-.83h.7v6.62h-1.04v-5.05h-.8v-.74Z"/>
        <path class="cls-12" d="M371.68,317.52c.8,0,.98-.39,1.14-.83h.7v6.62h-1.04v-5.05h-.8v-.74Z"/>
        <path class="cls-12" d="M371.68,326.98c.8,0,.98-.39,1.14-.83h.7v6.62h-1.04v-5.05h-.8v-.74Z"/>
      </g>
      <g>
        <path class="cls-12" d="M365.33,233.15c0-1.06,.56-1.66,1.58-1.66s1.58,.61,1.58,1.66v3.44c0,1.06-.56,1.66-1.58,1.66s-1.58-.61-1.58-1.66v-3.44Zm1.04,3.51c0,.47,.21,.65,.54,.65s.54-.18,.54-.65v-3.57c0-.47-.21-.65-.54-.65s-.54,.18-.54,.65v3.57Z"/>
        <path class="cls-12" d="M365.33,252.07c0-1.06,.56-1.66,1.58-1.66s1.58,.61,1.58,1.66v3.44c0,1.06-.56,1.66-1.58,1.66s-1.58-.61-1.58-1.66v-3.44Zm1.04,3.51c0,.47,.21,.65,.54,.65s.54-.18,.54-.65v-3.57c0-.47-.21-.65-.54-.65s-.54,.18-.54,.65v3.57Z"/>
        <path class="cls-12" d="M366.06,279.69c.8,0,.98-.39,1.14-.83h.7v6.62h-1.04v-5.05h-.8v-.74Z"/>
        <path class="cls-12" d="M366.06,289.15c.8,0,.98-.39,1.14-.83h.7v6.62h-1.04v-5.05h-.8v-.74Z"/>
        <path class="cls-12" d="M366.06,317.52c.8,0,.98-.39,1.14-.83h.7v6.62h-1.04v-5.05h-.8v-.74Z"/>
        <path class="cls-12" d="M365.33,327.74c0-1.06,.56-1.66,1.58-1.66s1.58,.6,1.58,1.66v3.44c0,1.06-.56,1.66-1.58,1.66s-1.58-.61-1.58-1.66v-3.44Zm1.04,3.51c0,.47,.21,.65,.54,.65s.54-.18,.54-.65v-3.57c0-.47-.21-.65-.54-.65s-.54,.18-.54,.65v3.57Z"/>
        <path class="cls-12" d="M366.06,336.44c.8,0,.98-.39,1.14-.83h.7v6.62h-1.04v-5.05h-.8v-.74Z"/>
      </g>
    </g>
    <g>
      <g>
        <path class="cls-12" d="M132.47,243.24c0-1.06,.56-1.66,1.58-1.66s1.58,.61,1.58,1.66v3.44c0,1.06-.56,1.66-1.58,1.66s-1.58-.6-1.58-1.66v-3.44Zm1.04,3.51c0,.47,.21,.65,.54,.65s.54-.18,.54-.65v-3.57c0-.47-.21-.65-.54-.65s-.54,.18-.54,.65v3.57Z"/>
        <path class="cls-12" d="M132.47,252.7c0-1.06,.56-1.66,1.58-1.66s1.58,.6,1.58,1.66v3.44c0,1.06-.56,1.66-1.58,1.66s-1.58-.61-1.58-1.66v-3.44Zm1.04,3.51c0,.47,.21,.65,.54,.65s.54-.18,.54-.65v-3.57c0-.47-.21-.65-.54-.65s-.54,.18-.54,.65v3.57Z"/>
        <path class="cls-12" d="M133.19,261.41c.8,0,.98-.39,1.14-.83h.7v6.62h-1.04v-5.05h-.8v-.74Z"/>
        <path class="cls-12" d="M132.47,271.62c0-1.06,.56-1.66,1.58-1.66s1.58,.6,1.58,1.66v3.44c0,1.06-.56,1.66-1.58,1.66s-1.58-.61-1.58-1.66v-3.44Zm1.04,3.51c0,.47,.21,.65,.54,.65s.54-.18,.54-.65v-3.57c0-.47-.21-.65-.54-.65s-.54,.18-.54,.65v3.57Z"/>
        <path class="cls-12" d="M133.19,280.32c.8,0,.98-.39,1.14-.83h.7v6.62h-1.04v-5.05h-.8v-.74Z"/>
        <path class="cls-12" d="M132.47,290.54c0-1.06,.56-1.66,1.58-1.66s1.58,.6,1.58,1.66v3.44c0,1.06-.56,1.66-1.58,1.66s-1.58-.61-1.58-1.66v-3.44Zm1.04,3.51c0,.47,.21,.65,.54,.65s.54-.18,.54-.65v-3.57c0-.47-.21-.65-.54-.65s-.54,.18-.54,.65v3.57Z"/>
        <path class="cls-12" d="M133.19,299.24c.8,0,.98-.39,1.14-.83h.7v6.62h-1.04v-5.05h-.8v-.74Z"/>
        <path class="cls-12" d="M132.47,309.46c0-1.06,.56-1.66,1.58-1.66s1.58,.61,1.58,1.66v3.44c0,1.06-.56,1.66-1.58,1.66s-1.58-.61-1.58-1.66v-3.44Zm1.04,3.51c0,.47,.21,.65,.54,.65s.54-.18,.54-.65v-3.57c0-.47-.21-.65-.54-.65s-.54,.18-.54,.65v3.57Z"/>
        <path class="cls-12" d="M132.47,318.92c0-1.06,.56-1.66,1.58-1.66s1.58,.61,1.58,1.66v3.44c0,1.06-.56,1.66-1.58,1.66s-1.58-.6-1.58-1.66v-3.44Zm1.04,3.51c0,.47,.21,.65,.54,.65s.54-.18,.54-.65v-3.57c0-.47-.21-.65-.54-.65s-.54,.18-.54,.65v3.57Z"/>
        <path class="cls-12" d="M132.47,328.38c0-1.06,.56-1.66,1.58-1.66s1.58,.61,1.58,1.66v3.44c0,1.06-.56,1.66-1.58,1.66s-1.58-.61-1.58-1.66v-3.44Zm1.04,3.51c0,.47,.21,.65,.54,.65s.54-.18,.54-.65v-3.57c0-.47-.21-.65-.54-.65s-.54,.18-.54,.65v3.57Z"/>
        <path class="cls-12" d="M133.19,337.08c.8,0,.98-.39,1.14-.83h.7v6.62h-1.04v-5.05h-.8v-.74Z"/>
        <path class="cls-12" d="M133.19,346.54c.8,0,.98-.39,1.14-.83h.7v6.62h-1.04v-5.05h-.8v-.74Z"/>
        <path class="cls-12" d="M133.19,356c.8,0,.98-.39,1.14-.83h.7v6.62h-1.04v-5.05h-.8v-.74Z"/>
        <path class="cls-12" d="M133.19,365.46c.8,0,.98-.39,1.14-.83h.7v6.62h-1.04v-5.05h-.8v-.74Z"/>
        <path class="cls-12" d="M133.51,379.18c0,.47,.21,.65,.54,.65s.54-.18,.54-.65v-3.57c0-.47-.21-.65-.54-.65s-.54,.18-.54,.65v3.57Z"/>
      </g>
      <g>
        <path class="cls-12" d="M138.82,280.32c.8,0,.98-.39,1.14-.83h.7v6.62h-1.04v-5.05h-.8v-.74Z"/>
        <path class="cls-12" d="M138.82,289.78c.8,0,.98-.39,1.14-.83h.7v6.62h-1.04v-5.05h-.8v-.74Z"/>
        <path class="cls-12" d="M138.09,309.46c0-1.06,.56-1.66,1.58-1.66s1.58,.61,1.58,1.66v3.44c0,1.06-.56,1.66-1.58,1.66s-1.58-.61-1.58-1.66v-3.44Zm1.04,3.51c0,.47,.21,.65,.54,.65s.54-.18,.54-.65v-3.57c0-.47-.21-.65-.54-.65s-.54,.18-.54,.65v3.57Z"/>
        <path class="cls-12" d="M138.82,318.16c.8,0,.98-.39,1.14-.83h.7v6.62h-1.04v-5.05h-.8v-.74Z"/>
        <path class="cls-12" d="M138.09,328.38c0-1.06,.56-1.66,1.58-1.66s1.58,.61,1.58,1.66v3.44c0,1.06-.56,1.66-1.58,1.66s-1.58-.61-1.58-1.66v-3.44Zm1.04,3.51c0,.47,.21,.65,.54,.65s.54-.18,.54-.65v-3.57c0-.47-.21-.65-.54-.65s-.54,.18-.54,.65v3.57Z"/>
        <path class="cls-12" d="M139.13,350.8c0,.47,.21,.65,.54,.65s.54-.18,.54-.65v-3.57c0-.47-.21-.65-.54-.65s-.54,.18-.54,.65v3.57Z"/>
        <path class="cls-12" d="M138.82,356c.8,0,.98-.39,1.14-.83h.7v6.62h-1.04v-5.05h-.8v-.74Z"/>
        <path class="cls-12" d="M138.82,365.46c.8,0,.98-.39,1.14-.83h.7v6.62h-1.04v-5.05h-.8v-.74Z"/>
        <path class="cls-12" d="M138.09,394.59c0-1.06,.56-1.66,1.58-1.66s1.58,.6,1.58,1.66v3.44c0,1.06-.56,1.66-1.58,1.66s-1.58-.61-1.58-1.66v-3.44Zm1.04,3.51c0,.47,.21,.65,.54,.65s.54-.18,.54-.65v-3.57c0-.47-.21-.65-.54-.65s-.54,.18-.54,.65v3.57Z"/>
      </g>
      <g>
        <path class="cls-12" d="M126.84,271.62c0-1.06,.56-1.66,1.58-1.66s1.58,.6,1.58,1.66v3.44c0,1.06-.56,1.66-1.58,1.66s-1.58-.61-1.58-1.66v-3.44Zm1.04,3.51c0,.47,.21,.65,.54,.65s.54-.18,.54-.65v-3.57c0-.47-.21-.65-.54-.65s-.54,.18-.54,.65v3.57Z"/>
        <path class="cls-12" d="M127.57,280.32c.8,0,.98-.39,1.14-.83h.7v6.62h-1.04v-5.05h-.8v-.74Z"/>
        <path class="cls-12" d="M127.57,289.78c.8,0,.98-.39,1.14-.83h.7v6.62h-1.04v-5.05h-.8v-.74Z"/>
        <path class="cls-12" d="M126.84,300c0-1.06,.56-1.66,1.58-1.66s1.58,.61,1.58,1.66v3.44c0,1.06-.56,1.66-1.58,1.66s-1.58-.61-1.58-1.66v-3.44Zm1.04,3.51c0,.47,.21,.65,.54,.65s.54-.18,.54-.65v-3.57c0-.47-.21-.65-.54-.65s-.54,.18-.54,.65v3.57Z"/>
        <path class="cls-12" d="M126.84,318.92c0-1.06,.56-1.66,1.58-1.66s1.58,.61,1.58,1.66v3.44c0,1.06-.56,1.66-1.58,1.66s-1.58-.6-1.58-1.66v-3.44Zm1.04,3.51c0,.47,.21,.65,.54,.65s.54-.18,.54-.65v-3.57c0-.47-.21-.65-.54-.65s-.54,.18-.54,.65v3.57Z"/>
        <path class="cls-12" d="M126.84,328.38c0-1.06,.56-1.66,1.58-1.66s1.58,.61,1.58,1.66v3.44c0,1.06-.56,1.66-1.58,1.66s-1.58-.61-1.58-1.66v-3.44Zm1.04,3.51c0,.47,.21,.65,.54,.65s.54-.18,.54-.65v-3.57c0-.47-.21-.65-.54-.65s-.54,.18-.54,.65v3.57Z"/>
        <path class="cls-12" d="M127.57,337.08c.8,0,.98-.39,1.14-.83h.7v6.62h-1.04v-5.05h-.8v-.74Z"/>
        <path class="cls-12" d="M126.84,347.3c0-1.06,.56-1.66,1.58-1.66s1.58,.61,1.58,1.66v3.44c0,1.06-.56,1.66-1.58,1.66s-1.58-.61-1.58-1.66v-3.44Zm1.04,3.51c0,.47,.21,.65,.54,.65s.54-.18,.54-.65v-3.57c0-.47-.21-.65-.54-.65s-.54,.18-.54,.65v3.57Z"/>
        <path class="cls-12" d="M127.57,356c.8,0,.98-.39,1.14-.83h.7v6.62h-1.04v-5.05h-.8v-.74Z"/>
      </g>
      <g>
        <path class="cls-12" d="M121.22,252.7c0-1.06,.56-1.66,1.58-1.66s1.58,.61,1.58,1.66v3.44c0,1.06-.56,1.66-1.58,1.66s-1.58-.6-1.58-1.66v-3.44Zm1.04,3.51c0,.47,.21,.65,.54,.65s.54-.18,.54-.65v-3.57c0-.47-.21-.65-.54-.65s-.54,.18-.54,.65v3.57Z"/>
        <path class="cls-12" d="M121.95,270.87c.8,0,.98-.39,1.14-.83h.7v6.62h-1.04v-5.05h-.8v-.74Z"/>
        <path class="cls-12" d="M121.95,289.78c.8,0,.98-.39,1.14-.83h.7v6.62h-1.04v-5.05h-.8v-.74Z"/>
        <path class="cls-12" d="M121.22,300c0-1.06,.56-1.66,1.58-1.66s1.58,.61,1.58,1.66v3.44c0,1.06-.56,1.66-1.58,1.66s-1.58-.6-1.58-1.66v-3.44Zm1.04,3.51c0,.47,.21,.65,.54,.65s.54-.18,.54-.65v-3.57c0-.47-.21-.65-.54-.65s-.54,.18-.54,.65v3.57Z"/>
        <path class="cls-12" d="M121.95,327.62c.8,0,.98-.39,1.14-.83h.7v6.62h-1.04v-5.05h-.8v-.74Z"/>
        <path class="cls-12" d="M121.95,337.08c.8,0,.98-.39,1.14-.83h.7v6.62h-1.04v-5.05h-.8v-.74Z"/>
        <path class="cls-12" d="M121.95,346.54c.8,0,.98-.39,1.14-.83h.7v6.62h-1.04v-5.05h-.8v-.74Z"/>
      </g>
    </g>
    <g>
      <g>
        <path class="cls-12" d="M298.09,25.2c0-1.06,.56-1.66,1.58-1.66s1.58,.6,1.58,1.66v3.44c0,1.06-.56,1.66-1.58,1.66s-1.58-.61-1.58-1.66v-3.44Zm1.04,3.51c0,.47,.21,.65,.54,.65s.54-.18,.54-.65v-3.57c0-.47-.21-.65-.54-.65s-.54,.18-.54,.65v3.57Z"/>
        <path class="cls-12" d="M298.09,34.66c0-1.06,.56-1.66,1.58-1.66s1.58,.61,1.58,1.66v3.44c0,1.06-.56,1.66-1.58,1.66s-1.58-.61-1.58-1.66v-3.44Zm1.04,3.51c0,.47,.21,.65,.54,.65s.54-.18,.54-.65v-3.57c0-.47-.21-.65-.54-.65s-.54,.18-.54,.65v3.57Z"/>
        <path class="cls-12" d="M298.82,62.28c.8,0,.98-.39,1.14-.83h.7v6.62h-1.04v-5.05h-.8v-.74Z"/>
        <path class="cls-12" d="M298.82,71.74c.8,0,.98-.39,1.14-.83h.7v6.62h-1.04v-5.05h-.8v-.74Z"/>
        <path class="cls-12" d="M298.09,100.87c0-1.06,.56-1.66,1.58-1.66s1.58,.61,1.58,1.66v3.44c0,1.06-.56,1.66-1.58,1.66s-1.58-.61-1.58-1.66v-3.44Zm1.04,3.51c0,.47,.21,.65,.54,.65s.54-.18,.54-.65v-3.57c0-.47-.21-.65-.54-.65s-.54,.18-.54,.65v3.57Z"/>
        <path class="cls-12" d="M298.09,119.79c0-1.06,.56-1.66,1.58-1.66s1.58,.61,1.58,1.66v3.44c0,1.06-.56,1.66-1.58,1.66s-1.58-.6-1.58-1.66v-3.44Zm1.04,3.51c0,.47,.21,.65,.54,.65s.54-.18,.54-.65v-3.57c0-.47-.21-.65-.54-.65s-.54,.18-.54,.65v3.57Z"/>
      </g>
      <g>
        <path class="cls-12" d="M281.22,44.12c0-1.06,.56-1.66,1.58-1.66s1.58,.61,1.58,1.66v3.44c0,1.06-.56,1.66-1.58,1.66s-1.58-.61-1.58-1.66v-3.44Zm1.04,3.51c0,.47,.21,.65,.54,.65s.54-.18,.54-.65v-3.57c0-.47-.21-.65-.54-.65s-.54,.18-.54,.65v3.57Z"/>
        <path class="cls-12" d="M281.22,53.58c0-1.06,.56-1.66,1.58-1.66s1.58,.61,1.58,1.66v3.44c0,1.06-.56,1.66-1.58,1.66s-1.58-.61-1.58-1.66v-3.44Zm1.04,3.51c0,.47,.21,.65,.54,.65s.54-.18,.54-.65v-3.57c0-.47-.21-.65-.54-.65s-.54,.18-.54,.65v3.57Z"/>
        <path class="cls-12" d="M281.22,63.03c0-1.06,.56-1.66,1.58-1.66s1.58,.61,1.58,1.66v3.44c0,1.06-.56,1.66-1.58,1.66s-1.58-.6-1.58-1.66v-3.44Zm1.04,3.51c0,.47,.21,.65,.54,.65s.54-.18,.54-.65v-3.57c0-.47-.21-.65-.54-.65s-.54,.18-.54,.65v3.57Z"/>
        <path class="cls-12" d="M281.95,71.74c.8,0,.98-.39,1.14-.83h.7v6.62h-1.04v-5.05h-.8v-.74Z"/>
        <path class="cls-12" d="M281.95,90.66c.8,0,.98-.39,1.14-.83h.7v6.62h-1.04v-5.05h-.8v-.74Z"/>
        <path class="cls-12" d="M281.95,100.12c.8,0,.98-.39,1.14-.83h.7v6.62h-1.04v-5.05h-.8v-.74Z"/>
        <path class="cls-12" d="M281.22,119.79c0-1.06,.56-1.66,1.58-1.66s1.58,.61,1.58,1.66v3.44c0,1.06-.56,1.66-1.58,1.66s-1.58-.6-1.58-1.66v-3.44Zm1.04,3.51c0,.47,.21,.65,.54,.65s.54-.18,.54-.65v-3.57c0-.47-.21-.65-.54-.65s-.54,.18-.54,.65v3.57Z"/>
        <path class="cls-12" d="M281.95,128.49c.8,0,.98-.39,1.14-.83h.7v6.62h-1.04v-5.05h-.8v-.74Z"/>
      </g>
      <g>
        <path class="cls-12" d="M292.47,25.2c0-1.06,.56-1.66,1.58-1.66s1.58,.6,1.58,1.66v3.44c0,1.06-.56,1.66-1.58,1.66s-1.58-.61-1.58-1.66v-3.44Zm1.04,3.51c0,.47,.21,.65,.54,.65s.54-.18,.54-.65v-3.57c0-.47-.21-.65-.54-.65s-.54,.18-.54,.65v3.57Z"/>
        <path class="cls-12" d="M293.19,33.9c.8,0,.98-.39,1.14-.83h.7v6.62h-1.04v-5.05h-.8v-.74Z"/>
        <path class="cls-12" d="M292.47,44.12c0-1.06,.56-1.66,1.58-1.66s1.58,.61,1.58,1.66v3.44c0,1.06-.56,1.66-1.58,1.66s-1.58-.61-1.58-1.66v-3.44Zm1.04,3.51c0,.47,.21,.65,.54,.65s.54-.18,.54-.65v-3.57c0-.47-.21-.65-.54-.65s-.54,.18-.54,.65v3.57Z"/>
        <path class="cls-12" d="M293.19,52.82c.8,0,.98-.39,1.14-.83h.7v6.62h-1.04v-5.05h-.8v-.74Z"/>
        <path class="cls-12" d="M293.19,62.28c.8,0,.98-.39,1.14-.83h.7v6.62h-1.04v-5.05h-.8v-.74Z"/>
        <path class="cls-12" d="M293.19,71.74c.8,0,.98-.39,1.14-.83h.7v6.62h-1.04v-5.05h-.8v-.74Z"/>
        <path class="cls-12" d="M292.47,81.95c0-1.06,.56-1.66,1.58-1.66s1.58,.61,1.58,1.66v3.44c0,1.06-.56,1.66-1.58,1.66s-1.58-.61-1.58-1.66v-3.44Zm1.04,3.51c0,.47,.21,.65,.54,.65s.54-.18,.54-.65v-3.57c0-.47-.21-.65-.54-.65s-.54,.18-.54,.65v3.57Z"/>
        <path class="cls-12" d="M292.47,91.41c0-1.06,.56-1.66,1.58-1.66s1.58,.6,1.58,1.66v3.44c0,1.06-.56,1.66-1.58,1.66s-1.58-.61-1.58-1.66v-3.44Zm1.04,3.51c0,.47,.21,.65,.54,.65s.54-.18,.54-.65v-3.57c0-.47-.21-.65-.54-.65s-.54,.18-.54,.65v3.57Z"/>
      </g>
      <g>
        <path class="cls-12" d="M287.57,33.9c.8,0,.98-.39,1.14-.83h.7v6.62h-1.04v-5.05h-.8v-.74Z"/>
        <path class="cls-12" d="M286.84,44.12c0-1.06,.56-1.66,1.58-1.66s1.58,.61,1.58,1.66v3.44c0,1.06-.56,1.66-1.58,1.66s-1.58-.61-1.58-1.66v-3.44Zm1.04,3.51c0,.47,.21,.65,.54,.65s.54-.18,.54-.65v-3.57c0-.47-.21-.65-.54-.65s-.54,.18-.54,.65v3.57Z"/>
        <path class="cls-12" d="M286.84,53.58c0-1.06,.56-1.66,1.58-1.66s1.58,.61,1.58,1.66v3.44c0,1.06-.56,1.66-1.58,1.66s-1.58-.61-1.58-1.66v-3.44Zm1.04,3.51c0,.47,.21,.65,.54,.65s.54-.18,.54-.65v-3.57c0-.47-.21-.65-.54-.65s-.54,.18-.54,.65v3.57Z"/>
        <path class="cls-12" d="M287.57,62.28c.8,0,.98-.39,1.14-.83h.7v6.62h-1.04v-5.05h-.8v-.74Z"/>
        <path class="cls-12" d="M287.57,81.2c.8,0,.98-.39,1.14-.83h.7v6.62h-1.04v-5.05h-.8v-.74Z"/>
        <path class="cls-12" d="M287.57,90.66c.8,0,.98-.39,1.14-.83h.7v6.62h-1.04v-5.05h-.8v-.74Z"/>
        <path class="cls-12" d="M287.57,100.12c.8,0,.98-.39,1.14-.83h.7v6.62h-1.04v-5.05h-.8v-.74Z"/>
      </g>
    </g>
    <g>
      <g>
        <path class="cls-12" d="M33.35,129.94c0-1.06,.56-1.66,1.58-1.66s1.58,.61,1.58,1.66v3.44c0,1.06-.56,1.66-1.58,1.66s-1.58-.61-1.58-1.66v-3.44Zm1.04,3.51c0,.47,.21,.65,.54,.65s.54-.18,.54-.65v-3.57c0-.47-.21-.65-.54-.65s-.54,.18-.54,.65v3.57Z"/>
        <path class="cls-12" d="M33.35,139.4c0-1.06,.56-1.66,1.58-1.66s1.58,.61,1.58,1.66v3.44c0,1.06-.56,1.66-1.58,1.66s-1.58-.6-1.58-1.66v-3.44Zm1.04,3.51c0,.47,.21,.65,.54,.65s.54-.18,.54-.65v-3.57c0-.47-.21-.65-.54-.65s-.54,.18-.54,.65v3.57Z"/>
        <path class="cls-12" d="M34.08,148.1c.8,0,.98-.39,1.14-.83h.7v6.62h-1.04v-5.05h-.8v-.74Z"/>
        <path class="cls-12" d="M33.35,158.31c0-1.06,.56-1.66,1.58-1.66s1.58,.61,1.58,1.66v3.44c0,1.06-.56,1.66-1.58,1.66s-1.58-.61-1.58-1.66v-3.44Zm1.04,3.51c0,.47,.21,.65,.54,.65s.54-.18,.54-.65v-3.57c0-.47-.21-.65-.54-.65s-.54,.18-.54,.65v3.57Z"/>
        <path class="cls-12" d="M34.08,167.02c.8,0,.98-.39,1.14-.83h.7v6.62h-1.04v-5.05h-.8v-.74Z"/>
        <path class="cls-12" d="M33.35,177.23c0-1.06,.56-1.66,1.58-1.66s1.58,.61,1.58,1.66v3.44c0,1.06-.56,1.66-1.58,1.66s-1.58-.61-1.58-1.66v-3.44Zm1.04,3.51c0,.47,.21,.65,.54,.65s.54-.18,.54-.65v-3.57c0-.47-.21-.65-.54-.65s-.54,.18-.54,.65v3.57Z"/>
        <path class="cls-12" d="M34.08,185.94c.8,0,.98-.39,1.14-.83h.7v6.62h-1.04v-5.05h-.8v-.74Z"/>
        <path class="cls-12" d="M33.35,196.15c0-1.06,.56-1.66,1.58-1.66s1.58,.61,1.58,1.66v3.44c0,1.06-.56,1.66-1.58,1.66s-1.58-.6-1.58-1.66v-3.44Zm1.04,3.51c0,.47,.21,.65,.54,.65s.54-.18,.54-.65v-3.57c0-.47-.21-.65-.54-.65s-.54,.18-.54,.65v3.57Z"/>
        <path class="cls-12" d="M33.35,205.61c0-1.06,.56-1.66,1.58-1.66s1.58,.61,1.58,1.66v3.44c0,1.06-.56,1.66-1.58,1.66s-1.58-.61-1.58-1.66v-3.44Zm1.04,3.51c0,.47,.21,.65,.54,.65s.54-.18,.54-.65v-3.57c0-.47-.21-.65-.54-.65s-.54,.18-.54,.65v3.57Z"/>
        <path class="cls-12" d="M33.35,215.07c0-1.06,.56-1.66,1.58-1.66s1.58,.61,1.58,1.66v3.44c0,1.06-.56,1.66-1.58,1.66s-1.58-.6-1.58-1.66v-3.44Zm1.04,3.51c0,.47,.21,.65,.54,.65s.54-.18,.54-.65v-3.57c0-.47-.21-.65-.54-.65s-.54,.18-.54,.65v3.57Z"/>
        <path class="cls-12" d="M34.08,233.23c.8,0,.98-.39,1.14-.83h.7v6.62h-1.04v-5.05h-.8v-.74Z"/>
      </g>
      <g>
        <path class="cls-12" d="M39.71,167.02c.8,0,.98-.39,1.14-.83h.7v6.62h-1.04v-5.05h-.8v-.74Z"/>
        <path class="cls-12" d="M39.71,176.48c.8,0,.98-.39,1.14-.83h.7v6.62h-1.04v-5.05h-.8v-.74Z"/>
        <path class="cls-12" d="M38.98,186.69c0-1.06,.56-1.66,1.58-1.66s1.58,.61,1.58,1.66v3.44c0,1.06-.56,1.66-1.58,1.66s-1.58-.61-1.58-1.66v-3.44Zm1.04,3.51c0,.47,.21,.65,.54,.65s.54-.18,.54-.65v-3.57c0-.47-.21-.65-.54-.65s-.54,.18-.54,.65v3.57Z"/>
        <path class="cls-12" d="M38.98,196.15c0-1.06,.56-1.66,1.58-1.66s1.58,.61,1.58,1.66v3.44c0,1.06-.56,1.66-1.58,1.66s-1.58-.6-1.58-1.66v-3.44Zm1.04,3.51c0,.47,.21,.65,.54,.65s.54-.18,.54-.65v-3.57c0-.47-.21-.65-.54-.65s-.54,.18-.54,.65v3.57Z"/>
        <path class="cls-12" d="M39.71,204.85c.8,0,.98-.39,1.14-.83h.7v6.62h-1.04v-5.05h-.8v-.74Z"/>
        <path class="cls-12" d="M39.71,223.77c.8,0,.98-.39,1.14-.83h.7v6.62h-1.04v-5.05h-.8v-.74Z"/>
      </g>
      <g>
        <path class="cls-12" d="M27.73,158.31c0-1.06,.56-1.66,1.58-1.66s1.58,.61,1.58,1.66v3.44c0,1.06-.56,1.66-1.58,1.66s-1.58-.61-1.58-1.66v-3.44Zm1.04,3.51c0,.47,.21,.65,.54,.65s.54-.18,.54-.65v-3.57c0-.47-.21-.65-.54-.65s-.54,.18-.54,.65v3.57Z"/>
        <path class="cls-12" d="M28.46,167.02c.8,0,.98-.39,1.14-.83h.7v6.62h-1.04v-5.05h-.8v-.74Z"/>
        <path class="cls-12" d="M28.46,176.48c.8,0,.98-.39,1.14-.83h.7v6.62h-1.04v-5.05h-.8v-.74Z"/>
        <path class="cls-12" d="M27.73,186.69c0-1.06,.56-1.66,1.58-1.66s1.58,.61,1.58,1.66v3.44c0,1.06-.56,1.66-1.58,1.66s-1.58-.61-1.58-1.66v-3.44Zm1.04,3.51c0,.47,.21,.65,.54,.65s.54-.18,.54-.65v-3.57c0-.47-.21-.65-.54-.65s-.54,.18-.54,.65v3.57Z"/>
        <path class="cls-12" d="M28.46,195.4c.8,0,.98-.39,1.14-.83h.7v6.62h-1.04v-5.05h-.8v-.74Z"/>
        <path class="cls-12" d="M27.73,205.61c0-1.06,.56-1.66,1.58-1.66s1.58,.61,1.58,1.66v3.44c0,1.06-.56,1.66-1.58,1.66s-1.58-.61-1.58-1.66v-3.44Zm1.04,3.51c0,.47,.21,.65,.54,.65s.54-.18,.54-.65v-3.57c0-.47-.21-.65-.54-.65s-.54,.18-.54,.65v3.57Z"/>
      </g>
      <g>
        <path class="cls-12" d="M22.11,139.4c0-1.06,.56-1.66,1.58-1.66s1.58,.61,1.58,1.66v3.44c0,1.06-.56,1.66-1.58,1.66s-1.58-.61-1.58-1.66v-3.44Zm1.04,3.51c0,.47,.21,.65,.54,.65s.54-.18,.54-.65v-3.57c0-.47-.21-.65-.54-.65s-.54,.18-.54,.65v3.57Z"/>
        <path class="cls-12" d="M22.83,157.56c.8,0,.98-.39,1.14-.83h.7v6.62h-1.04v-5.05h-.8v-.74Z"/>
        <path class="cls-12" d="M22.11,167.77c0-1.06,.56-1.66,1.58-1.66s1.58,.61,1.58,1.66v3.44c0,1.06-.56,1.66-1.58,1.66s-1.58-.6-1.58-1.66v-3.44Zm1.04,3.51c0,.47,.21,.65,.54,.65s.54-.18,.54-.65v-3.57c0-.47-.21-.65-.54-.65s-.54,.18-.54,.65v3.57Z"/>
        <path class="cls-12" d="M22.11,186.69c0-1.06,.56-1.66,1.58-1.66s1.58,.61,1.58,1.66v3.44c0,1.06-.56,1.66-1.58,1.66s-1.58-.61-1.58-1.66v-3.44Zm1.04,3.51c0,.47,.21,.65,.54,.65s.54-.18,.54-.65v-3.57c0-.47-.21-.65-.54-.65s-.54,.18-.54,.65v3.57Z"/>
        <path class="cls-12" d="M22.11,196.15c0-1.06,.56-1.66,1.58-1.66s1.58,.61,1.58,1.66v3.44c0,1.06-.56,1.66-1.58,1.66s-1.58-.61-1.58-1.66v-3.44Zm1.04,3.51c0,.47,.21,.65,.54,.65s.54-.18,.54-.65v-3.57c0-.47-.21-.65-.54-.65s-.54,.18-.54,.65v3.57Z"/>
        <path class="cls-12" d="M22.11,205.61c0-1.06,.56-1.66,1.58-1.66s1.58,.61,1.58,1.66v3.44c0,1.06-.56,1.66-1.58,1.66s-1.58-.61-1.58-1.66v-3.44Zm1.04,3.51c0,.47,.21,.65,.54,.65s.54-.18,.54-.65v-3.57c0-.47-.21-.65-.54-.65s-.54,.18-.54,.65v3.57Z"/>
        <path class="cls-12" d="M22.83,233.23c.8,0,.98-.39,1.14-.83h.7v6.62h-1.04v-5.05h-.8v-.74Z"/>
      </g>
    </g>
  </g>
  <g id="Icon_3" data-name="Icon 3">
    <g>
      <path class="cls-9" d="M339.65,227.51c-29.51-11.95-31.66-53.05-31.66-53.05h6.32v-4.91c14.98,0,25.33-9.3,25.33-9.3h0s10.35,9.3,25.33,9.3v4.91h6.32s-2.15,41.1-31.66,53.05h0Z"/>
      <path class="cls-9" d="M339.66,222.08c-19.34-9.06-24.94-33.02-26.48-43.37h5.78v-5.17c9.47-1.07,16.81-5.18,20.71-7.86,3.9,2.68,11.23,6.79,20.71,7.86v5.17h5.77c-1.56,10.35-7.2,34.34-26.47,43.37Z"/>
      <g>
        <rect class="cls-12" x="328.01" y="188.1" width="23.29" height="14.97" rx="1.35" ry="1.35"/>
        <path class="cls-12" d="M340.07,175.46c-4.8-.24-8.79,3.6-8.79,8.36v.87c0,.32,.26,.59,.59,.59h2.12c.32,0,.59-.26,.59-.59v-.69c0-2.7,2.03-5.07,4.73-5.25,2.96-.2,5.43,2.15,5.43,5.07v.87c0,.32,.26,.59,.59,.59h2.12c.32,0,.59-.26,.59-.59v-.63c0-4.5-3.45-8.38-7.95-8.6Z"/>
        <path class="cls-3" d="M341.84,193.9c0-1.21-.98-2.19-2.19-2.19s-2.19,.98-2.19,2.19c0,.87,.51,1.61,1.24,1.96l-.8,3.52h3.49l-.8-3.52c.73-.35,1.24-1.1,1.24-1.96Z"/>
      </g>
    </g>
  </g>
  <g id="Icon_2" data-name="Icon 2">
    <g>
      <path class="cls-9" d="M175.41,39.21h70.67c1.83,0,3.32,1.49,3.32,3.32v39.51c0,1.83-1.49,3.32-3.32,3.32h-70.67c-1.83,0-3.32-1.49-3.32-3.32V42.53c0-1.83,1.49-3.32,3.32-3.32Z"/>
      <g>
        <rect class="cls-9" x="178.25" y="45.66" width="24.45" height="33.25" rx="1.15" ry="1.15" transform="translate(380.95 124.57) rotate(180)"/>
        <path class="cls-12" d="M190.47,78.91h-11.12c-.61,0-1.1-.49-1.1-1.1v-7.68s6.24-.27,7.29-1.6c1.05-1.33-.11-3.4-.11-3.4-.38-.47-.47-3.8-.47-3.8l-.37-.09c-.37-.09-.86-2.86-.86-3.9s.86-1.42,.86-1.42c0,0-.94-6.74,5.89-6.74s5.89,6.74,5.89,6.74c0,0,.86,.38,.86,1.42s-.49,3.8-.86,3.9l-.37,.09s-.09,3.33-.47,3.8c0,0-1.16,2.08-.11,3.4,1.05,1.33,7.29,1.6,7.29,1.6v7.68c0,.61-.49,1.1-1.1,1.1h-11.12Z"/>
      </g>
      <g>
        <path class="cls-12" d="M241.65,79.07h-15.19c-.64,0-1.16-.52-1.16-1.16h0c0-.64,.52-1.16,1.16-1.16h15.19c.64,0,1.16,.52,1.16,1.16h0c0,.64-.52,1.16-1.16,1.16Z"/>
        <path class="cls-12" d="M241.65,47.82h-31.49c-.64,0-1.16-.52-1.16-1.16h0c0-.64,.52-1.16,1.16-1.16h31.49c.64,0,1.16,.52,1.16,1.16h0c0,.64-.52,1.16-1.16,1.16Z"/>
        <path class="cls-12" d="M228.22,55.63h-18.06c-.64,0-1.16-.52-1.16-1.16h0c0-.64,.52-1.16,1.16-1.16h18.06c.64,0,1.16,.52,1.16,1.16h0c0,.64-.52,1.16-1.16,1.16Z"/>
        <path class="cls-12" d="M222.47,63.44h-12.31c-.64,0-1.16-.52-1.16-1.16h0c0-.64,.52-1.16,1.16-1.16h12.31c.64,0,1.16,.52,1.16,1.16h0c0,.64-.52,1.16-1.16,1.16Z"/>
        <path class="cls-12" d="M228.22,71.25h-18.06c-.64,0-1.16-.52-1.16-1.16h0c0-.64,.52-1.16,1.16-1.16h18.06c.64,0,1.16,.52,1.16,1.16h0c0,.64-.52,1.16-1.16,1.16Z"/>
      </g>
    </g>
  </g>
  <g id="Icon_1" data-name="Icon 1">
    <g>
      <g>
        <polygon class="cls-9" points="99.43 162.1 99.43 206.53 87.48 218.49 55.73 218.49 55.73 162.1 99.43 162.1"/>
        <polygon class="cls-10" points="99.43 206.53 87.48 218.49 87.48 206.53 99.43 206.53"/>
      </g>
      <g>
        <line class="cls-9" x1="66.37" y1="169.29" x2="92.76" y2="169.29"/>
        <line class="cls-9" x1="62.4" y1="174.25" x2="92.76" y2="174.25"/>
        <line class="cls-9" x1="62.4" y1="179.22" x2="92.76" y2="179.22"/>
        <line class="cls-9" x1="62.4" y1="184.18" x2="92.76" y2="184.18"/>
        <line class="cls-9" x1="62.4" y1="189.15" x2="92.76" y2="189.15"/>
        <line class="cls-9" x1="62.4" y1="194.12" x2="92.76" y2="194.12"/>
        <line class="cls-9" x1="62.4" y1="199.08" x2="92.76" y2="199.08"/>
        <line class="cls-9" x1="62.4" y1="204.05" x2="88.79" y2="204.05"/>
      </g>
      <g>
        <polyline class="cls-9" points="101.52 169.28 106.62 169.28 106.62 213.72 94.67 225.67 62.91 225.67 62.91 220.42"/>
        <polygon class="cls-10" points="106.62 213.72 94.67 225.67 94.67 213.72 106.62 213.72"/>
      </g>
    </g>
  </g>
  <g id="Fingerprint">
    <g>
      <rect class="cls-6" x="154.01" y="131.2" width="113.48" height="125.38" rx="4.24" ry="4.24"/>
      <g class="cls-4">
        <g>
          <line class="cls-8" x1="265.2" y1="172.99" x2="156.29" y2="172.99"/>
          <line class="cls-8" x1="265.2" y1="186.92" x2="156.29" y2="186.92"/>
          <line class="cls-8" x1="265.2" y1="200.85" x2="156.29" y2="200.85"/>
          <line class="cls-8" x1="265.2" y1="214.78" x2="156.29" y2="214.78"/>
          <line class="cls-8" x1="265.2" y1="228.71" x2="156.29" y2="228.71"/>
          <line class="cls-8" x1="265.2" y1="242.64" x2="156.29" y2="242.64"/>
          <line class="cls-8" x1="265.2" y1="159.06" x2="156.29" y2="159.06"/>
          <line class="cls-8" x1="265.2" y1="145.13" x2="156.29" y2="145.13"/>
        </g>
        <g>
          <line class="cls-8" x1="239.18" y1="254.34" x2="239.18" y2="133.43"/>
          <line class="cls-8" x1="224.96" y1="254.34" x2="224.96" y2="133.43"/>
          <line class="cls-8" x1="210.75" y1="254.34" x2="210.75" y2="133.43"/>
          <line class="cls-8" x1="196.53" y1="254.34" x2="196.53" y2="133.43"/>
          <line class="cls-8" x1="182.32" y1="254.34" x2="182.32" y2="133.43"/>
          <line class="cls-8" x1="168.1" y1="254.34" x2="168.1" y2="133.43"/>
          <line class="cls-8" x1="253.39" y1="254.34" x2="253.39" y2="133.43"/>
        </g>
      </g>
      <g>
        <g>
          <path class="cls-9" d="M206.81,232.08c1.38-6.93,2.98-12.82,4.97-18.52,.43-1.22,.91-2.45,1.43-3.75,1.24-3.17,3.78-9.62,2.82-11.55-.22-.43-.65-.73-1.06-.73-.09,0-.14,.01-.25,.1-2.82,2.3-4.64,8.69-5.96,13.35l-.44,1.57c-1.77,6.13-2.93,12.62-3.7,19.12"/>
          <path class="cls-9" d="M210.95,232.36c1.33-6.5,2.83-12.07,4.73-17.44,.4-1.16,.87-2.38,1.38-3.66,1.97-5.03,4.43-11.26,2.66-14.83-.92-1.84-2.78-3.02-4.75-3.02-1.06,0-2.03,.34-2.87,1.03-3.82,3.12-5.76,9.94-7.31,15.41l-.44,1.56c-1.77,6.11-2.96,12.55-3.73,18.97"/>
          <path class="cls-9" d="M215.23,231.97c1.13-5.31,2.5-10.5,4.33-15.69,2.15-6.13,6.99-15.37,3.84-21.69-2.57-5.17-9.31-7.1-13.91-3.34-5.26,4.29-7.34,12.88-9.11,19.02-1.69,5.87-2.87,11.97-3.68,18.06"/>
          <path class="cls-9" d="M219.73,230.73c1.07-4.75,2.28-8.99,3.72-13.09,.35-1.02,.81-2.16,1.28-3.38,2.57-6.53,5.76-14.67,2.36-21.51-2.29-4.61-7.05-7.58-12.12-7.58-2.97,0-5.76,1-8.07,2.88-5.84,4.76-8.16,12.97-10.03,19.55l-.43,1.53c-1.54,5.31-2.66,10.82-3.47,16.33"/>
          <path class="cls-9" d="M224.54,228.35c.84-3.3,1.76-6.37,2.8-9.35,.34-.96,.76-2.06,1.22-3.21,2.72-6.93,6.44-16.4,2.23-24.87-2.98-6-9.19-9.88-15.81-9.88-3.93,0-7.62,1.32-10.67,3.81-6.84,5.58-9.37,14.47-11.39,21.63l-.43,1.52c-1.28,4.45-2.29,9.02-3.07,13.61"/>
          <path class="cls-9" d="M229.5,224.33c.95-6.61,6.23-14.45,6.75-23.62,.48-8.4-2.29-13.78-4.24-16.48-.97-1.34-1.14-3.07-.58-4.62,.88-2.46,1.63-6.58-.13-11.85"/>
          <path class="cls-9" d="M216.97,155.41c6.96,4.35,11.5,11.21,11.82,20.02,.12,3.17-2.46,4.27-5.69,3.29-6.77-2.06-22.89-7.34-32.71,20.29-1.99,5.59-3.14,11.65-4.15,17.58"/>
          <path class="cls-9" d="M203.13,155.87c1.67,.02,7.05,0,12.49,2.93,6.6,3.54,10.76,11.89,8.63,14.02-2.35,2.35-6.73-3.34-20.12,2.15-6.45,2.64-11.01,8.01-14.12,14.12-1.42,2.78-2.56,5.69-3.54,8.66-1.25,3.79-2.25,7.71-3.07,11.65"/>
          <path class="cls-9" d="M195.55,160.96c2.76-.75,5.25-.93,7.25-.97,11.82-.26,16.25,6.03,14.95,7.64-1.09,1.34-3.52,.59-6.85,1-9.62,1.18-17.22,6.65-22.35,14.74-2.58,4.07-4.47,8.52-5.99,13.08-.28,.83-.53,1.66-.79,2.49"/>
          <path class="cls-9" d="M189.97,167.76c5.32-4.15,10.29-4.7,13.97-4.63,1.5,.03,5.2,.49,5.7,1.9,.66,1.86-5.35-.67-14.07,5.15-11.17,7.45-12.52,14.51-12.52,14.51"/>
          <path class="cls-9" d="M234.24,219.32s6.05-13.08,5.44-23.2c-.4-6.51-3.61-10.6-4.12-13.5-.51-2.9,.9-3.65,.52-6.27"/>
        </g>
        <g>
          <polyline class="cls-9" points="161.65 157.73 161.65 139.25 180.12 139.25"/>
          <polyline class="cls-9" points="180.12 248.52 161.65 248.52 161.65 230.04"/>
          <polyline class="cls-9" points="259.85 157.73 259.85 139.25 241.37 139.25"/>
          <polyline class="cls-9" points="241.37 248.52 259.85 248.52 259.85 230.04"/>
        </g>
      </g>
    </g>
  </g>
  <g id="Hand">
    <g>
      <path class="cls-1" d="M338.35,418.45c-4.82-7.21-9.88-14.85-14.04-21.16,0,0-.02-.02-.02-.03-5.31-8.05-9.13-13.92-9.13-13.92-2.03-9.51-4.92-13.25-7.81-21.06-2.88-7.81-.51-14.77,.69-24.45,1.18-9.68-.69-18.68-1.7-24.79-1.02-6.11,.17-11.89,0-13.25s-5.95-8.49-8.16-13.75c-.99-2.36-2.41-4.55-4.09-6.4-2.06-2.27-4.5-4.04-6.94-4.98-1.25-.48-2.4-.76-3.45-.9-2.7-.39-4.89,.05-7.08,.05-3.06,0-9.5-5.26-13.75-6.1-.79-.15-1.58-.27-2.39-.33h-.03c-3.51-.33-7.19,.04-11.33,.33-4.07,.27-8.89-3.56-12.73-4.78-.02,0-.04-.02-.07-.03-.95-.29-1.85-.43-2.65-.29-4.08,.68-11.72,1.36-11.72,1.36,0,0-.68-5.26-1.02-12.4-.06-1.24-.15-2.43-.26-3.6v-.03c-.39-4.4-1.03-8.34-1.13-11.94-.03-.94-.03-1.87,.03-2.77,.33-5.08,.18-9.07,.02-16.83,0-.27,0-.54-.02-.82-.05-2.43-.03-4.75-.15-6.85,0,0,0,0,0,0-.28-5.08-1.41-8.83-6.46-9.62-4.42-.68-7.48,1.53-9.34,8.83-1.87,7.31-3.23,6.79-3.73,17.49-.52,10.7-2.89,17.5-2.55,22.93,.33,5.43-.85,15.96-.85,15.96-2.03-1.02-3.91-.17-4.26,.68-.35,.85-1.85,9.17-3.05,15.12-1.06,5.28-5.86,10.16-7.64,13.8-.02,.03-.03,.06-.04,.09-.2,.42-.36,.83-.46,1.22-1.02,3.73-.51,11.72-.51,21.91s-2.55,20.72,0,27.51c.51,1.35,1.28,2.6,2.25,3.8,3.91,4.83,11.08,9,17.62,16.74,8.15,9.68,13.92,16.82,19.36,20.05,3.89,2.3,5.6,4.17,6.31,6.65,0,.02,0,.03,0,.03,.28,.98,.4,2.06,.45,3.29,.07,2.16,1.24,3.82,3.23,6.57,2.01,2.78,4.84,6.68,8.17,13.35,2.18,4.35,5.51,12.65,9.01,21.81l91.45-18.46Z"/>
      <g>
        <path class="cls-5" d="M219.55,233.22c-.06,.9-.07,1.83-.03,2.77-6.49-1.23-19.02,1.97-19.21,5.8-.22,4.67-.79,15.71,1.59,18.28,2.38,2.57,7.47,4.22,7.47,4.22-.39,.03-.76,.08-1.12,.15,0,0-.02,0-.02,0-.04,0-.09,.02-.12,.03-1.7,.36-3.11,1.2-4.25,2.39h0c-4.96,5.1-5.18,16.39-3.55,21.82,6.8,22.57-4.22,40.44-8.1,38.28-3.89-2.15-4.23-21.57-3.05-26.12,1.19-4.55,1.04-8.16,1.04-8.16-1.73-.58-5.37,.27-8.72,1.3,.02-.03,.03-.06,.04-.09,1.78-3.64,6.58-8.52,7.64-13.8,1.19-5.95,2.7-14.27,3.05-15.12s2.22-1.7,4.26-.68c0,0,1.18-10.53,.85-15.96-.34-5.43,2.03-12.23,2.55-22.93,.51-10.7,1.86-10.18,3.73-17.49,1.86-7.31,4.92-9.51,9.34-8.83,5.06,.78,6.18,4.53,6.46,9.62-.57-.52-1.18-1.04-1.85-1.49-1.67-1.15-3.61-1.95-5.62-1.67-2.34,.33-4.4,2.67-5.69,5.17h0c-1.87,3.6-2.18,7.49,.45,6.17,2.98-1.49,9.13-1,12.88-.5,.16,7.77,.32,11.75-.02,16.83Z"/>
        <path class="cls-5" d="M226.49,395.18c-.04-1.23-.16-2.31-.45-3.29,0,0,0,0,0-.03-.71-2.48-2.42-4.35-6.31-6.65-5.43-3.23-11.21-10.36-19.36-20.05-6.53-7.74-13.71-11.91-17.62-16.74,4.92,2.67,11.6,1.3,13.71,5.51,3.06,6.09,17.44,15.31,17.44,15.31,14.04,13.92,12.59,25.93,12.59,25.93Z"/>
        <path class="cls-5" d="M236.3,262.89c-1.65-.33-6.13,10.71-6.56,14.63-1.12,10.16,4.09,41.48-2.62,40.78-2.77-.29-6.02-14.92-6.22-21.74-.6-20.72,.23-29.32,.23-29.32,0,0-1.49-11.47-.49-19.28,.11,1.17,.2,2.36,.26,3.6,.34,7.13,1.02,12.4,1.02,12.4,0,0,7.64-.68,11.72-1.36,.81-.14,1.7,0,2.65,.29Z"/>
        <path class="cls-5" d="M260.44,267.37c-3.61,.33-7.25,3.86-10.2,4.5-3.62,.77-10.25-7.37-13.86-8.95,3.85,1.22,8.66,5.05,12.73,4.78,4.14-.28,7.82-.65,11.33-.33Z"/>
        <path class="cls-5" d="M283.69,273.76c-1.3,1.41-3.69,5.55-4.27,7.42-2.91,9.4-.16,44.98-4.85,39.16-6.11-7.57,.27-33.82-4.18-43.85-1.42-3.21-6.44-8.34-7.54-8.77,4.25,.84,10.7,6.1,13.75,6.1,2.19,0,4.39-.44,7.08-.05Z"/>
        <path class="cls-5" d="M324.29,397.26c-4.76-5.37-9.74-10.47-13.01-12.4-7.94-4.67-10.22-9.51-10.9-17.58-.68-8.08,1.36-7.89,3.74-15.86,2.38-7.98-2.04-17.84-1.7-15.71,.33,2.13-3.4,16.9-6.16,17.62-2.76,.72-3.69-9.22-4.03-17.33-.34-8.11,4.08-45.89,2.84-53.27-.2-1.19-.54-2.21-1-3.09,1.68,1.85,3.11,4.03,4.09,6.4,2.21,5.26,7.98,12.4,8.16,13.75,.17,1.36-1.02,7.13,0,13.25,1.01,6.11,2.88,15.11,1.7,24.79-1.19,9.68-3.57,16.64-.69,24.45,2.89,7.81,5.78,11.55,7.81,21.06,0,0,3.83,5.87,9.13,13.92Z"/>
        <path class="cls-5" d="M252.61,287.47c1.81,1.9,2.94,26.75,3.96,32.86,1.02,6.11-2.15,20.75-3.96,16.32-1.81-4.43-7.36-56.91,0-49.18Z"/>
      </g>
      <g>
        <path class="cls-9" d="M245.56,433.42c-3-7.75-5.77-14.54-7.67-18.33-3.33-6.67-6.16-10.57-8.17-13.35-1.98-2.75-3.16-4.4-3.23-6.57-.04-1.23-.16-2.31-.45-3.29,0,0,0,0,0-.03-.71-2.48-2.42-4.35-6.31-6.65-5.43-3.23-11.21-10.36-19.36-20.05-6.53-7.74-13.71-11.91-17.62-16.74-.97-1.2-1.74-2.46-2.25-3.8-2.55-6.79,0-17.32,0-27.51s-.52-18.17,.51-21.91c.1-.39,.27-.8,.46-1.22,.02-.03,.03-.06,.04-.09,1.78-3.64,6.58-8.52,7.64-13.8,1.19-5.95,2.7-14.27,3.05-15.12s2.22-1.7,4.26-.68c0,0,1.18-10.53,.85-15.96-.34-5.43,2.03-12.23,2.55-22.93,.51-10.7,1.86-10.18,3.73-17.49,1.86-7.31,4.92-9.51,9.34-8.83,5.06,.78,6.18,4.53,6.46,9.62,0,0,0,0,0,0,.12,2.1,.09,4.42,.15,6.85,0,.28,0,.56,.02,.82,.16,7.77,.32,11.75-.02,16.83-.06,.9-.07,1.83-.03,2.77,.1,3.6,.74,7.54,1.13,11.94v.03c.11,1.17,.2,2.36,.26,3.6,.34,7.13,1.02,12.4,1.02,12.4,0,0,7.64-.68,11.72-1.36,.81-.14,1.7,0,2.65,.29,.03,0,.05,.02,.07,.03,3.85,1.22,8.66,5.05,12.73,4.78,4.14-.28,7.82-.65,11.33-.33h.03c.81,.07,1.6,.18,2.39,.33,4.25,.84,10.7,6.1,13.75,6.1,2.19,0,4.39-.44,7.08-.05,1.06,.15,2.2,.42,3.45,.9,2.44,.94,4.88,2.7,6.94,4.98,1.68,1.85,3.11,4.03,4.09,6.4,2.21,5.26,7.98,12.4,8.16,13.75,.17,1.36-1.02,7.13,0,13.25,1.01,6.11,2.88,15.11,1.7,24.79-1.19,9.68-3.57,16.64-.69,24.45,2.89,7.81,5.78,11.55,7.81,21.06,0,0,3.83,5.87,9.13,13.92,0,0,0,.02,.02,.03,3.69,5.59,8.08,12.24,12.39,18.7"/>
        <path class="cls-9" d="M196.46,264.3c0,7.47-.68,16.75-1.81,20.6-1.13,3.85-.36,16.75-2.45,22.19"/>
        <path class="cls-9" d="M200.31,270.19s5.21-5.89,9.06-5.89,7.7,2.49,11.77,2.94c4.08,.45,8.32-2.56,12.23-3.28"/>
        <path class="cls-9" d="M203.25,242.94s7.02-2.57,10.64,0"/>
        <path class="cls-9" d="M208.57,239.62s2.15-.58,5.32,.95"/>
        <path class="cls-9" d="M206.7,221.51s3.57-.91,7.2,0"/>
        <path class="cls-9" d="M181.52,293.9s4.53-2.2,6.34-2.43"/>
        <path class="cls-9" d="M193.41,300.85s-2.69,4.21-3.22,6.25"/>
        <path class="cls-9" d="M206.7,203.17s-1.08,8.65,0,9.42c1.08,.77,9.46,1.49,10.14,0,.68-1.49,.81-7.83,.81-7.83,0,0-5.01-8.6-10.95-1.59Z"/>
        <path class="cls-9" d="M189.16,280.09s6.94-3.5,7.11-8.51c.17-5.01-1.88-4.96-4.47-4.99"/>
        <path class="cls-9" d="M297.44,291.47c.23,7.92-2.04,31.02-2.26,34.42-.23,3.4,0,12.08,0,12.08"/>
        <path class="cls-9" d="M247.86,273.34c7.47,10.88,0,6.75,4.75,58.66"/>
        <path class="cls-9" d="M315.16,383.34s-6.62-5.15-7.75-8.09"/>
        <path class="cls-9" d="M222.72,380.9c1.98,3.3,3.25,10.52,3.31,10.96,0,.02,0,.03,0,.03"/>
      </g>
    </g>
  </g>
</svg>