<?xml version="1.0" encoding="utf-8"?>
<!-- Generator: Adobe Illustrator 26.5.0, SVG Export Plug-In . SVG Version: 6.00 Build 0)  -->
<svg version="1.1" id="Layer_1" xmlns="http://www.w3.org/2000/svg" xmlns:xlink="http://www.w3.org/1999/xlink" x="0px" y="0px"
	 viewBox="0 0 850 400" style="enable-background:new 0 0 850 400;" xml:space="preserve">
<style type="text/css">
	.st0{fill:#FFFFFF;}
</style>
<g>
	<polygon class="st0" points="307.43,366.77 315.99,366.67 316.04,373.12 307.5,373.15 	"/>
	<path d="M307.5,373.64c-0.27,0-0.49-0.22-0.5-0.49l-0.07-6.38c0-0.13,0.05-0.26,0.14-0.35c0.09-0.09,0.22-0.15,0.35-0.15l8.57-0.1
		c0.13-0.01,0.26,0.05,0.35,0.14c0.09,0.09,0.15,0.22,0.15,0.35l0.05,6.45c0,0.13-0.05,0.26-0.14,0.35
		c-0.09,0.09-0.22,0.15-0.35,0.15L307.5,373.64C307.5,373.64,307.5,373.64,307.5,373.64z M307.93,367.26l0.06,5.39l7.55-0.02
		l-0.04-5.45L307.93,367.26z"/>
</g>
<g>
	<path d="M253.17,89.15h-9.05c-0.09,0-0.17-0.07-0.17-0.17c0-0.09,0.07-0.17,0.17-0.17h9.05c0.09,0,0.17,0.07,0.17,0.17
		C253.34,89.08,253.26,89.15,253.17,89.15z"/>
</g>
<g>
	<path d="M177.85,92.11c-0.28,0-0.58-0.03-0.89-0.1c-2.05-0.51-2.78-2.6-3.15-4.13c-1.62-6.75-3-13.63-4.09-20.45
		c-0.04-0.27,0.14-0.53,0.41-0.57c0.27-0.04,0.53,0.14,0.57,0.41c1.09,6.8,2.46,13.65,4.07,20.37c0.33,1.39,0.91,3.03,2.42,3.4
		c0.64,0.16,1.28,0.04,1.71-0.09c1.34-0.4,2.48-1.43,3.13-2.84c0.62-1.35,0.76-2.91,0.88-4.17c0.69-7.69,0.89-14.67,0.6-21.33
		c-0.05-1.05-0.2-2.09-1.02-2.58c-0.62-0.37-1.5-0.36-2.42-0.32c-1.13,0.05-2.53,0.12-3.5,0.75c-1.42,0.93-1.52,2.77-1.49,4.41
		c0.06,3.52,1.44,15.91,2.03,18.17c0.07,0.27-0.09,0.54-0.36,0.61c-0.27,0.07-0.54-0.09-0.61-0.36c-0.62-2.36-2-14.74-2.06-18.4
		c-0.03-2.05,0.18-4.11,1.94-5.26c1.19-0.78,2.75-0.85,4-0.91c1.08-0.05,2.12-0.05,2.98,0.46c1.39,0.83,1.46,2.56,1.5,3.39
		c0.29,6.71,0.09,13.72-0.6,21.46c-0.12,1.33-0.27,2.99-0.96,4.5c-0.77,1.67-2.14,2.9-3.75,3.38
		C178.84,92.01,178.37,92.11,177.85,92.11z"/>
</g>
<g>
	<path d="M27.87,268.28c-0.34,0-0.65-0.04-0.9-0.08c-1.66-0.31-3.15-1.39-4.09-2.96c-0.85-1.42-1.17-3.05-1.43-4.37
		c-1.51-7.62-2.45-14.58-2.87-21.27c-0.05-0.83-0.16-2.56,1.13-3.53c0.8-0.6,1.83-0.7,2.91-0.77c1.25-0.07,2.8-0.16,4.07,0.48
		c1.87,0.96,2.3,2.98,2.48,5.03c0.33,3.64,0.26,16.1-0.1,18.52c-0.04,0.27-0.29,0.46-0.57,0.42c-0.27-0.04-0.46-0.29-0.42-0.57
		c0.35-2.31,0.41-14.78,0.1-18.28c-0.15-1.64-0.43-3.46-1.95-4.23c-1.03-0.53-2.43-0.44-3.56-0.38c-0.92,0.05-1.8,0.14-2.38,0.57
		c-0.76,0.57-0.8,1.62-0.74,2.67c0.42,6.65,1.35,13.57,2.86,21.14c0.25,1.24,0.55,2.78,1.31,4.05c0.79,1.33,2.04,2.24,3.42,2.49
		c0.44,0.08,1.09,0.13,1.71-0.09c1.46-0.53,1.86-2.22,2.04-3.64c0.89-6.85,1.53-13.82,1.89-20.69c0.01-0.27,0.25-0.48,0.52-0.47
		c0.27,0.01,0.48,0.25,0.47,0.52c-0.36,6.9-1,13.89-1.9,20.77c-0.2,1.56-0.7,3.72-2.69,4.44C28.74,268.22,28.28,268.28,27.87,268.28
		z"/>
</g>
<g>
	<path class="st0" d="M174.5,24.77c0-1.77,1.43-3.2,3.2-3.2c1.77,0,3.2,1.43,3.2,3.2c0,1.77-1.43,3.2-3.2,3.2
		C175.93,27.97,174.5,26.54,174.5,24.77z"/>
	<path d="M177.7,28.47c-2.04,0-3.7-1.66-3.7-3.7c0-2.04,1.66-3.7,3.7-3.7c2.04,0,3.7,1.66,3.7,3.7
		C181.4,26.81,179.74,28.47,177.7,28.47z M177.7,22.06c-1.49,0-2.71,1.21-2.71,2.71c0,1.49,1.21,2.71,2.71,2.71
		c1.49,0,2.71-1.21,2.71-2.71C180.41,23.28,179.19,22.06,177.7,22.06z"/>
</g>
<g>
	<path class="st0" d="M100.12,377.82c0-1.77,1.43-3.2,3.2-3.2c1.77,0,3.2,1.43,3.2,3.2s-1.43,3.2-3.2,3.2
		C101.55,381.02,100.12,379.59,100.12,377.82z"/>
	<path d="M103.32,381.52c-2.04,0-3.7-1.66-3.7-3.7c0-2.04,1.66-3.7,3.7-3.7c2.04,0,3.7,1.66,3.7,3.7
		C107.02,379.86,105.36,381.52,103.32,381.52z M103.32,375.11c-1.49,0-2.71,1.21-2.71,2.71c0,1.49,1.21,2.71,2.71,2.71
		c1.49,0,2.71-1.21,2.71-2.71C106.03,376.33,104.81,375.11,103.32,375.11z"/>
</g>
<g>
	<path class="st0" d="M21.87,302.59c0-1.77,1.43-3.2,3.2-3.2c1.77,0,3.2,1.43,3.2,3.2c0,1.77-1.43,3.2-3.2,3.2
		C23.3,305.79,21.87,304.36,21.87,302.59z"/>
	<path d="M25.07,306.29c-2.04,0-3.7-1.66-3.7-3.7c0-2.04,1.66-3.7,3.7-3.7c2.04,0,3.7,1.66,3.7,3.7
		C28.77,304.63,27.11,306.29,25.07,306.29z M25.07,299.88c-1.49,0-2.71,1.21-2.71,2.71c0,1.49,1.21,2.71,2.71,2.71
		c1.49,0,2.71-1.21,2.71-2.71C27.78,301.1,26.56,299.88,25.07,299.88z"/>
</g>
<g>
	<path class="st0" d="M290.44,131.5c0-1.77,1.43-3.2,3.2-3.2s3.2,1.43,3.2,3.2c0,1.77-1.43,3.2-3.2,3.2S290.44,133.27,290.44,131.5z
		"/>
	<path d="M293.64,135.2c-2.04,0-3.7-1.66-3.7-3.7c0-2.04,1.66-3.7,3.7-3.7s3.7,1.66,3.7,3.7
		C297.34,133.54,295.68,135.2,293.64,135.2z M293.64,128.8c-1.49,0-2.71,1.21-2.71,2.71c0,1.49,1.21,2.71,2.71,2.71
		s2.71-1.21,2.71-2.71C296.35,130.01,295.13,128.8,293.64,128.8z"/>
</g>
<g>
	<path class="st0" d="M469.67,58.71c0-1.96,1.43-3.55,3.2-3.55c1.77,0,3.2,1.59,3.2,3.55s-1.43,3.55-3.2,3.55
		C471.1,62.26,469.67,60.67,469.67,58.71z"/>
	<path d="M472.87,62.82c-2.04,0-3.7-1.84-3.7-4.11c0-2.26,1.66-4.11,3.7-4.11c2.04,0,3.7,1.84,3.7,4.11
		C476.57,60.97,474.91,62.82,472.87,62.82z M472.87,55.71c-1.49,0-2.71,1.35-2.71,3c0,1.66,1.21,3,2.71,3c1.49,0,2.71-1.35,2.71-3
		C475.58,57.05,474.36,55.71,472.87,55.71z"/>
</g>
<g>
	<path class="st0" d="M607,128.79c0-2.74,2.22-4.96,4.96-4.96c2.74,0,4.96,2.22,4.96,4.96c0,2.74-2.22,4.96-4.96,4.96
		C609.22,133.75,607,131.53,607,128.79z"/>
	<path d="M611.96,134.24c-3.01,0-5.45-2.45-5.45-5.45c0-3.01,2.45-5.45,5.45-5.45c3.01,0,5.45,2.45,5.45,5.45
		C617.41,131.8,614.96,134.24,611.96,134.24z M611.96,124.33c-2.46,0-4.46,2-4.46,4.46c0,2.46,2,4.46,4.46,4.46s4.46-2,4.46-4.46
		C616.42,126.33,614.42,124.33,611.96,124.33z"/>
</g>
<g>
	<path class="st0" d="M552.58,293.64c0-1.77,1.43-3.2,3.2-3.2s3.2,1.43,3.2,3.2c0,1.77-1.43,3.2-3.2,3.2
		S552.58,295.41,552.58,293.64z"/>
	<path d="M555.78,297.34c-2.04,0-3.7-1.66-3.7-3.7c0-2.04,1.66-3.7,3.7-3.7c2.04,0,3.7,1.66,3.7,3.7
		C559.49,295.68,557.83,297.34,555.78,297.34z M555.78,290.94c-1.49,0-2.71,1.21-2.71,2.71c0,1.49,1.21,2.71,2.71,2.71
		c1.49,0,2.71-1.21,2.71-2.71C558.49,292.15,557.28,290.94,555.78,290.94z"/>
</g>
<g>
	<path class="st0" d="M737.47,342.97c0-1.77,1.43-3.2,3.2-3.2s3.2,1.43,3.2,3.2c0,1.77-1.43,3.2-3.2,3.2
		S737.47,344.74,737.47,342.97z"/>
	<path d="M740.67,346.67c-2.04,0-3.7-1.66-3.7-3.7c0-2.04,1.66-3.7,3.7-3.7c2.04,0,3.7,1.66,3.7,3.7
		C744.37,345.01,742.71,346.67,740.67,346.67z M740.67,340.26c-1.49,0-2.71,1.21-2.71,2.71c0,1.49,1.21,2.71,2.71,2.71
		c1.49,0,2.71-1.21,2.71-2.71C743.38,341.47,742.16,340.26,740.67,340.26z"/>
</g>
<g>
	<path class="st0" d="M820.16,278.88c0-1.77,1.43-3.2,3.2-3.2c1.77,0,3.2,1.43,3.2,3.2c0,1.77-1.43,3.2-3.2,3.2
		C821.6,282.08,820.16,280.65,820.16,278.88z"/>
	<path d="M823.37,282.58c-2.04,0-3.7-1.66-3.7-3.7c0-2.04,1.66-3.7,3.7-3.7c2.04,0,3.7,1.66,3.7,3.7
		C827.07,280.92,825.41,282.58,823.37,282.58z M823.37,276.17c-1.49,0-2.71,1.21-2.71,2.71c0,1.49,1.21,2.71,2.71,2.71
		c1.49,0,2.71-1.21,2.71-2.71C826.07,277.38,824.86,276.17,823.37,276.17z"/>
</g>
<g>
	<ellipse class="st0" cx="818.65" cy="360.7" rx="9.05" ry="8.55"/>
	<path d="M818.65,369.75c-5.27,0-9.55-4.06-9.55-9.05c0-4.99,4.28-9.05,9.55-9.05c5.27,0,9.55,4.06,9.55,9.05
		C828.2,365.69,823.91,369.75,818.65,369.75z M818.65,352.64c-4.72,0-8.56,3.61-8.56,8.06c0,4.44,3.84,8.06,8.56,8.06
		c4.72,0,8.56-3.61,8.56-8.06C827.2,356.26,823.36,352.64,818.65,352.64z"/>
</g>
<g>
	<path class="st0" d="M753.12,156.99c0-1.77,1.43-3.2,3.2-3.2c1.77,0,3.2,1.43,3.2,3.2c0,1.77-1.43,3.2-3.2,3.2
		C754.55,160.2,753.12,158.76,753.12,156.99z"/>
	<path d="M756.32,160.69c-2.04,0-3.7-1.66-3.7-3.7c0-2.04,1.66-3.7,3.7-3.7c2.04,0,3.7,1.66,3.7,3.7
		C760.02,159.03,758.36,160.69,756.32,160.69z M756.32,154.29c-1.49,0-2.71,1.21-2.71,2.71c0,1.49,1.21,2.71,2.71,2.71
		c1.49,0,2.71-1.21,2.71-2.71C759.03,155.5,757.81,154.29,756.32,154.29z"/>
</g>
<g>
	<path class="st0" d="M812.24,26.12c0-1.77,1.43-3.2,3.2-3.2c1.77,0,3.2,1.43,3.2,3.2s-1.43,3.2-3.2,3.2
		C813.67,29.32,812.24,27.89,812.24,26.12z"/>
	<path d="M815.44,29.82c-2.04,0-3.7-1.66-3.7-3.7s1.66-3.7,3.7-3.7c2.04,0,3.7,1.66,3.7,3.7S817.48,29.82,815.44,29.82z
		 M815.44,23.41c-1.49,0-2.71,1.21-2.71,2.71c0,1.49,1.21,2.71,2.71,2.71c1.49,0,2.71-1.21,2.71-2.71
		C818.15,24.63,816.94,23.41,815.44,23.41z"/>
</g>
<g>
	<path class="st0" d="M388.87,330.8c0-1.77,1.43-3.2,3.2-3.2s3.2,1.43,3.2,3.2c0,1.77-1.43,3.2-3.2,3.2S388.87,332.57,388.87,330.8z
		"/>
	<path d="M392.07,334.5c-2.04,0-3.7-1.66-3.7-3.7c0-2.04,1.66-3.7,3.7-3.7c2.04,0,3.7,1.66,3.7,3.7
		C395.77,332.84,394.11,334.5,392.07,334.5z M392.07,328.09c-1.49,0-2.71,1.21-2.71,2.71c0,1.49,1.21,2.71,2.71,2.71
		c1.49,0,2.71-1.21,2.71-2.71C394.78,329.31,393.56,328.09,392.07,328.09z"/>
</g>
<g>
	<path class="st0" d="M310.38,278.88c0-1.77,1.43-3.2,3.2-3.2s3.2,1.43,3.2,3.2c0,1.77-1.43,3.2-3.2,3.2
		S310.38,280.65,310.38,278.88z"/>
	<path d="M313.58,282.58c-2.04,0-3.7-1.66-3.7-3.7c0-2.04,1.66-3.7,3.7-3.7c2.04,0,3.7,1.66,3.7,3.7
		C317.29,280.92,315.63,282.58,313.58,282.58z M313.58,276.17c-1.49,0-2.71,1.21-2.71,2.71c0,1.49,1.21,2.71,2.71,2.71
		s2.71-1.21,2.71-2.71C316.29,277.38,315.08,276.17,313.58,276.17z"/>
</g>
<g>
	<path class="st0" d="M16.21,101.02c0-1.77,1.43-3.2,3.2-3.2s3.2,1.43,3.2,3.2s-1.43,3.2-3.2,3.2S16.21,102.79,16.21,101.02z"/>
	<path d="M19.42,104.72c-2.04,0-3.7-1.66-3.7-3.7c0-2.04,1.66-3.7,3.7-3.7c2.04,0,3.7,1.66,3.7,3.7
		C23.12,103.06,21.46,104.72,19.42,104.72z M19.42,98.31c-1.49,0-2.71,1.21-2.71,2.71c0,1.49,1.21,2.71,2.71,2.71
		c1.49,0,2.71-1.21,2.71-2.71C22.12,99.53,20.91,98.31,19.42,98.31z"/>
</g>
<g>
	<path d="M144.62,165.76C144.62,165.76,144.62,165.76,144.62,165.76c-0.18,0-0.34-0.1-0.43-0.24l-2.85-4.8
		c-0.14-0.24-0.06-0.54,0.17-0.68c0.24-0.14,0.54-0.06,0.68,0.17l2.44,4.11l2.65-4.1c0.15-0.23,0.46-0.3,0.69-0.15
		c0.23,0.15,0.3,0.46,0.15,0.69l-3.09,4.78C144.95,165.68,144.79,165.76,144.62,165.76z"/>
</g>
<g>
	<g>
		<circle class="st0" cx="238.22" cy="142.21" r="6.8"/>
		<path d="M238.22,149.51c-4.02,0-7.29-3.27-7.29-7.29c0-4.02,3.27-7.3,7.29-7.3s7.29,3.27,7.29,7.3
			C245.51,146.23,242.24,149.51,238.22,149.51z M238.22,135.91c-3.47,0-6.3,2.83-6.3,6.3c0,3.47,2.83,6.3,6.3,6.3
			c3.47,0,6.3-2.83,6.3-6.3C244.52,138.74,241.69,135.91,238.22,135.91z"/>
	</g>
	<g>
		<path d="M238.44,145.81C238.44,145.81,238.44,145.81,238.44,145.81c-0.07,0-0.12-0.04-0.15-0.1l-2.45-5.47
			c-0.02-0.05-0.02-0.11,0.01-0.16c0.03-0.05,0.08-0.08,0.14-0.08l5.07-0.07c0.06,0.01,0.11,0.03,0.14,0.08
			c0.03,0.05,0.03,0.11,0.01,0.16l-2.63,5.54C238.56,145.77,238.51,145.81,238.44,145.81z M236.25,140.33l2.2,4.91l2.36-4.97
			L236.25,140.33z"/>
	</g>
</g>
<g>
	<g>
		<circle class="st0" cx="571.87" cy="327.77" r="6.8"/>
		<path d="M571.87,335.06c-4.02,0-7.3-3.27-7.3-7.3c0-4.02,3.27-7.3,7.3-7.3c4.02,0,7.3,3.27,7.3,7.3
			C579.16,331.79,575.89,335.06,571.87,335.06z M571.87,321.46c-3.47,0-6.3,2.83-6.3,6.3c0,3.47,2.83,6.3,6.3,6.3s6.3-2.83,6.3-6.3
			C578.17,324.29,575.34,321.46,571.87,321.46z"/>
	</g>
	<g>
		<path d="M572.09,331.36C572.09,331.36,572.09,331.36,572.09,331.36c-0.07,0-0.12-0.04-0.15-0.1l-2.45-5.47
			c-0.02-0.05-0.02-0.11,0.01-0.16c0.03-0.05,0.08-0.08,0.14-0.08l5.07-0.07c0.06,0.01,0.11,0.03,0.14,0.08
			c0.03,0.05,0.03,0.11,0.01,0.16l-2.63,5.54C572.21,331.32,572.16,331.36,572.09,331.36z M569.9,325.89l2.2,4.91l2.36-4.97
			L569.9,325.89z"/>
	</g>
</g>
<g>
	<g>
		<polygon class="st0" points="254.49,211.64 252.37,205.79 263.09,205.86 261.07,211.49 266.9,225.6 248.58,225.5 		"/>
		<path d="M266.9,226.1C266.9,226.1,266.9,226.1,266.9,226.1l-18.32-0.1c-0.17,0-0.32-0.09-0.41-0.22
			c-0.09-0.14-0.11-0.32-0.04-0.47l5.84-13.68l-2.05-5.67c-0.06-0.15-0.03-0.32,0.06-0.46c0.09-0.13,0.24-0.2,0.41-0.21l10.72,0.07
			c0.16,0,0.31,0.08,0.4,0.21c0.09,0.13,0.11,0.3,0.06,0.45l-1.96,5.45l5.76,13.94c0.06,0.15,0.05,0.33-0.05,0.47
			C267.22,226.02,267.06,226.1,266.9,226.1z M249.33,225.01l16.82,0.09l-5.54-13.42c-0.05-0.11-0.05-0.24-0.01-0.36l1.78-4.97
			l-9.3-0.06l1.88,5.18c0.04,0.12,0.04,0.25-0.01,0.36L249.33,225.01z"/>
	</g>
	<g>
		<path d="M257.61,241.75C257.61,241.75,257.61,241.75,257.61,241.75c-0.28,0-0.5-0.23-0.5-0.5l0.13-15.64c0-0.27,0.23-0.5,0.5-0.49
			c0.27,0,0.5,0.23,0.49,0.5l-0.13,15.64C258.11,241.53,257.88,241.75,257.61,241.75z"/>
	</g>
</g>
<g>
	<path d="M820.61,155.07c-0.27,0-0.49-0.22-0.5-0.49l-0.34-24.02c0-0.27,0.21-0.49,0.48-0.5l6.6-0.26l-13.43-15.52l-13.06,15.83
		l7.26,0.09c0.27,0,0.49,0.23,0.49,0.5v12.89c0,0.27-0.22,0.5-0.5,0.5c-0.27,0-0.5-0.22-0.5-0.5v-12.4l-7.8-0.09
		c-0.19,0-0.36-0.11-0.44-0.29c-0.08-0.17-0.05-0.38,0.07-0.53l14.09-17.09c0.09-0.11,0.23-0.18,0.38-0.18
		c0.13-0.01,0.29,0.06,0.38,0.17l14.49,16.75c0.12,0.14,0.16,0.35,0.08,0.52c-0.08,0.18-0.25,0.29-0.44,0.3l-7.15,0.28l0.33,23.54
		C821.11,154.85,820.89,155.07,820.61,155.07C820.61,155.07,820.61,155.07,820.61,155.07z"/>
</g>
<g>
	<path d="M820.72,167.31c-0.26,0-0.48-0.21-0.5-0.47c-0.12-2.21-0.17-4.45-0.16-6.66c0-0.27,0.22-0.49,0.5-0.49c0,0,0,0,0,0
		c0.27,0,0.5,0.23,0.49,0.5c-0.02,2.19,0.04,4.41,0.16,6.6c0.01,0.27-0.2,0.51-0.47,0.52C820.74,167.31,820.73,167.31,820.72,167.31
		z"/>
</g>
<g>
	<path d="M820.88,177.77c-0.26,0-0.48-0.21-0.5-0.47l-0.24-4.86c-0.01-0.27,0.2-0.51,0.47-0.52c0.27-0.01,0.51,0.2,0.52,0.47
		l0.24,4.86c0.01,0.27-0.2,0.51-0.47,0.52C820.9,177.77,820.89,177.77,820.88,177.77z"/>
</g>
<g>
	<path d="M819.22,364.54c-0.08,0-0.16-0.06-0.16-0.15l-0.84-7.69c-0.01-0.09,0.06-0.17,0.15-0.18c0.08-0.01,0.17,0.06,0.18,0.15
		l0.84,7.69c0.01,0.09-0.06,0.17-0.15,0.18C819.24,364.54,819.23,364.54,819.22,364.54z"/>
</g>
<g>
	<path d="M814.96,361.11c-0.08,0-0.16-0.06-0.16-0.15c-0.01-0.09,0.06-0.17,0.15-0.18l7.69-0.84c0.09-0.01,0.17,0.06,0.18,0.15
		c0.01,0.09-0.06,0.17-0.15,0.18l-7.69,0.84C814.97,361.11,814.97,361.11,814.96,361.11z"/>
</g>
<g>
	<g>
		<path d="M101.81,203.46c-0.25,0-0.46-0.18-0.49-0.44c-0.03-0.27,0.16-0.52,0.43-0.55l9.44-1.15c0.27-0.03,0.52,0.16,0.55,0.43
			c0.03,0.27-0.16,0.52-0.43,0.55l-9.44,1.15C101.85,203.46,101.83,203.46,101.81,203.46z"/>
	</g>
	<g>
		<path d="M107.1,207.78c-0.25,0-0.46-0.19-0.49-0.44l-1.16-9.77c-0.03-0.27,0.16-0.52,0.44-0.55c0.27-0.04,0.52,0.16,0.55,0.44
			l1.16,9.77c0.03,0.27-0.16,0.52-0.44,0.55C107.14,207.78,107.12,207.78,107.1,207.78z"/>
	</g>
</g>
<g>
	<g>
		<path d="M243.15,373.97c-0.26,0-0.48-0.21-0.5-0.47c-0.01-0.27,0.2-0.51,0.47-0.52l14.09-0.65c0.29-0.02,0.51,0.2,0.52,0.47
			c0.01,0.27-0.2,0.51-0.47,0.52l-14.09,0.65C243.16,373.97,243.16,373.97,243.15,373.97z"/>
	</g>
	<g>
		<path d="M250.52,380.69c-0.26,0-0.48-0.21-0.5-0.47l-0.65-14.09c-0.01-0.27,0.2-0.51,0.47-0.52c0.28-0.01,0.51,0.2,0.52,0.47
			l0.65,14.09c0.01,0.27-0.2,0.51-0.47,0.52C250.54,380.69,250.53,380.69,250.52,380.69z"/>
	</g>
</g>
<g>
	<g>
		<path d="M473.37,182.55c-0.26,0-0.48-0.21-0.5-0.47c-0.01-0.27,0.2-0.51,0.47-0.52l14.09-0.65c0.27-0.01,0.51,0.2,0.52,0.47
			c0.01,0.27-0.2,0.51-0.47,0.52l-14.09,0.65C473.38,182.55,473.38,182.55,473.37,182.55z"/>
	</g>
	<g>
		<path d="M480.74,189.27c-0.26,0-0.48-0.21-0.5-0.47l-0.65-14.09c-0.01-0.27,0.2-0.51,0.47-0.52c0.27-0.01,0.51,0.2,0.52,0.47
			l0.65,14.09c0.01,0.27-0.2,0.51-0.47,0.52C480.76,189.27,480.75,189.27,480.74,189.27z"/>
	</g>
</g>
<g>
	<g>
		<path d="M545.05,375.97c-0.26,0-0.48-0.21-0.5-0.47c-0.01-0.27,0.2-0.51,0.47-0.52l13.94-0.72c0.28-0.01,0.51,0.2,0.52,0.47
			c0.01,0.27-0.2,0.51-0.47,0.52l-13.94,0.72C545.06,375.97,545.05,375.97,545.05,375.97z"/>
	</g>
	<g>
		<path d="M552.34,383.43c-0.27,0-0.49-0.21-0.5-0.48l-0.64-15.64c-0.01-0.27,0.2-0.51,0.48-0.52c0.27-0.02,0.51,0.2,0.52,0.48
			l0.64,15.64c0.01,0.27-0.2,0.51-0.48,0.52C552.35,383.43,552.35,383.43,552.34,383.43z"/>
	</g>
</g>
<g>
	<g>
		<path d="M697.79,296.69c-0.26,0-0.48-0.21-0.5-0.47c-0.01-0.27,0.2-0.51,0.47-0.52l9.95-0.49c0.27-0.01,0.51,0.2,0.52,0.47
			c0.01,0.27-0.2,0.51-0.47,0.52l-9.95,0.49C697.8,296.69,697.79,296.69,697.79,296.69z"/>
	</g>
	<g>
		<path d="M702.99,301.75c-0.26,0-0.48-0.21-0.5-0.48l-0.46-10.59c-0.01-0.27,0.2-0.51,0.48-0.52c0.28-0.01,0.51,0.2,0.52,0.48
			l0.46,10.59c0.01,0.27-0.2,0.51-0.48,0.52C703,301.75,703,301.75,702.99,301.75z"/>
	</g>
</g>
<g>
	<path d="M773.48,32.12c-0.03,0-0.05,0-0.08-0.01c-0.27-0.04-0.46-0.3-0.41-0.57c0.41-2.54,0.03-5.22-1.07-7.55
		c-0.12-0.25-0.01-0.54,0.24-0.66c0.25-0.12,0.54-0.01,0.66,0.24c1.19,2.51,1.6,5.39,1.16,8.13
		C773.94,31.95,773.72,32.12,773.48,32.12z"/>
</g>
<g>
	<path d="M615.29,273.31c-0.1,0-0.19-0.03-0.28-0.09c-0.23-0.16-0.28-0.46-0.13-0.69c2.44-3.56,3.92-7.72,4.28-12.02
		c0.02-0.27,0.27-0.47,0.54-0.45c0.27,0.02,0.48,0.26,0.45,0.54c-0.37,4.47-1.91,8.8-4.45,12.5
		C615.61,273.23,615.45,273.31,615.29,273.31z"/>
</g>
<g>
	<path d="M621.43,275.68c-0.11,0-0.22-0.04-0.31-0.11c-0.21-0.17-0.25-0.48-0.08-0.7c1.81-2.26,3.11-4.94,3.75-7.76
		c0.06-0.27,0.33-0.44,0.6-0.37c0.27,0.06,0.44,0.33,0.37,0.6c-0.68,2.97-2.04,5.79-3.94,8.16
		C621.72,275.61,621.58,275.68,621.43,275.68z"/>
</g>
<g>
	<path d="M542.05,234.37c-0.19,0-0.37-0.11-0.45-0.29c-2.85-6.1-6.69-11.62-11.42-16.4c-0.19-0.19-0.19-0.51,0-0.7
		c0.2-0.19,0.51-0.19,0.7,0c4.82,4.86,8.72,10.48,11.62,16.68c0.12,0.25,0.01,0.54-0.24,0.66
		C542.19,234.35,542.12,234.37,542.05,234.37z"/>
</g>
<g>
	<path d="M422.78,211.01c-0.18,0-0.36-0.1-0.44-0.27c-1.12-2.18-2.46-4.26-4-6.17c-0.17-0.21-0.14-0.53,0.08-0.7
		c0.21-0.17,0.53-0.14,0.7,0.08c1.58,1.96,2.96,4.1,4.11,6.34c0.12,0.24,0.03,0.54-0.22,0.67
		C422.93,210.99,422.85,211.01,422.78,211.01z"/>
</g>
<g>
	<path d="M208.43,193.3c-0.08,0-0.17-0.02-0.25-0.07c-0.24-0.14-0.32-0.44-0.18-0.68c2.18-3.76,3.26-8.21,3.04-12.55
		c-0.01-0.27,0.2-0.51,0.47-0.52c0.27-0.01,0.51,0.2,0.52,0.47c0.23,4.53-0.9,9.18-3.17,13.1
		C208.77,193.21,208.6,193.3,208.43,193.3z"/>
</g>
<g>
	<path d="M215.44,194.4c-0.1,0-0.2-0.03-0.29-0.1c-0.22-0.16-0.27-0.47-0.11-0.69c1.67-2.29,2.55-5.11,2.48-7.95
		c-0.01-0.27,0.21-0.5,0.49-0.51c0.28,0.01,0.5,0.21,0.51,0.49c0.07,3.05-0.87,6.09-2.67,8.56
		C215.75,194.33,215.6,194.4,215.44,194.4z"/>
</g>
<g>
	<path d="M541.94,41.4c-0.01,0-0.01,0-0.02,0c-0.27-0.01-0.49-0.24-0.48-0.51c0.19-5.19-1.65-10.44-5.04-14.38
		c-0.18-0.21-0.15-0.52,0.05-0.7c0.21-0.18,0.52-0.15,0.7,0.05c3.55,4.13,5.47,9.62,5.28,15.06C542.42,41.19,542.2,41.4,541.94,41.4
		z"/>
</g>
<g>
	<path d="M280.72,320.96c-0.27,0-0.49-0.22-0.5-0.49c-0.05-5.73,3.27-11.45,8.27-14.24c0.24-0.13,0.54-0.05,0.68,0.19
		c0.13,0.24,0.05,0.54-0.19,0.68c-4.69,2.62-7.81,7.99-7.76,13.36C281.22,320.73,281,320.96,280.72,320.96
		C280.72,320.96,280.72,320.96,280.72,320.96z"/>
</g>
<g>
	<path d="M273.89,318.69c-0.26,0-0.48-0.2-0.5-0.46c-0.23-3.54,1.05-7.21,3.44-9.84c0.18-0.2,0.5-0.22,0.7-0.03
		c0.2,0.18,0.22,0.5,0.03,0.7c-2.21,2.43-3.39,5.83-3.18,9.1c0.02,0.27-0.19,0.51-0.46,0.53
		C273.91,318.69,273.9,318.69,273.89,318.69z"/>
</g>
<g>
	<path d="M301.18,43.45c-0.17,0-0.34-0.09-0.43-0.26c-1.79-3.2-1.71-7.3,0.2-10.44c0.14-0.23,0.45-0.31,0.68-0.17
		c0.23,0.14,0.31,0.45,0.17,0.68c-1.72,2.83-1.79,6.54-0.18,9.44c0.13,0.24,0.05,0.54-0.19,0.68
		C301.35,43.43,301.26,43.45,301.18,43.45z"/>
</g>
<g>
	<path d="M201.34,381.03c-0.63,0-1.41-0.01-2.08-0.4c-1.06-0.63-1.33-1.85-1.56-2.93c-0.2-0.93-0.39-1.81-1.01-2.27
		c-1.06-0.8-2.65,0.05-4.2,1.09c-0.98,0.66-2.6,1.3-3.91,0.97c-0.64-0.17-1.14-0.56-1.44-1.13c-0.37-0.71-0.29-1.5-0.22-2.19
		c0.03-0.29,0.06-0.57,0.06-0.83c-0.01-1.01-0.61-1.99-1.62-2.62c-1-0.63-2.15-0.74-3.07-0.3c-0.77,0.37-1.5,1.06-2.2,1.73
		c-1.32,1.25-2.68,2.54-4.46,1.87c-1.84-0.7-1.94-2.63-2.02-4.5c-0.05-1.16-0.11-2.37-0.58-3.26c-1.03-1.95-3.95-2.09-6.34-1.57
		c-3.08,0.67-5.03,1.9-5.78,3.67c-0.45,1.06-0.49,2.36-0.53,3.62c-0.06,1.96-0.12,3.99-1.73,5.25c-1.22,0.95-2.89,0.98-4.11,0.99
		l-16.75,0.21c-0.27,0.01-0.5-0.22-0.5-0.49c0-0.27,0.22-0.5,0.49-0.5l16.75-0.21c1.39-0.02,2.62-0.09,3.51-0.78
		c1.24-0.97,1.29-2.68,1.35-4.49c0.04-1.35,0.08-2.75,0.61-3.98c0.89-2.09,3.07-3.52,6.48-4.26c1.33-0.29,5.81-0.99,7.43,2.08
		c0.57,1.09,0.64,2.4,0.7,3.68c0.09,1.96,0.23,3.18,1.38,3.62c1.2,0.45,2.23-0.53,3.43-1.66c0.76-0.72,1.54-1.47,2.46-1.9
		c1.22-0.58,2.73-0.45,4.02,0.36c1.29,0.81,2.07,2.1,2.08,3.46c0,0.32-0.03,0.63-0.06,0.94c-0.06,0.61-0.12,1.18,0.11,1.63
		c0.17,0.32,0.43,0.53,0.8,0.62c0.93,0.24,2.27-0.26,3.11-0.83c1.25-0.84,3.58-2.4,5.36-1.06c0.91,0.69,1.16,1.84,1.38,2.85
		c0.21,0.97,0.41,1.88,1.1,2.28c0.45,0.27,1.08,0.27,1.63,0.27l19.08-0.01c0.27,0,0.5,0.22,0.5,0.5c0,0.27-0.22,0.5-0.5,0.5
		l-19.08,0.01C201.37,381.03,201.35,381.03,201.34,381.03z"/>
</g>
<g>
	<path d="M762.32,89.95c-2.84,0-5.41-2.15-6.25-2.95c-0.59-0.55-1.16-1.15-1.71-1.73c-1.49-1.56-2.89-3.03-4.75-3.83
		c-1.89-0.82-4.16-0.69-6.22,0.35c-2.06,1.04-3.51,2.79-3.97,4.8c-0.06,0.27-0.33,0.44-0.6,0.37c-0.27-0.06-0.43-0.33-0.37-0.6
		c0.53-2.3,2.17-4.29,4.49-5.46c2.33-1.18,4.9-1.31,7.06-0.38c2.04,0.88,3.58,2.5,5.07,4.06c0.54,0.57,1.1,1.15,1.67,1.69
		c0.95,0.89,4.28,3.68,7.34,2.3c2.64-1.19,3.29-4.7,3.56-7.63c0.27-2.94,0.4-5.99-1.29-8.18c-0.17-0.22-0.13-0.53,0.09-0.7
		c0.22-0.17,0.53-0.13,0.7,0.09c1.9,2.48,1.76,5.89,1.49,8.88c-0.29,3.2-1.03,7.05-4.14,8.45
		C763.77,89.82,763.03,89.95,762.32,89.95z"/>
</g>
<g>
	<path d="M194.14,263.88c-0.63,0-1.28-0.25-1.73-0.63c-0.83-0.71-1.17-1.81-0.85-2.76c0.36-1.04,1.52-1.71,2.59-1.48l0,0
		c1.01,0.22,1.77,0.74,2.09,1.43c0.3,0.66,0.11,1.38-0.07,1.85c-0.13,0.36-0.31,0.76-0.66,1.08
		C195.13,263.73,194.64,263.88,194.14,263.88z M193.73,259.96c-0.52,0-1.05,0.36-1.22,0.86c-0.19,0.55,0.04,1.24,0.55,1.68
		c0.48,0.41,1.33,0.57,1.79,0.15c0.19-0.18,0.31-0.45,0.4-0.7c0.18-0.5,0.21-0.85,0.1-1.1c-0.18-0.4-0.7-0.72-1.39-0.87l0,0
		C193.87,259.96,193.8,259.96,193.73,259.96z"/>
</g>
<g>
	<path d="M355.11,195.76c-0.63,0-1.28-0.25-1.73-0.63c-0.83-0.71-1.17-1.81-0.85-2.76c0.36-1.04,1.52-1.71,2.59-1.48
		c1.01,0.21,1.77,0.74,2.09,1.43c0.3,0.66,0.11,1.38-0.07,1.85c-0.13,0.36-0.31,0.76-0.66,1.08
		C356.1,195.61,355.6,195.76,355.11,195.76z M354.69,191.83c-0.52,0-1.05,0.36-1.22,0.86c-0.19,0.55,0.04,1.24,0.55,1.68
		c0.48,0.41,1.34,0.57,1.79,0.15c0.19-0.18,0.31-0.45,0.4-0.7c0.18-0.5,0.21-0.85,0.1-1.1c-0.18-0.4-0.7-0.72-1.39-0.87l0,0
		C354.84,191.84,354.76,191.83,354.69,191.83z"/>
</g>
<g>
	<path d="M383.37,273.43c-0.63,0-1.28-0.25-1.73-0.63c-0.83-0.71-1.17-1.81-0.85-2.76c0.36-1.04,1.52-1.71,2.59-1.48
		c1.01,0.21,1.77,0.73,2.09,1.43c0.3,0.66,0.11,1.38-0.07,1.85c-0.13,0.36-0.31,0.77-0.66,1.08
		C384.36,273.28,383.87,273.43,383.37,273.43z M382.96,269.51c-0.52,0-1.05,0.36-1.22,0.86c-0.19,0.55,0.04,1.24,0.55,1.68
		c0.48,0.41,1.34,0.57,1.79,0.15c0.19-0.18,0.31-0.45,0.4-0.7c0.18-0.5,0.21-0.85,0.1-1.1c-0.18-0.4-0.7-0.72-1.39-0.87l0,0
		C383.1,269.51,383.03,269.51,382.96,269.51z"/>
</g>
<g>
	<path d="M151.08,334.38c-0.63,0-1.28-0.25-1.73-0.63c-0.83-0.71-1.17-1.82-0.85-2.76c0.36-1.04,1.52-1.71,2.59-1.48c0,0,0,0,0,0
		c1.01,0.22,1.77,0.74,2.09,1.43c0.3,0.66,0.11,1.38-0.07,1.85c-0.13,0.36-0.31,0.76-0.66,1.08
		C152.07,334.23,151.57,334.38,151.08,334.38z M150.66,330.45c-0.52,0-1.05,0.36-1.22,0.86c-0.19,0.55,0.04,1.24,0.55,1.68
		c0.48,0.41,1.33,0.57,1.79,0.15c0.19-0.18,0.31-0.45,0.4-0.7c0.18-0.5,0.21-0.85,0.1-1.1c-0.18-0.4-0.7-0.72-1.39-0.87l0,0
		C150.81,330.46,150.73,330.45,150.66,330.45z"/>
</g>
<g>
	<path d="M15.16,198.71c-0.63,0-1.28-0.25-1.73-0.63c-0.83-0.71-1.17-1.82-0.85-2.76c0.36-1.04,1.52-1.71,2.59-1.48l0,0
		c1.01,0.22,1.77,0.74,2.09,1.43c0.3,0.66,0.11,1.38-0.07,1.85c-0.13,0.36-0.31,0.76-0.66,1.08
		C16.15,198.56,15.66,198.71,15.16,198.71z M14.74,194.79c-0.52,0-1.05,0.36-1.22,0.86c-0.19,0.55,0.04,1.24,0.55,1.68
		c0.48,0.41,1.33,0.57,1.79,0.15c0.19-0.18,0.31-0.45,0.4-0.7c0.18-0.5,0.21-0.85,0.1-1.1c-0.18-0.4-0.7-0.72-1.39-0.87l0,0
		C14.89,194.8,14.81,194.79,14.74,194.79z"/>
</g>
<g>
	<path d="M164.85,109.24c-0.63,0-1.28-0.25-1.73-0.63c-0.83-0.71-1.17-1.81-0.85-2.76c0.36-1.04,1.52-1.71,2.59-1.48
		c1.01,0.22,1.77,0.74,2.09,1.43c0.3,0.66,0.11,1.38-0.07,1.85c-0.13,0.36-0.31,0.77-0.66,1.09
		C165.85,109.08,165.35,109.24,164.85,109.24z M164.44,105.31c-0.52,0-1.05,0.36-1.22,0.86c-0.19,0.55,0.04,1.24,0.55,1.68
		c0.48,0.41,1.33,0.57,1.79,0.15c0.19-0.18,0.31-0.45,0.4-0.7c0.18-0.5,0.21-0.85,0.1-1.1c-0.18-0.4-0.7-0.72-1.39-0.87h0
		C164.59,105.32,164.51,105.31,164.44,105.31z"/>
</g>
<g>
	<path d="M390.81,86.69c-0.63,0-1.28-0.25-1.73-0.63c-0.83-0.71-1.17-1.81-0.85-2.76c0.36-1.04,1.52-1.71,2.59-1.48h0
		c1.01,0.22,1.77,0.74,2.09,1.43c0.3,0.66,0.11,1.38-0.07,1.85c-0.13,0.36-0.31,0.76-0.66,1.08
		C391.8,86.54,391.31,86.69,390.81,86.69z M390.39,82.77c-0.52,0-1.05,0.36-1.22,0.86c-0.19,0.55,0.04,1.24,0.55,1.68
		c0.48,0.41,1.33,0.57,1.79,0.15c0.19-0.18,0.31-0.45,0.4-0.7c0.18-0.5,0.21-0.85,0.1-1.1c-0.18-0.4-0.7-0.72-1.39-0.87
		C390.54,82.78,390.47,82.77,390.39,82.77z"/>
</g>
<g>
	<path d="M655.07,111.2c-0.63,0-1.28-0.25-1.73-0.63c-0.83-0.71-1.17-1.81-0.85-2.76c0.36-1.04,1.52-1.71,2.59-1.48
		c1.01,0.22,1.77,0.74,2.09,1.43c0.3,0.66,0.11,1.38-0.07,1.85c-0.13,0.36-0.31,0.77-0.66,1.08
		C656.06,111.05,655.57,111.2,655.07,111.2z M654.66,107.27c-0.52,0-1.05,0.36-1.22,0.86c-0.19,0.55,0.04,1.24,0.55,1.68
		c0.48,0.41,1.33,0.57,1.79,0.15c0.19-0.18,0.31-0.45,0.4-0.7c0.18-0.5,0.21-0.85,0.1-1.1c-0.18-0.4-0.7-0.72-1.39-0.87l0,0
		C654.8,107.28,654.73,107.27,654.66,107.27z"/>
</g>
<g>
	<path d="M677.17,25.03c-0.63,0-1.28-0.25-1.73-0.63c-0.83-0.71-1.17-1.81-0.85-2.76c0.36-1.04,1.52-1.71,2.59-1.48
		c1.01,0.22,1.77,0.74,2.09,1.43c0.3,0.66,0.11,1.38-0.07,1.85c-0.13,0.36-0.31,0.76-0.66,1.08
		C678.16,24.87,677.67,25.03,677.17,25.03z M676.75,21.1c-0.52,0-1.05,0.36-1.22,0.86c-0.19,0.55,0.04,1.24,0.55,1.68
		c0.48,0.41,1.33,0.57,1.79,0.15c0.19-0.18,0.31-0.45,0.4-0.7c0.18-0.5,0.21-0.85,0.1-1.1c-0.18-0.4-0.7-0.72-1.39-0.87l0,0
		C676.9,21.11,676.83,21.1,676.75,21.1z"/>
</g>
<g>
	<path d="M636.83,225.98c-0.63,0-1.28-0.25-1.73-0.63c-0.83-0.71-1.17-1.82-0.85-2.76c0.36-1.04,1.52-1.71,2.59-1.48
		c1.01,0.22,1.77,0.73,2.09,1.43c0.3,0.66,0.11,1.38-0.07,1.85c-0.13,0.36-0.31,0.77-0.66,1.08
		C637.82,225.83,637.33,225.98,636.83,225.98z M636.42,222.06c-0.52,0-1.05,0.36-1.22,0.86c-0.19,0.55,0.04,1.24,0.55,1.68
		c0.48,0.41,1.33,0.57,1.79,0.15c0.19-0.18,0.31-0.45,0.4-0.7c0.18-0.5,0.21-0.85,0.1-1.1c-0.18-0.4-0.7-0.72-1.39-0.87l0,0
		C636.56,222.06,636.49,222.06,636.42,222.06z"/>
</g>
<g>
	<path d="M476.86,322.93c-0.63,0-1.28-0.25-1.73-0.63c-0.83-0.71-1.17-1.81-0.85-2.76c0.36-1.04,1.52-1.71,2.59-1.48l0,0
		c1.01,0.22,1.77,0.74,2.09,1.43c0.3,0.66,0.11,1.38-0.07,1.85c-0.13,0.36-0.31,0.76-0.66,1.08
		C477.85,322.78,477.36,322.93,476.86,322.93z M476.44,319.01c-0.52,0-1.05,0.36-1.22,0.86c-0.19,0.55,0.04,1.24,0.55,1.68
		c0.48,0.41,1.33,0.57,1.79,0.15c0.19-0.18,0.31-0.45,0.4-0.7c0.18-0.5,0.21-0.85,0.1-1.1c-0.18-0.4-0.7-0.72-1.39-0.87
		C476.59,319.01,476.52,319.01,476.44,319.01z"/>
</g>
<g>
	<path d="M739.41,273.43c-0.63,0-1.28-0.25-1.73-0.63c-0.83-0.71-1.17-1.81-0.85-2.76c0.36-1.04,1.52-1.71,2.59-1.48l0,0
		c1.01,0.21,1.77,0.73,2.09,1.43c0.3,0.66,0.11,1.38-0.07,1.85c-0.13,0.36-0.31,0.76-0.66,1.08
		C740.4,273.28,739.91,273.43,739.41,273.43z M738.99,269.51c-0.52,0-1.05,0.36-1.22,0.86c-0.19,0.55,0.04,1.24,0.55,1.68
		c0.48,0.41,1.33,0.57,1.79,0.15c0.19-0.18,0.31-0.45,0.4-0.7c0.18-0.5,0.21-0.85,0.1-1.1c-0.18-0.4-0.7-0.72-1.39-0.87l0,0
		C739.14,269.51,739.06,269.51,738.99,269.51z"/>
</g>
<g>
	<path d="M835.29,206.71c-0.63,0-1.28-0.25-1.73-0.63c-0.83-0.71-1.17-1.82-0.85-2.76c0.36-1.04,1.52-1.71,2.59-1.48
		c1.01,0.21,1.77,0.74,2.09,1.43c0.3,0.66,0.11,1.38-0.07,1.85c-0.13,0.36-0.31,0.76-0.66,1.08
		C836.28,206.56,835.79,206.71,835.29,206.71z M834.87,202.79c-0.52,0-1.05,0.36-1.22,0.86c-0.19,0.55,0.04,1.24,0.55,1.68
		c0.48,0.41,1.33,0.57,1.79,0.15c0.19-0.18,0.31-0.45,0.4-0.7c0.18-0.5,0.21-0.85,0.1-1.1c-0.18-0.4-0.7-0.72-1.39-0.87l0,0
		C835.02,202.8,834.94,202.79,834.87,202.79z"/>
</g>
<g>
	<path d="M828.47,330.23c-0.63,0-1.28-0.25-1.73-0.63c-0.83-0.71-1.17-1.81-0.85-2.76c0.36-1.04,1.52-1.71,2.59-1.48
		c1.01,0.21,1.77,0.73,2.09,1.43c0.3,0.66,0.11,1.38-0.07,1.85c-0.13,0.36-0.31,0.76-0.66,1.08
		C829.46,330.07,828.96,330.23,828.47,330.23z M828.05,326.3c-0.52,0-1.05,0.36-1.22,0.86c-0.19,0.55,0.04,1.24,0.55,1.68
		c0.48,0.41,1.33,0.57,1.79,0.15c0.19-0.18,0.31-0.45,0.4-0.7c0.18-0.5,0.21-0.85,0.1-1.1c-0.18-0.4-0.7-0.72-1.39-0.87l0,0
		C828.2,326.31,828.12,326.3,828.05,326.3z"/>
</g>
<g>
	<path d="M565.79,67.94c-0.63,0-1.28-0.25-1.73-0.63c-0.83-0.71-1.17-1.81-0.85-2.76c0.36-1.04,1.52-1.71,2.59-1.48l0,0
		c1.01,0.22,1.77,0.74,2.09,1.43c0.3,0.66,0.11,1.38-0.07,1.85c-0.13,0.36-0.31,0.77-0.66,1.08
		C566.78,67.79,566.29,67.94,565.79,67.94z M565.38,64.01c-0.52,0-1.05,0.36-1.22,0.86c-0.19,0.55,0.04,1.24,0.55,1.68
		c0.48,0.41,1.33,0.57,1.79,0.15c0.19-0.18,0.31-0.45,0.4-0.7c0.18-0.5,0.21-0.85,0.1-1.1c-0.18-0.4-0.7-0.72-1.39-0.87l0,0
		C565.52,64.02,565.45,64.01,565.38,64.01z"/>
</g>
<g>
	<path d="M482.77,144.04c-0.63,0-1.28-0.25-1.73-0.63c-0.83-0.71-1.17-1.81-0.85-2.76c0.36-1.04,1.52-1.71,2.59-1.48
		c1.01,0.22,1.77,0.74,2.09,1.43c0.3,0.66,0.11,1.38-0.07,1.85c-0.13,0.36-0.31,0.76-0.66,1.08
		C483.76,143.88,483.27,144.04,482.77,144.04z M482.35,140.11c-0.52,0-1.05,0.36-1.22,0.86c-0.19,0.55,0.04,1.24,0.55,1.68
		c0.48,0.41,1.34,0.57,1.79,0.15c0.19-0.18,0.31-0.45,0.4-0.7c0.18-0.5,0.21-0.85,0.1-1.1c-0.18-0.4-0.7-0.72-1.39-0.87l0,0
		C482.5,140.12,482.42,140.11,482.35,140.11z"/>
</g>
<g>
	<path d="M47.32,61.51c-0.23-0.16-0.46-0.36-0.67-0.59c-1.4-1.59-0.8-3.72-0.23-5.19c2.51-6.47,5.3-12.91,8.29-19.14
		c0.12-0.25,0.42-0.35,0.66-0.23c0.25,0.12,0.35,0.42,0.23,0.66c-2.98,6.21-5.76,12.62-8.26,19.07c-0.52,1.33-0.98,3.01,0.05,4.17
		c0.43,0.49,1.03,0.76,1.45,0.9c1.33,0.44,2.86,0.24,4.19-0.55c1.28-0.75,2.28-1.96,3.09-2.93c4.95-5.93,9.09-11.55,12.64-17.18
		c0.56-0.89,1.03-1.83,0.63-2.7c-0.3-0.65-1.03-1.15-1.81-1.64c-0.96-0.6-2.15-1.34-3.3-1.38c-1.7-0.05-2.82,1.41-3.74,2.78
		c-1.96,2.92-7.88,13.9-8.68,16.09c-0.09,0.26-0.38,0.39-0.64,0.3c-0.26-0.1-0.39-0.38-0.3-0.64c0.84-2.29,6.75-13.26,8.79-16.3
		c1.14-1.71,2.49-3.28,4.59-3.22c1.42,0.04,2.74,0.86,3.8,1.53c0.92,0.57,1.78,1.16,2.19,2.07c0.67,1.47-0.25,2.94-0.7,3.64
		c-3.58,5.68-7.74,11.33-12.72,17.29c-0.86,1.03-1.93,2.31-3.35,3.15c-1.58,0.93-3.41,1.16-5.01,0.64
		C48.19,61.99,47.74,61.81,47.32,61.51z"/>
</g>
<g>
	<g>
		<path d="M77.19,87.42c-0.25,0-0.46-0.18-0.49-0.44c-0.03-0.27,0.16-0.52,0.43-0.55l9.44-1.15c0.27-0.03,0.52,0.16,0.55,0.43
			c0.03,0.27-0.16,0.52-0.43,0.55l-9.44,1.15C77.23,87.41,77.21,87.42,77.19,87.42z"/>
	</g>
	<g>
		<path d="M82.49,91.73c-0.25,0-0.46-0.19-0.49-0.44l-1.16-9.77C80.8,81.24,81,81,81.27,80.97c0.27-0.04,0.52,0.16,0.55,0.44
			l1.16,9.77c0.03,0.27-0.16,0.52-0.44,0.55C82.53,91.73,82.51,91.73,82.49,91.73z"/>
	</g>
</g>
<g>
	<path class="st0" d="M53.22,175.3c0-2.74,2.22-4.96,4.96-4.96c2.74,0,4.96,2.22,4.96,4.96c0,2.74-2.22,4.96-4.96,4.96
		C55.43,180.26,53.22,178.04,53.22,175.3z"/>
	<path d="M58.17,180.75c-3.01,0-5.45-2.45-5.45-5.45s2.45-5.45,5.45-5.45c3.01,0,5.45,2.45,5.45,5.45S61.18,180.75,58.17,180.75z
		 M58.17,170.84c-2.46,0-4.46,2-4.46,4.46c0,2.46,2,4.46,4.46,4.46s4.46-2,4.46-4.46C62.63,172.84,60.63,170.84,58.17,170.84z"/>
</g>
<g>
	<path d="M799.24,242.09c-0.23-0.16-0.46-0.36-0.67-0.59c-1.4-1.59-0.8-3.72-0.23-5.19c2.51-6.47,5.3-12.91,8.29-19.14
		c0.12-0.25,0.42-0.35,0.66-0.23c0.25,0.12,0.35,0.42,0.23,0.66c-2.98,6.21-5.76,12.62-8.26,19.07c-0.52,1.33-0.98,3.01,0.05,4.17
		c0.43,0.49,1.03,0.76,1.45,0.9c1.33,0.44,2.86,0.24,4.19-0.55c1.28-0.75,2.28-1.96,3.09-2.93c4.95-5.93,9.09-11.55,12.64-17.18
		c0.56-0.89,1.03-1.83,0.63-2.7c-0.3-0.65-1.03-1.15-1.81-1.64c-0.96-0.6-2.15-1.34-3.3-1.38c-1.7-0.05-2.82,1.41-3.74,2.78
		c-1.96,2.92-7.88,13.9-8.68,16.09c-0.09,0.26-0.38,0.39-0.64,0.3c-0.26-0.1-0.39-0.38-0.3-0.64c0.84-2.29,6.75-13.26,8.79-16.3
		c1.14-1.71,2.49-3.28,4.59-3.22c1.42,0.04,2.74,0.86,3.8,1.53c0.92,0.57,1.78,1.16,2.19,2.07c0.67,1.47-0.25,2.94-0.7,3.64
		c-3.58,5.68-7.74,11.33-12.72,17.29c-0.86,1.03-1.93,2.31-3.35,3.15c-1.58,0.93-3.41,1.16-5.01,0.64
		C800.11,242.57,799.66,242.39,799.24,242.09z"/>
</g>
</svg>
