<?xml version="1.0" encoding="utf-8"?>
<!-- Generator: Adobe Illustrator 26.5.0, SVG Export Plug-In . SVG Version: 6.00 Build 0)  -->
<svg version="1.1" xmlns="http://www.w3.org/2000/svg" xmlns:xlink="http://www.w3.org/1999/xlink" x="0px" y="0px"
	 viewBox="0 0 800 800" style="enable-background:new 0 0 800 800;" xml:space="preserve">
<style type="text/css">
	.st0{fill:#F0F2FF;}
	.st1{fill:none;stroke:#D8D9DA;stroke-width:2;stroke-linecap:round;stroke-linejoin:round;stroke-miterlimit:10;}
	.st2{fill:none;stroke:#000000;stroke-width:2;stroke-linecap:round;stroke-linejoin:round;stroke-miterlimit:10;}
	.st3{fill:#FAE394;}
	.st4{fill:#F6977C;}
	.st5{fill:#90DFB1;}
</style>
<g id="Layer_1">
	<rect y="0" class="st0" width="800" height="800"/>
</g>
<g id="Layer_2">
	<g>
		<g>
			<g>
				<line class="st1" x1="335.63" y1="269.34" x2="433.42" y2="269.34"/>
				<line class="st1" x1="395" y1="291.65" x2="458.02" y2="291.65"/>
				<line class="st1" x1="727.1" y1="269.34" x2="790.12" y2="269.34"/>
				<line class="st1" x1="698.8" y1="299.03" x2="761.81" y2="299.03"/>
			</g>
			<g>
				<line class="st1" x1="759.33" y1="564.11" x2="787.05" y2="564.11"/>
				<line class="st1" x1="773.19" y1="550.25" x2="773.19" y2="577.96"/>
			</g>
			<g>
				<line class="st1" x1="718.33" y1="378.18" x2="746.05" y2="378.18"/>
				<line class="st1" x1="732.19" y1="364.33" x2="732.19" y2="392.04"/>
			</g>
			<g>
				<line class="st1" x1="66.14" y1="749.66" x2="93.86" y2="749.66"/>
				<line class="st1" x1="80" y1="735.8" x2="80" y2="763.52"/>
			</g>
			<g>
				<line class="st1" x1="560.62" y1="263.95" x2="588.33" y2="263.95"/>
				<line class="st1" x1="574.47" y1="250.09" x2="574.47" y2="277.8"/>
			</g>
			<g>
				<line class="st1" x1="208.98" y1="277.8" x2="236.7" y2="277.8"/>
				<line class="st1" x1="222.84" y1="263.95" x2="222.84" y2="291.66"/>
			</g>
			<line class="st1" x1="553.81" y1="551.86" x2="655.91" y2="551.86"/>
			<line class="st1" x1="339.41" y1="608.71" x2="441.52" y2="608.71"/>
			<line class="st1" x1="382.36" y1="640.54" x2="484.47" y2="640.54"/>
		</g>
		<g>
			<g>
				<line class="st1" x1="80" y1="264.79" x2="107.71" y2="264.79"/>
				<line class="st1" x1="93.86" y1="250.93" x2="93.86" y2="278.64"/>
			</g>
			<g>
				<line class="st1" x1="449" y1="555.33" x2="476.71" y2="555.33"/>
				<line class="st1" x1="462.86" y1="541.47" x2="462.86" y2="569.19"/>
			</g>
			<g>
				<line class="st1" x1="458.92" y1="189.49" x2="486.63" y2="189.49"/>
				<line class="st1" x1="472.77" y1="175.63" x2="472.77" y2="203.35"/>
			</g>
			<line class="st1" x1="76.13" y1="564.11" x2="178.24" y2="564.11"/>
			<polyline class="st1" points="595.14,502.51 578.13,490.51 561.11,502.51 544.1,490.51 527.08,502.51 510.06,490.51 
				493.04,502.51 			"/>
			<polyline class="st1" points="227.44,492.6 210.43,480.6 193.41,492.6 176.4,480.6 159.38,492.6 142.36,480.6 125.34,492.6 			
				"/>
			<polyline class="st1" points="441.52,384.18 424.5,372.18 407.49,384.18 390.47,372.18 373.45,384.18 356.43,372.18 
				339.41,384.18 			"/>
			<polyline class="st1" points="698.8,201.49 681.78,189.49 664.77,201.49 647.75,189.49 630.73,201.49 613.71,189.49 
				596.69,201.49 			"/>
			<polyline class="st1" points="159.57,193.13 142.56,181.13 125.55,193.13 108.53,181.13 91.51,193.13 74.49,181.13 57.47,193.13 
							"/>
			<polyline class="st1" points="435.57,78.35 418.56,66.35 401.55,78.35 384.53,66.35 367.51,78.35 350.49,66.35 333.47,78.35 			
				"/>
			<polyline class="st1" points="260.03,707.38 243.02,695.38 226.01,707.38 208.99,695.38 191.97,707.38 174.95,695.38 
				157.93,707.38 			"/>
			<polyline class="st1" points="749.85,755.66 732.83,743.66 715.82,755.66 698.8,743.66 681.78,755.66 664.76,743.66 
				647.74,755.66 			"/>
		</g>
		<g>
			<g>
				<line class="st1" x1="549.95" y1="416.78" x2="647.74" y2="416.78"/>
				<line class="st1" x1="609.32" y1="439.09" x2="672.34" y2="439.09"/>
			</g>
			<g>
				<line class="st1" x1="421.28" y1="466.25" x2="449" y2="466.25"/>
				<line class="st1" x1="435.14" y1="452.39" x2="435.14" y2="480.11"/>
			</g>
			<g>
				<line class="st1" x1="208.98" y1="586.52" x2="236.7" y2="586.52"/>
				<line class="st1" x1="222.84" y1="572.66" x2="222.84" y2="600.38"/>
			</g>
			<g>
				<line class="st1" x1="297.36" y1="417.41" x2="325.08" y2="417.41"/>
				<line class="st1" x1="311.22" y1="403.55" x2="311.22" y2="431.27"/>
			</g>
			<g>
				<line class="st1" x1="659.05" y1="670.78" x2="756.85" y2="670.78"/>
				<line class="st1" x1="718.43" y1="693.1" x2="781.44" y2="693.1"/>
			</g>
			<g>
				<line class="st1" x1="530.38" y1="720.25" x2="558.1" y2="720.25"/>
				<line class="st1" x1="544.24" y1="706.4" x2="544.24" y2="734.11"/>
			</g>
			<g>
				<line class="st1" x1="135.05" y1="116.98" x2="232.84" y2="116.98"/>
				<line class="st1" x1="194.42" y1="139.29" x2="257.44" y2="139.29"/>
			</g>
			<g>
				<line class="st1" x1="31.37" y1="452.39" x2="59.09" y2="452.39"/>
				<line class="st1" x1="45.23" y1="438.53" x2="45.23" y2="466.25"/>
			</g>
			<g>
				<line class="st1" x1="176.39" y1="333.58" x2="242.19" y2="333.58"/>
			</g>
			<g>
				<line class="st1" x1="666.62" y1="22.05" x2="764.41" y2="22.05"/>
				<line class="st1" x1="725.99" y1="44.36" x2="789.01" y2="44.36"/>
			</g>
			<g>
				<line class="st1" x1="519.22" y1="72.35" x2="546.94" y2="72.35"/>
				<line class="st1" x1="533.08" y1="58.5" x2="533.08" y2="86.21"/>
			</g>
			<g>
				<line class="st1" x1="486.63" y1="128.13" x2="552.43" y2="128.13"/>
			</g>
		</g>
	</g>
	<g>
		<g>
			<g>
				<line class="st2" x1="322.6" y1="277.93" x2="420.39" y2="277.93"/>
				<line class="st2" x1="381.97" y1="300.25" x2="444.99" y2="300.25"/>
				<line class="st2" x1="714.08" y1="277.93" x2="777.09" y2="277.93"/>
				<line class="st2" x1="685.77" y1="307.63" x2="748.79" y2="307.63"/>
			</g>
			<g>
				<line class="st2" x1="746.31" y1="572.7" x2="774.02" y2="572.7"/>
				<line class="st2" x1="760.16" y1="558.84" x2="760.16" y2="586.56"/>
			</g>
			<g>
				<line class="st2" x1="705.31" y1="386.78" x2="733.03" y2="386.78"/>
				<line class="st2" x1="719.17" y1="372.92" x2="719.17" y2="400.64"/>
			</g>
			<g>
				<line class="st2" x1="53.12" y1="758.26" x2="80.83" y2="758.26"/>
				<line class="st2" x1="66.97" y1="744.4" x2="66.97" y2="772.11"/>
			</g>
			<g>
				<line class="st2" x1="547.59" y1="272.54" x2="575.31" y2="272.54"/>
				<line class="st2" x1="561.45" y1="258.68" x2="561.45" y2="286.4"/>
			</g>
			<g>
				<line class="st2" x1="195.96" y1="286.4" x2="223.68" y2="286.4"/>
				<line class="st2" x1="209.82" y1="272.54" x2="209.82" y2="300.26"/>
			</g>
			<line class="st2" x1="540.78" y1="560.46" x2="642.89" y2="560.46"/>
			<line class="st2" x1="326.39" y1="617.31" x2="428.5" y2="617.31"/>
			<line class="st2" x1="369.34" y1="649.14" x2="471.45" y2="649.14"/>
		</g>
		<g>
			<g>
				<line class="st2" x1="66.97" y1="273.38" x2="94.69" y2="273.38"/>
				<line class="st2" x1="80.83" y1="259.52" x2="80.83" y2="287.24"/>
			</g>
			<g>
				<line class="st2" x1="435.97" y1="563.93" x2="463.69" y2="563.93"/>
				<line class="st2" x1="449.83" y1="550.07" x2="449.83" y2="577.79"/>
			</g>
			<g>
				<line class="st2" x1="445.89" y1="198.09" x2="473.61" y2="198.09"/>
				<line class="st2" x1="459.75" y1="184.23" x2="459.75" y2="211.95"/>
			</g>
			<line class="st2" x1="63.11" y1="572.7" x2="165.21" y2="572.7"/>
			<polyline class="st2" points="582.12,511.11 565.1,499.11 548.09,511.11 531.07,499.11 514.05,511.11 497.03,499.11 
				480.01,511.11 			"/>
			<polyline class="st2" points="214.42,501.2 197.4,489.2 180.39,501.2 163.37,489.2 146.36,501.2 129.33,489.2 112.31,501.2 			
				"/>
			<polyline class="st2" points="428.5,392.78 411.48,380.78 394.47,392.78 377.45,380.78 360.43,392.78 343.41,380.78 
				326.39,392.78 			"/>
			<polyline class="st2" points="685.77,210.09 668.76,198.09 651.74,210.09 634.73,198.09 617.71,210.09 600.69,198.09 
				583.67,210.09 			"/>
			<polyline class="st2" points="146.55,201.73 129.53,189.73 112.52,201.73 95.5,189.73 78.49,201.73 61.47,189.73 44.44,201.73 
							"/>
			<polyline class="st2" points="422.55,86.95 405.54,74.95 388.52,86.95 371.51,74.95 354.49,86.95 337.47,74.95 320.45,86.95 			
				"/>
			<polyline class="st2" points="247.01,715.98 229.99,703.98 212.98,715.98 195.96,703.98 178.95,715.98 161.93,703.98 
				144.9,715.98 			"/>
			<polyline class="st2" points="736.83,764.26 719.81,752.26 702.8,764.26 685.78,752.26 668.76,764.26 651.74,752.26 
				634.72,764.26 			"/>
		</g>
		<g>
			<g>
				<line class="st2" x1="536.93" y1="425.38" x2="634.72" y2="425.38"/>
				<line class="st2" x1="596.3" y1="447.69" x2="659.32" y2="447.69"/>
			</g>
			<g>
				<line class="st2" x1="408.26" y1="474.84" x2="435.97" y2="474.84"/>
				<line class="st2" x1="422.12" y1="460.99" x2="422.12" y2="488.7"/>
			</g>
			<g>
				<line class="st2" x1="195.96" y1="595.11" x2="223.68" y2="595.11"/>
				<line class="st2" x1="209.82" y1="581.25" x2="209.82" y2="608.97"/>
			</g>
			<g>
				<line class="st2" x1="284.34" y1="426" x2="312.05" y2="426"/>
				<line class="st2" x1="298.2" y1="412.15" x2="298.2" y2="439.86"/>
			</g>
			<g>
				<line class="st2" x1="646.03" y1="679.38" x2="743.82" y2="679.38"/>
				<line class="st2" x1="705.4" y1="701.7" x2="768.42" y2="701.7"/>
			</g>
			<g>
				<line class="st2" x1="517.36" y1="728.85" x2="545.08" y2="728.85"/>
				<line class="st2" x1="531.22" y1="714.99" x2="531.22" y2="742.71"/>
			</g>
			<g>
				<line class="st2" x1="122.03" y1="125.57" x2="219.82" y2="125.57"/>
				<line class="st2" x1="181.4" y1="147.89" x2="244.42" y2="147.89"/>
			</g>
			<g>
				<line class="st2" x1="18.35" y1="460.99" x2="46.07" y2="460.99"/>
				<line class="st2" x1="32.21" y1="447.13" x2="32.21" y2="474.84"/>
			</g>
			<g>
				<line class="st2" x1="163.37" y1="342.18" x2="229.17" y2="342.18"/>
			</g>
			<g>
				<line class="st2" x1="653.6" y1="30.64" x2="751.39" y2="30.64"/>
				<line class="st2" x1="712.97" y1="52.96" x2="775.99" y2="52.96"/>
			</g>
			<g>
				<line class="st2" x1="506.2" y1="80.95" x2="533.92" y2="80.95"/>
				<line class="st2" x1="520.06" y1="67.09" x2="520.06" y2="94.81"/>
			</g>
			<g>
				<line class="st2" x1="473.61" y1="136.73" x2="539.41" y2="136.73"/>
			</g>
		</g>
	</g>
	<g>
		<polygon class="st3" points="617.96,339.29 653.7,355.9 650.21,316.65 		"/>
		<polygon class="st4" points="105.55,401.14 141.28,417.76 137.8,378.5 		"/>
		<polygon class="st5" points="279.56,309.8 296.74,345.27 318.87,312.66 		"/>
		<polygon class="st4" points="634.06,99.39 651.24,134.86 673.37,102.25 		"/>
		<polygon class="st5" points="55.58,38.37 72.76,73.84 94.89,41.23 		"/>
		<polygon class="st3" points="89.09,636.83 106.27,672.3 128.4,639.69 		"/>
		<polygon class="st4" points="393.53,727.44 410.7,762.91 432.83,730.3 		"/>
	</g>
	<g>
		<polygon class="st2" points="603.91,346.37 639.64,362.99 636.16,323.73 		"/>
		<polygon class="st2" points="91.5,408.23 127.23,424.84 123.75,385.58 		"/>
		<polygon class="st2" points="265.51,316.88 282.69,352.35 304.81,319.74 		"/>
		<polygon class="st2" points="620.01,106.47 637.19,141.94 659.32,109.33 		"/>
		<polygon class="st2" points="41.53,45.45 58.71,80.92 80.83,48.31 		"/>
		<polygon class="st2" points="75.04,643.91 92.22,679.38 114.35,646.77 		"/>
		<polygon class="st2" points="379.47,734.52 396.65,769.99 418.78,737.38 		"/>
	</g>
	<g>
		<circle class="st5" cx="687.42" cy="502.76" r="15.91"/>
		
			<ellipse transform="matrix(0.2282 -0.9736 0.9736 0.2282 -263.9023 736.2567)" class="st3" cx="332.44" cy="534.58" rx="15.91" ry="15.91"/>
		
			<ellipse transform="matrix(0.7071 -0.7071 0.7071 0.7071 -29.3612 303.8788)" class="st3" cx="352.13" cy="187.38" rx="15.91" ry="15.91"/>
		
			<ellipse transform="matrix(0.2282 -0.9736 0.9736 0.2282 16.9812 763.1567)" class="st4" cx="489.84" cy="370.87" rx="15.91" ry="15.91"/>
		
			<ellipse transform="matrix(0.9223 -0.3864 0.3864 0.9223 -194.9407 279.987)" class="st4" cx="598.95" cy="624.87" rx="15.91" ry="15.91"/>
		
			<ellipse transform="matrix(0.2282 -0.9736 0.9736 0.2282 158.3327 277.5884)" class="st4" cx="254.25" cy="38.93" rx="15.91" ry="15.91"/>
		<circle class="st5" cx="758.77" cy="155.56" r="15.91"/>
	</g>
	<g>
		
			<ellipse transform="matrix(0.2313 -0.9729 0.9729 0.2313 23.6002 1052.085)" class="st2" cx="677.59" cy="511.11" rx="15.91" ry="15.91"/>
		<circle class="st2" cx="322.6" cy="542.93" r="15.91"/>
		
			<ellipse transform="matrix(0.2313 -0.9729 0.9729 0.2313 72.695 483.4695)" class="st2" cx="342.3" cy="195.73" rx="15.91" ry="15.91"/>
		<circle class="st2" cx="480.01" cy="379.22" r="15.91"/>
		<circle class="st2" cx="589.12" cy="633.22" r="15.91"/>
		<circle class="st2" cx="244.42" cy="47.28" r="15.91"/>
		
			<ellipse transform="matrix(0.7071 -0.7071 0.7071 0.7071 103.4591 577.586)" class="st2" cx="748.94" cy="163.91" rx="15.91" ry="15.91"/>
	</g>
</g>
</svg>
