<?xml version="1.0" encoding="utf-8"?>
<!-- Generator: Adobe Illustrator 26.5.0, SVG Export Plug-In . SVG Version: 6.00 Build 0)  -->
<svg version="1.1" id="Background" xmlns="http://www.w3.org/2000/svg" xmlns:xlink="http://www.w3.org/1999/xlink" x="0px" y="0px"
	 viewBox="0 0 750 500" style="enable-background:new 0 0 750 500;" xml:space="preserve">
<style type="text/css">
	.st0{fill:#F2F4F7;}
	.st1{fill:#F2F4F7;stroke:#404040;stroke-width:0.85;stroke-miterlimit:10;}
	.st2{fill:none;stroke:#404040;stroke-width:0.85;stroke-miterlimit:10;}
	.st3{clip-path:url(#SVGID_00000081613755220124930380000014159031030608737461_);}
	.st4{clip-path:url(#SVGID_00000019666069471833470890000011369528489697757597_);}
	.st5{fill:#404040;}
	.st6{fill:none;stroke:#404040;stroke-width:0.75;stroke-miterlimit:10;}
	.st7{fill:#404040;stroke:#404040;stroke-width:0.85;stroke-miterlimit:10;}
	
		.st8{clip-path:url(#SVGID_00000129913949231272724950000013533082405209014942_);fill:#F2F4F7;stroke:#404040;stroke-width:0.85;stroke-miterlimit:10;}
</style>
<rect class="st0" width="750" height="500"/>
<g>
	<path class="st1" d="M35.46,500V386.56c0-32.58,26.42-59,59-59h0c32.58,0,59,26.42,59,59V500"/>
	<path class="st1" d="M726.86,0v88.92c0,32.58-26.42,59-59,59h0c-32.58,0-59-26.42-59-59V0"/>
	<path class="st1" d="M225.24,0v63.76c0,16.97-13.76,30.73-30.73,30.73h0c-16.97,0-30.73-13.76-30.73-30.73V0"/>
	<path class="st1" d="M561.27,500.37V398.25c0-16.97-13.76-30.73-30.73-30.73h0c-16.97,0-30.73,13.76-30.73,30.73v102.12"/>
	<polyline class="st2" points="594,500 594,448 646,448 646,396 698,396 698,344 750,344 	"/>
	<path class="st1" d="M0,0"/>
	<g>
		<g>
			<defs>
				<path id="SVGID_1_" d="M229.64,474.91H112.39c-12.75,0-23.09-10.34-23.09-23.09v-0.78c0-12.75,10.34-23.09,23.09-23.09h117.25
					c12.75,0,23.09,10.34,23.09,23.09v0.78C252.73,464.58,242.39,474.91,229.64,474.91z"/>
			</defs>
			<clipPath id="SVGID_00000165209795920421607130000016285834839603381434_">
				<use xlink:href="#SVGID_1_"  style="overflow:visible;"/>
			</clipPath>
			<g style="clip-path:url(#SVGID_00000165209795920421607130000016285834839603381434_);">
				<rect x="86.42" y="424.34" class="st0" width="166.3" height="54.2"/>
				<line class="st2" x1="48.41" y1="412.3" x2="287.11" y2="412.3"/>
				<line class="st2" x1="48.41" y1="420.13" x2="287.11" y2="420.13"/>
				<line class="st2" x1="48.41" y1="427.96" x2="287.11" y2="427.96"/>
				<line class="st2" x1="48.41" y1="435.78" x2="287.11" y2="435.78"/>
				<line class="st2" x1="48.41" y1="443.61" x2="287.11" y2="443.61"/>
				<line class="st2" x1="48.41" y1="451.43" x2="287.11" y2="451.43"/>
				<line class="st2" x1="48.41" y1="459.26" x2="287.11" y2="459.26"/>
				<line class="st2" x1="48.41" y1="467.09" x2="287.11" y2="467.09"/>
				<line class="st2" x1="48.41" y1="474.91" x2="287.11" y2="474.91"/>
				<line class="st2" x1="48.41" y1="482.74" x2="287.11" y2="482.74"/>
				<line class="st2" x1="48.41" y1="490.57" x2="287.11" y2="490.57"/>
			</g>
		</g>
		<path class="st2" d="M229.64,474.91H112.39c-12.75,0-23.09-10.34-23.09-23.09v-0.78c0-12.75,10.34-23.09,23.09-23.09h117.25
			c12.75,0,23.09,10.34,23.09,23.09v0.78C252.73,464.58,242.39,474.91,229.64,474.91z"/>
	</g>
	<g>
		<g>
			<defs>
				<path id="SVGID_00000163772606946931661110000012368838497638672259_" d="M655.09,66.39H537.84
					c-12.75,0-23.09-10.34-23.09-23.09v-0.78c0-12.75,10.34-23.09,23.09-23.09h117.25c12.75,0,23.09,10.34,23.09,23.09v0.78
					C678.17,56.05,667.84,66.39,655.09,66.39z"/>
			</defs>
			<clipPath id="SVGID_00000130614159697878413080000008679910526164766100_">
				<use xlink:href="#SVGID_00000163772606946931661110000012368838497638672259_"  style="overflow:visible;"/>
			</clipPath>
			<g style="clip-path:url(#SVGID_00000130614159697878413080000008679910526164766100_);">
				<rect x="511.87" y="15.82" class="st0" width="166.3" height="54.2"/>
				<line class="st2" x1="473.86" y1="3.78" x2="712.55" y2="3.78"/>
				<line class="st2" x1="473.86" y1="11.61" x2="712.55" y2="11.61"/>
				<line class="st2" x1="473.86" y1="19.43" x2="712.55" y2="19.43"/>
				<line class="st2" x1="473.86" y1="27.26" x2="712.55" y2="27.26"/>
				<line class="st2" x1="473.86" y1="35.09" x2="712.55" y2="35.09"/>
				<line class="st2" x1="473.86" y1="42.91" x2="712.55" y2="42.91"/>
				<line class="st2" x1="473.86" y1="50.74" x2="712.55" y2="50.74"/>
				<line class="st2" x1="473.86" y1="58.57" x2="712.55" y2="58.57"/>
				<line class="st2" x1="473.86" y1="66.39" x2="712.55" y2="66.39"/>
				<line class="st2" x1="473.86" y1="74.22" x2="712.55" y2="74.22"/>
				<line class="st2" x1="473.86" y1="82.04" x2="712.55" y2="82.04"/>
			</g>
		</g>
		<path class="st2" d="M655.09,66.39H537.84c-12.75,0-23.09-10.34-23.09-23.09v-0.78c0-12.75,10.34-23.09,23.09-23.09h117.25
			c12.75,0,23.09,10.34,23.09,23.09v0.78C678.17,56.05,667.84,66.39,655.09,66.39z"/>
	</g>
	<path class="st1" d="M649.71,355.13c-23.12,0-41.87,18.75-41.87,41.87c0,23.12,18.75,41.87,41.87,41.87
		c23.12,0,41.87-18.75,41.87-41.87C691.58,373.88,672.84,355.13,649.71,355.13z"/>
	<polyline class="st2" points="0,156 156,156 156,104 104,104 104,52 52,52 52,0 	"/>
	<path class="st1" d="M131.17,306.02c-23.12,0-41.87,18.75-41.87,41.87c0,23.12,18.75,41.87,41.87,41.87
		c23.12,0,41.87-18.75,41.87-41.87C173.04,324.76,154.3,306.02,131.17,306.02z M131.17,380.5c-18.01,0-32.62-14.6-32.62-32.62
		c0-18.01,14.6-32.62,32.62-32.62c18.01,0,32.62,14.6,32.62,32.62C163.79,365.9,149.18,380.5,131.17,380.5z"/>
	<path class="st1" d="M618.28,81.26c-23.12,0-41.87,18.75-41.87,41.87c0,23.12,18.75,41.87,41.87,41.87s41.87-18.75,41.87-41.87
		C660.15,100.01,641.4,81.26,618.28,81.26z M618.28,155.75c-18.01,0-32.62-14.6-32.62-32.62s14.6-32.62,32.62-32.62
		s32.62,14.6,32.62,32.62S636.29,155.75,618.28,155.75z"/>
	<path class="st1" d="M50.48,321.87c-9.8,0-17.74,7.94-17.74,17.74c0,9.8,7.94,17.74,17.74,17.74s17.74-7.94,17.74-17.74
		C68.22,329.81,60.28,321.87,50.48,321.87z"/>
	<g>
		<polygon class="st5" points="117.46,156 107.44,156.4 117.19,158.73 107.29,157.16 116.39,161.36 106.99,157.88 115.1,163.78 
			106.55,158.54 113.36,165.9 105.99,159.09 111.24,167.64 105.34,159.53 108.82,168.94 104.62,159.83 106.19,169.73 103.86,159.98 
			103.46,170 103.06,159.98 100.73,169.73 102.29,159.83 98.1,168.94 101.58,159.53 95.67,167.64 100.92,159.09 93.56,165.9 
			100.36,158.54 91.82,163.78 99.93,157.88 90.52,161.36 99.63,157.16 89.72,158.73 99.48,156.4 89.46,156 99.48,155.6 
			89.72,153.27 99.63,154.84 90.52,150.64 99.93,154.12 91.82,148.22 100.36,153.46 93.56,146.1 100.92,152.91 95.68,144.36 
			101.58,152.47 98.1,143.06 102.29,152.17 100.73,142.27 103.06,152.02 103.46,142 103.86,152.02 106.19,142.27 104.62,152.17 
			108.82,143.06 105.34,152.47 111.24,144.36 105.99,152.91 113.36,146.1 106.55,153.46 115.1,148.22 106.99,154.12 116.39,150.64 
			107.29,154.84 117.19,153.27 107.44,155.6 		"/>
		<polygon class="st6" points="117.46,156 107.44,156.4 117.19,158.73 107.29,157.16 116.39,161.36 106.99,157.88 115.1,163.78 
			106.55,158.54 113.36,165.9 105.99,159.09 111.24,167.64 105.34,159.53 108.82,168.94 104.62,159.83 106.19,169.73 103.86,159.98 
			103.46,170 103.06,159.98 100.73,169.73 102.29,159.83 98.1,168.94 101.58,159.53 95.67,167.64 100.92,159.09 93.56,165.9 
			100.36,158.54 91.82,163.78 99.93,157.88 90.52,161.36 99.63,157.16 89.72,158.73 99.48,156.4 89.46,156 99.48,155.6 
			89.72,153.27 99.63,154.84 90.52,150.64 99.93,154.12 91.82,148.22 100.36,153.46 93.56,146.1 100.92,152.91 95.68,144.36 
			101.58,152.47 98.1,143.06 102.29,152.17 100.73,142.27 103.06,152.02 103.46,142 103.86,152.02 106.19,142.27 104.62,152.17 
			108.82,143.06 105.34,152.47 111.24,144.36 105.99,152.91 113.36,146.1 106.55,153.46 115.1,148.22 106.99,154.12 116.39,150.64 
			107.29,154.84 117.19,153.27 107.44,155.6 		"/>
	</g>
	<g>
		<polygon class="st5" points="575.71,431 565.69,431.4 575.45,433.73 565.54,432.16 574.65,436.36 565.25,432.88 573.35,438.78 
			564.81,433.54 571.61,440.9 564.25,434.09 569.5,442.64 563.6,434.53 567.07,443.94 562.88,434.83 564.44,444.73 562.11,434.98 
			561.71,445 561.32,434.98 558.99,444.73 560.55,434.83 556.35,443.94 559.83,434.53 553.93,442.64 559.18,434.09 551.81,440.9 
			558.62,433.54 550.07,438.78 558.18,432.88 548.78,436.36 557.88,432.16 547.98,433.73 557.73,431.4 547.71,431 557.73,430.6 
			547.98,428.27 557.88,429.84 548.78,425.64 558.18,429.12 550.08,423.22 558.62,428.46 551.82,421.1 559.18,427.91 553.93,419.36 
			559.83,427.47 556.35,418.06 560.55,427.17 558.99,417.27 561.32,427.02 561.71,417 562.11,427.02 564.44,417.27 562.88,427.17 
			567.08,418.06 563.6,427.47 569.5,419.36 564.25,427.91 571.61,421.1 564.81,428.46 573.35,423.22 565.25,429.12 574.65,425.64 
			565.54,429.84 575.45,428.27 565.69,430.6 		"/>
		<polygon class="st6" points="575.71,431 565.69,431.4 575.45,433.73 565.54,432.16 574.65,436.36 565.25,432.88 573.35,438.78 
			564.81,433.54 571.61,440.9 564.25,434.09 569.5,442.64 563.6,434.53 567.07,443.94 562.88,434.83 564.44,444.73 562.11,434.98 
			561.71,445 561.32,434.98 558.99,444.73 560.55,434.83 556.35,443.94 559.83,434.53 553.93,442.64 559.18,434.09 551.81,440.9 
			558.62,433.54 550.07,438.78 558.18,432.88 548.78,436.36 557.88,432.16 547.98,433.73 557.73,431.4 547.71,431 557.73,430.6 
			547.98,428.27 557.88,429.84 548.78,425.64 558.18,429.12 550.08,423.22 558.62,428.46 551.82,421.1 559.18,427.91 553.93,419.36 
			559.83,427.47 556.35,418.06 560.55,427.17 558.99,417.27 561.32,427.02 561.71,417 562.11,427.02 564.44,417.27 562.88,427.17 
			567.08,418.06 563.6,427.47 569.5,419.36 564.25,427.91 571.61,421.1 564.81,428.46 573.35,423.22 565.25,429.12 574.65,425.64 
			565.54,429.84 575.45,428.27 565.69,430.6 		"/>
	</g>
	<line class="st7" x1="0" y1="399" x2="35.46" y2="399"/>
	<line class="st2" x1="50.48" y1="272.38" x2="50.48" y2="321.87"/>
	<line class="st1" x1="537.84" y1="0" x2="537.84" y2="19.43"/>
	<line class="st1" x1="698" y1="147.92" x2="698" y2="355.13"/>
	<line class="st1" x1="145.33" y1="52" x2="163.79" y2="52"/>
	<line class="st1" x1="608.29" y1="396" x2="561.71" y2="396"/>
	<g>
		<defs>
			<rect id="SVGID_00000091733196124031510320000010246140306840349056_" x="646" y="404.09" width="104" height="95.91"/>
		</defs>
		<clipPath id="SVGID_00000164471740195206960340000005519334133654824075_">
			<use xlink:href="#SVGID_00000091733196124031510320000010246140306840349056_"  style="overflow:visible;"/>
		</clipPath>
		
			<path style="clip-path:url(#SVGID_00000164471740195206960340000005519334133654824075_);fill:#F2F4F7;stroke:#404040;stroke-width:0.85;stroke-miterlimit:10;" d="
			M674.76,571.28V454.03c0-12.75,10.34-23.09,23.09-23.09h0c12.75,0,23.09,10.34,23.09,23.09v117.25
			c0,12.75-10.34,23.09-23.09,23.09h0C685.1,594.37,674.76,584.04,674.76,571.28z"/>
	</g>
	<path class="st1" d="M674.91,279.52v-71.87c0-12.75,10.34-23.09,23.09-23.09l0,0c12.75,0,23.09,10.34,23.09,23.09v71.87
		c0,12.75-10.34,23.09-23.09,23.09l0,0C685.25,302.61,674.91,292.27,674.91,279.52z"/>
	<path class="st1" d="M698,120.52c-9.8,0-17.74,7.94-17.74,17.74S688.2,156,698,156s17.74-7.94,17.74-17.74S707.8,120.52,698,120.52
		z"/>
	<line class="st1" x1="726.59" y1="94.49" x2="750" y2="94.49"/>
	<line class="st2" x1="229.08" y1="475.26" x2="229.08" y2="500.37"/>
	<path class="st1" d="M103.46,11.02c-23.12,0-41.87,18.75-41.87,41.87c0,23.12,18.75,41.87,41.87,41.87
		c23.12,0,41.87-18.75,41.87-41.87C145.33,29.77,126.58,11.02,103.46,11.02z"/>
	<path class="st1" d="M27.39,249.3V132.05c0-12.75,10.34-23.09,23.09-23.09l0,0c12.75,0,23.09,10.34,23.09,23.09V249.3
		c0,12.75-10.34,23.09-23.09,23.09l0,0C37.73,272.38,27.39,262.05,27.39,249.3z"/>
</g>
</svg>
